<?xml version="1.0" encoding="utf-8"?>
<!-- Generator: Adobe Illustrator 23.1.0, SVG Export Plug-In . SVG Version: 6.00 Build 0)  -->
<svg version="1.1" id="Layer_1" xmlns="http://www.w3.org/2000/svg" xmlns:xlink="http://www.w3.org/1999/xlink" x="0px" y="0px"
	 viewBox="0 0 50 50" style="enable-background:new 0 0 50 50;" xml:space="preserve">
<g id="zadan">
	<g>
		<path d="M45.3,37.5h-0.5L44,19.6l0.9-1.5c0-0.1,0.1-0.1,0.1-0.2v-4.2c0-0.3-0.2-0.4-0.5-0.4h-0.2c0.2-0.4,0.3-0.8,0.2-1
			c-0.1-0.2-0.3-0.5-0.8-0.8c-0.1-0.1-0.2-0.3-0.2-0.4l0.2-3.5c0-0.4-0.1-0.8-0.4-1l-0.8-0.8c-0.1-0.1-0.3-0.2-0.5-0.3v-3
			C42,2.2,41.8,2,41.6,2s-0.5,0.2-0.5,0.5v3c-0.2,0.1-0.3,0.2-0.5,0.3L40,6.5c-0.3,0.4-0.5,0.9-0.5,1.4c0.2,1.1,0.5,2.9,0.3,3.4
			c0,0.1-0.2,0.2-0.3,0.3c-0.3,0.2-0.5,0.5-0.6,0.8c0,0.2,0.1,0.5,0.2,0.7h-0.5c-0.3,0-0.5,0.2-0.5,0.4v4.1c0,0.1,0,0.2,0.1,0.3
			l1,1.4l0.1,18h-0.1c-0.3,0-0.5,0.2-0.5,0.4v9.2h-0.6v-7.9l0.8-4.2c0.5-3.2-0.4-7.1-2-9.4c-0.3-0.5-0.8-1.1-1.5-1.9
			c-2.5-3.2-5.4-6-8.7-8.4l-0.6-0.4c0.1-0.2,0.2-0.4,0.2-0.6c0-0.4-0.2-0.6-0.5-0.8c0.1-0.1,0.2-0.3,0.2-0.5c0-0.3-0.2-0.6-0.5-0.7
			c0.1-0.1,0.2-0.3,0.2-0.5c0-0.4-0.3-0.6-0.6-0.6c-0.4,0-0.6,0.3-0.6,0.6c0,0.2,0.1,0.4,0.3,0.5c-0.2,0.1-0.4,0.4-0.4,0.7
			c0,0.2,0.1,0.4,0.2,0.6c-0.3,0.2-0.4,0.5-0.4,0.8c0,0.4,0.2,0.7,0.5,0.9l-6.7,5.6c-3.3,2.9-5.3,6-6.3,9.6
			c-0.7,2.7-0.3,5.7,1.1,8.4l0.2,0.5v7.9H12v-9.2c0-0.3-0.2-0.5-0.4-0.5h-0.2l0.1-18l1.1-1.4c0.1-0.1,0.1-0.2,0.1-0.3v-4.1
			c0-0.3-0.2-0.4-0.4-0.4h-0.6c0.2-0.3,0.3-0.6,0.2-0.7c-0.1-0.4-0.4-0.6-0.6-0.8c-0.1-0.1-0.3-0.2-0.3-0.3
			c-0.2-0.5,0.1-2.3,0.3-3.5c0-0.5-0.2-1-0.6-1.4L9.9,5.7C9.7,5.6,9.5,5.5,9.3,5.4v-3C9.3,2.2,9.1,2,8.9,2S8.4,2.2,8.4,2.4v3
			C8.2,5.5,8.1,5.5,7.9,5.7L7,6.4C6.7,6.7,6.5,7.1,6.5,7.5L6.7,11c0,0.1-0.1,0.3-0.1,0.4c-0.5,0.3-0.8,0.6-0.9,0.8
			c0,0.1-0.1,0.4,0.2,1H5.6c-0.3,0-0.4,0.2-0.4,0.4v4.2c0,0.1,0,0.2,0.1,0.3l1,1.5L5.4,37.5H4.7c-0.3,0-0.4,0.2-0.4,0.4v9.6
			c0,0.3,0.2,0.4,0.4,0.4s0.4-0.2,0.4-0.4v-9.2h5l0.7,0h0c0,0,0.1,0,0.1,0h0.1v8.7H7.6c-0.3,0-0.4,0.2-0.4,0.4S7.4,48,7.6,48h3.9
			c0,0,0,0,0,0s0,0,0,0h4c0,0,0,0,0,0H18c0,0,0,0,0,0h1.8c0,0,0,0,0,0h2.4c0,0,0,0,0,0h1.7c0,0,0,0,0,0h2.4c0,0,0,0,0,0h2.5
			c0,0,0,0,0,0h2.4c0,0,0,0,0,0h2.3c0,0,0,0,0,0h2.4c0,0,0,0,0,0h6.7c0.3,0,0.5-0.2,0.5-0.5s-0.2-0.4-0.5-0.4h-2.8v-8.7h0.1
			c0,0,0,0,0.1,0h0l0.7,0h4.3v9.2c0,0.3,0.2,0.5,0.5,0.5s0.5-0.2,0.5-0.5v-9.6C45.7,37.7,45.5,37.5,45.3,37.5z M6.5,12.5
			c0.1-0.1,0.3-0.3,0.6-0.4c0.4-0.3,0.6-0.7,0.5-1.2L7.4,7.4c0-0.1,0.1-0.2,0.1-0.3l0.9-0.8c0.2-0.2,0.6-0.2,0.8,0l0.8,0.8
			c0.2,0.2,0.3,0.4,0.3,0.6c-0.1,0.5-0.7,3.1-0.3,4c0.1,0.2,0.3,0.4,0.5,0.6c0.1,0.1,0.2,0.2,0.3,0.3c-0.1,0.1-0.2,0.4-0.4,0.6l0,0
			H7C6.8,12.9,6.6,12.6,6.5,12.5z M6.3,37.4l0.9-17.9c0-0.1,0-0.2-0.1-0.3l-1-1.5v-3.6h5.7v3.5L10.6,19c-0.1,0.1-0.1,0.2-0.1,0.3
			l-0.1,18.2h-0.3L6.3,37.4z M25.4,14.1c0.1,0,0.1,0.1,0.1,0.1c0,0.1-0.3,0.1-0.3,0C25.3,14.2,25.3,14.1,25.4,14.1z M25.5,12.9
			c0,0.1-0.2,0.1-0.2,0C25.3,12.8,25.3,12.8,25.5,12.9C25.4,12.8,25.5,12.8,25.5,12.9z M25.3,11.5c0.1,0,0.3,0.1,0.3,0.3
			c0,0.3-0.5,0.3-0.5,0C25,11.6,25.2,11.5,25.3,11.5z M12.8,30.5c0.9-3.4,2.8-6.3,6-9.1l7-5.8l0.5,0.4c3.2,2.4,6,5.2,8.5,8.3
			c0.6,0.8,1.1,1.4,1.4,1.9c1.5,2.1,2.3,5.7,1.9,8.7l-0.7,3.8H13.9l-0.1-0.3C12.5,35.8,12.2,33,12.8,30.5z M14.1,39.6h23.2v7.5h-1
			v-4.9c0-0.1,0-0.2-0.1-0.3c-0.4-0.7-1-1.4-1.6-1.4c-0.5,0-1.1,0.7-1.5,1.3c0,0.1-0.1,0.2-0.1,0.3v5h-1.4v-4.9c0-0.1,0-0.2-0.1-0.3
			c-0.4-0.7-1-1.4-1.6-1.4c-0.5,0-1.1,0.7-1.5,1.3c0,0.1-0.1,0.2-0.1,0.3v5h-1.6v-4.9c0-0.1,0-0.2-0.1-0.2c-0.4-0.7-1-1.4-1.6-1.4
			c-0.5,0-1.1,0.7-1.5,1.3c0,0.1-0.1,0.2-0.1,0.3v5h-0.9v-4.9c0-0.1,0-0.2-0.1-0.2c-0.4-0.7-1-1.4-1.6-1.4c-0.5,0-1.1,0.7-1.5,1.3
			c0,0.1-0.1,0.2-0.1,0.3v5h-0.9v-4.9c0-0.1,0-0.2-0.1-0.2c-0.4-0.7-1-1.4-1.6-1.4c-0.5,0-1.1,0.7-1.5,1.3c-0.1,0.1-0.1,0.2-0.1,0.3
			v5h-1.1L14.1,39.6L14.1,39.6z M33.9,47.1v-4.9c0.3-0.4,0.6-0.8,0.6-0.8c0.2,0.1,0.5,0.5,0.8,0.9v4.8
			C35.4,47.1,33.9,47.1,33.9,47.1z M29.3,47.1v-4.9c0.3-0.4,0.6-0.8,0.6-0.8c0.1,0.1,0.5,0.5,0.8,0.9v4.8
			C30.7,47.1,29.3,47.1,29.3,47.1z M24.4,47.1v-4.9c0.3-0.4,0.6-0.8,0.6-0.8c0.1,0.1,0.5,0.5,0.8,0.9v4.8
			C25.8,47.1,24.4,47.1,24.4,47.1z M20.2,47.1v-4.9c0.3-0.4,0.6-0.8,0.6-0.8c0.1,0.1,0.5,0.5,0.8,0.9v4.8
			C21.7,47.1,20.2,47.1,20.2,47.1z M16.1,47.1v-4.9c0.3-0.4,0.6-0.8,0.6-0.8c0.1,0.1,0.5,0.5,0.8,0.9v4.8
			C17.5,47.1,16.1,47.1,16.1,47.1z M39.8,12.6c0-0.1,0.2-0.2,0.3-0.3c0.2-0.2,0.4-0.4,0.5-0.6c0.4-0.9-0.1-3.5-0.2-3.9
			c0-0.3,0.1-0.5,0.3-0.7l0.7-0.8c0.2-0.2,0.4-0.2,0.6,0l0.8,0.8c0.1,0.1,0.1,0.2,0.1,0.3l-0.2,3.5c0,0.4,0.1,0.9,0.5,1.2
			c0.2,0.1,0.4,0.3,0.5,0.4c0,0.1-0.2,0.5-0.4,0.7h-3C40,12.9,39.8,12.6,39.8,12.6z M40.2,19.3c0-0.1,0-0.2-0.1-0.3l-1-1.4v-3.5H44
			v3.7l-0.9,1.5c0,0.1-0.1,0.2-0.1,0.3l0.8,17.9l-3.4,0.1h-0.2L40.2,19.3z"/>
		<path d="M42.1,17.9h1.3c0.3,0,0.5-0.2,0.5-0.5v-2.4c0-0.3-0.2-0.4-0.5-0.4h-1.3c-0.3,0-0.5,0.2-0.5,0.4v2.4
			C41.6,17.7,41.8,17.9,42.1,17.9z M42.5,15.5h0.4V17h-0.4V15.5z"/>
		<path d="M41.4,17.5v-2.4c0-0.3-0.2-0.4-0.5-0.4h-1.3c-0.3,0-0.5,0.2-0.5,0.4v2.4c0,0.3,0.2,0.5,0.5,0.5H41
			C41.2,18,41.4,17.8,41.4,17.5z M40.5,17h-0.4v-1.5h0.4V17z"/>
		<path d="M8.4,14.6H6.9c-0.3,0-0.4,0.2-0.4,0.4v2.4c0,0.3,0.2,0.5,0.4,0.5h1.5c0.3,0,0.4-0.2,0.4-0.5v-2.4
			C8.8,14.8,8.6,14.6,8.4,14.6z M7.9,17H7.3v-1.5h0.6C7.9,15.5,7.9,17,7.9,17z"/>
		<path d="M11.1,18c0.3,0,0.4-0.2,0.4-0.5v-2.4c0-0.3-0.2-0.4-0.4-0.4H9.6c-0.3,0-0.4,0.2-0.4,0.4v2.4c0,0.3,0.2,0.5,0.4,0.5H11.1z
			 M10,15.6h0.6V17H10V15.6z"/>
	</g>
</g>
</svg>
