<?xml version="1.0" encoding="utf-8"?>
<!-- Generator: Adobe Illustrator 23.1.0, SVG Export Plug-In . SVG Version: 6.00 Build 0)  -->
<svg version="1.1" id="Layer_1" xmlns="http://www.w3.org/2000/svg" xmlns:xlink="http://www.w3.org/1999/xlink" x="0px" y="0px"
	 viewBox="0 0 50 50" style="enable-background:new 0 0 50 50;" xml:space="preserve">
<g id="zadan_1_">
	<g>
		<path d="M17.1,27.9H6.3c-0.3,0-0.5,0.2-0.5,0.5v16.8c0,0.3,0.2,0.5,0.5,0.5c0.3,0,0.5-0.2,0.5-0.5V28.8h9.9v16.3
			c0,0.3,0.2,0.5,0.5,0.5c0.3,0,0.5-0.2,0.5-0.5V28.4C17.6,28.1,17.4,27.9,17.1,27.9z"/>
		<path d="M15.5,29.7H8c-0.3,0-0.5,0.2-0.5,0.5l-0.1,15c0,0.3,0.2,0.5,0.5,0.5l0,0c0.3,0,0.5-0.2,0.5-0.5l0.1-14.6H15l-0.1,14.4
			c0,0.3,0.2,0.5,0.5,0.5l0,0c0.3,0,0.5-0.2,0.5-0.5L16,30.2c0-0.1,0-0.2-0.1-0.3C15.8,29.8,15.6,29.7,15.5,29.7z"/>
		<path d="M13.2,33.9c-0.3-0.3-0.6-0.5-1.4-0.5c-0.9,0-1.3,0.3-1.6,0.7c-0.2,0.2-0.3,0.8-0.4,1.3l-0.1,9.8c0,0.3,0.2,0.5,0.5,0.5
			l0,0c0.3,0,0.5-0.2,0.5-0.5l0.1-9.7c0-0.3,0.1-0.7,0.2-0.7c0,0,0.1-0.1,0.1-0.1c0.2-0.2,0.3-0.3,0.8-0.3c0.6,0,0.6,0.1,0.8,0.2
			c0.1,0.1,0.2,0.4,0.3,0.6l-0.1,10c0,0.3,0.2,0.5,0.5,0.5l0,0c0.3,0,0.5-0.2,0.5-0.5l0.1-10.1c0,0,0-0.1,0-0.1
			C13.7,34.7,13.5,34.2,13.2,33.9z"/>
		<path d="M35.9,31.2H23.1c-0.3,0-0.5,0.2-0.5,0.5c0,0.3,0.2,0.5,0.5,0.5h1.4L22.8,36c-0.1,0.2,0,0.5,0.2,0.6c0.1,0,0.1,0,0.2,0
			c0.2,0,0.4-0.1,0.4-0.3l1.4-3.2l2,2.9c0.1,0.1,0.3,0.2,0.4,0.2c0.2,0,0.3-0.1,0.4-0.2l1.7-2.9l1.9,2.9c0.1,0.1,0.3,0.2,0.4,0.2
			c0.2,0,0.3-0.1,0.4-0.3l1.5-3l1.5,3.1c0.1,0.2,0.4,0.3,0.6,0.2c0.2-0.1,0.3-0.4,0.2-0.6l-1.8-3.6h1.6c0.3,0,0.5-0.2,0.5-0.5
			C36.3,31.4,36.1,31.2,35.9,31.2z M27.4,34.9l-1.9-2.8H29L27.4,34.9z M31.7,34.8L30,32.1h3.1L31.7,34.8z"/>
		<path d="M42.6,26.6c0.3,0,0.5-0.2,0.5-0.5v-1.4c0-0.3-0.2-0.5-0.5-0.5s-0.5,0.2-0.5,0.5v1.4C42.1,26.4,42.3,26.6,42.6,26.6z"/>
		<path d="M35.9,37.2H23.5c-0.3,0-0.5,0.2-0.5,0.5s0.2,0.5,0.5,0.5h12.4c0.3,0,0.5-0.2,0.5-0.5S36.1,37.2,35.9,37.2z"/>
		<path d="M47.6,38.4l-9.9-1.5v-6.8l6.8,0.2v7.1c0,0.3,0.2,0.5,0.5,0.5c0.3,0,0.5-0.2,0.5-0.5v-7.5c0-0.3-0.2-0.5-0.5-0.5l-4.7-0.1
			l0,0c0.3-0.4,0.6-0.8,1.1-1l0.1-0.1c0.5-0.3,1.2-0.6,1.8-0.6c0.7,0,1.4,0.1,2,0.5c0.5,0.3,0.9,0.6,1.2,1.1l0.6,0.8
			c0.2,0.2,0.5,0.3,0.7,0.1c0.2-0.2,0.3-0.5,0.1-0.7l-0.6-0.8c-0.4-0.5-0.8-0.9-1.4-1.3h1.6c0.3,0,0.5-0.2,0.5-0.5
			c0-0.3-0.2-0.5-0.5-0.5h-1.4c-0.1-0.3-0.2-0.8-0.2-1c-0.1-0.4-0.5-1.1-0.7-1.4c-0.4-0.7-1.4-2-2-2.7c-0.8-0.8-2.5-2.2-3.4-2.9
			c-0.2-0.2-2-1.5-3-1.9c-0.3-0.2-1.2-0.5-1.8-0.6v0c0.3-0.2,0.4-0.4,0.4-0.8c0-0.3-0.2-0.6-0.4-0.7v-0.4c0-0.3-0.2-0.5-0.5-0.5
			S34,13.6,34,13.8v0.4c-0.3,0.2-0.4,0.4-0.4,0.7c0,0.3,0.2,0.6,0.4,0.7v0c-0.2,0-0.4,0.1-0.6,0.2c-0.5,0.2-1.5,1-2,1.4L31.1,17
			c-0.4-0.3-0.8-0.4-1.2-0.5v-0.2c0.3-0.2,0.4-0.4,0.4-0.8c0-0.3-0.2-0.6-0.4-0.8V13c0-0.3-0.2-0.5-0.5-0.5c-0.3,0-0.5,0.2-0.5,0.5
			v1.9c-0.3,0.2-0.4,0.4-0.4,0.8c0,0.3,0.2,0.6,0.4,0.8v0.3c-0.4,0.1-0.7,0.2-1,0.5l-2.8,2.1l-0.7-0.8c-0.1-0.1-0.2-0.2-0.3-0.3
			l-0.9-0.8c-0.2-0.1-0.3-0.3-0.5-0.4L22,16.3c-0.2-0.1-0.4-0.2-0.6-0.3c-0.3-0.1-0.6-0.2-1-0.2v-0.3c0.2-0.2,0.3-0.4,0.3-0.6
			c0-0.3-0.1-0.5-0.3-0.6v-1.5c0-0.3-0.2-0.5-0.5-0.5c-0.3,0-0.5,0.2-0.5,0.5v1.5c-0.2,0.2-0.3,0.4-0.3,0.6c0,0.3,0.1,0.5,0.3,0.6
			v0.3c-0.2,0-0.5,0.1-0.6,0.1c0,0-0.1,0-0.2,0c-0.3-0.6-0.6-1.1-1-1.6c-1.1-1.6-2.6-3-4.2-4.2l-0.7-0.5c-0.4-0.3-0.9-0.4-1.3-0.4
			h-0.1V8.8c0.3-0.2,0.5-0.5,0.5-0.9c0-0.4-0.2-0.7-0.5-0.9V4.8c0-0.3-0.2-0.5-0.5-0.5c-0.3,0-0.5,0.2-0.5,0.5v2.4
			C10.1,7.3,9.9,7.6,9.9,8c0,0.4,0.2,0.7,0.5,0.9v0.4c-0.3,0-0.6,0.1-0.9,0.3l-2,1.2c-1.3,0.8-2.5,1.8-3.4,3.1c-1,1.3-1.7,2.9-2,4.7
			c0,0,0,0.1,0,0.1c0,0,0,0,0,0v26.6c0,0.3,0.2,0.5,0.5,0.5s0.5-0.2,0.5-0.5V19l2-0.3l2.8-0.3h4.8c0,0,3.8,0,6.2,1.1v25.7
			c0,0.3,0.2,0.5,0.5,0.5s0.5-0.2,0.5-0.5V28.8h1.9v16.3c0,0.3,0.2,0.5,0.5,0.5c0.3,0,0.5-0.2,0.5-0.5V28.4h14.2v16.8
			c0,0.3,0.2,0.5,0.5,0.5s0.5-0.2,0.5-0.5v-7.4l9.7,1.5c0,0,0,0,0.1,0c0.2,0,0.4-0.2,0.5-0.4C48,38.7,47.9,38.4,47.6,38.4z
			 M33.8,16.8c0.1-0.1,0.5-0.1,0.6-0.1c0.5,0,1.4,0.4,1.9,0.6c0.7,0.3,2.2,1.4,2.8,1.8c0.9,0.7,2.5,2,3.3,2.8
			c0.5,0.6,1.5,1.9,1.9,2.5c0.2,0.3,0.5,0.9,0.6,1.2c0.1,0.2,0.2,0.9,0.3,1.2c0,0,0,0,0,0.1c-0.6-0.3-1.3-0.4-2-0.3
			c-0.8,0-1.6,0.3-2.3,0.7l-0.1,0.1c-0.5,0.3-1,0.8-1.3,1.3l-0.4,0.5l-1.5,0V26c0-1.1-0.2-2.2-0.7-3.1c-0.5-1.1-1.3-2.3-3-3.7
			l-1.7-1.3C32.8,17.5,33.6,16.9,33.8,16.8z M12.6,17.5H7.7l-2.9,0.3L3.1,18c0.3-1.3,0.9-2.6,1.7-3.7c0.9-1.1,2-2.1,3.2-2.8l2-1.2
			c0.1-0.1,0.3-0.1,0.4-0.1h1c0.3,0,0.6,0.1,0.8,0.2l0.6,0.5c1.5,1.1,2.9,2.4,4,3.9c0.8,1.1,1.4,2.3,1.8,3.6
			C16.1,17.5,12.8,17.5,12.6,17.5z M19.7,18.7c-0.2-0.7-0.4-1.3-0.7-1.9c0,0,0,0,0.1,0c0.2,0,0.8-0.1,0.8-0.1c0.4,0,0.7,0.1,1.1,0.2
			c0.2,0.1,0.3,0.2,0.5,0.3l0.9,0.6c0.1,0.1,0.3,0.2,0.4,0.3l0.9,0.8c0.1,0.1,0.1,0.1,0.2,0.2l0.6,0.7c-1.1,0.9-1.8,1.7-2.4,2.9
			c0,0,0,0.1,0,0.1l0,0.3c-0.2,0.8-0.3,1.3-0.3,2.1v2.7h-1.9v-9.1C19.7,18.8,19.7,18.8,19.7,18.7z M22.6,27.5v-2.3
			c0-0.7,0.1-1.1,0.3-1.9l0-0.3c0.5-1,1.1-1.8,2.6-2.9l3-2.2c0.6-0.4,1.4-0.5,2,0l2.9,2.2c1.5,1.1,2.2,2.1,2.7,3.3
			c0.4,0.8,0.6,1.7,0.6,2.7v1.5C36.8,27.5,22.6,27.5,22.6,27.5z"/>
	</g>
</g>
</svg>
