<?xml version="1.0" encoding="utf-8"?>
<!-- Generator: Adobe Illustrator 23.1.0, SVG Export Plug-In . SVG Version: 6.00 Build 0)  -->
<svg version="1.1" id="Layer_1" xmlns="http://www.w3.org/2000/svg" xmlns:xlink="http://www.w3.org/1999/xlink" x="0px" y="0px"
	 viewBox="0 0 50 50" style="enable-background:new 0 0 50 50;" xml:space="preserve">
<g>
	<path d="M23.1,23.7h3.9c0.3,0,0.5-0.2,0.5-0.5v-3.9c0-0.3-0.2-0.5-0.5-0.5h-3.9c-0.3,0-0.5,0.2-0.5,0.5v3.9
		C22.6,23.5,22.8,23.7,23.1,23.7z M23.7,19.9h2.7v2.7h-2.7V19.9z M37.4,37.6c0-0.5-0.4-0.8-0.8-0.8h-0.9V16.5c0,0,0-0.1,0-0.1
		c0-0.1,0-0.2-0.1-0.3l-0.1-0.1c0-0.1-0.1-0.1-0.1-0.2L25.8,5.4c-0.4-0.5-1.2-0.5-1.6,0l-9.5,10.4c-0.1,0-0.1,0.1-0.1,0.2L14.4,16
		c-0.1,0.1-0.1,0.2-0.1,0.3c0,0,0,0.1,0,0.1v20.3h-0.9c-0.5,0-0.8,0.4-0.8,0.8v1.6h-2.3c-0.5,0-0.8,0.4-0.8,0.8v1.6h-2
		c-0.5,0-0.8,0.4-0.8,0.8v1.8c0,0.5,0.4,0.8,0.8,0.8h35c0.5,0,0.8-0.4,0.8-0.8v-1.8c0-0.5-0.4-0.8-0.8-0.8h-2V40
		c0-0.5-0.4-0.8-0.8-0.8h-26v-1.3h1.5h19.5h2.6L37.4,37.6z M24.6,6.5c0.2-0.2,0.5-0.2,0.7,0l9.2,10.1v20.1c0,0.1-0.1,0.1-0.1,0.1
		h-3.9v-4.7c0-0.3-0.2-0.5-0.5-0.5H20c-0.3,0-0.5,0.2-0.5,0.5v4.7h-1.9v-7c0-0.1,0.1-0.2,0.2-0.2h5.7c0.3,0,0.6-0.2,0.6-0.6
		c0-0.3-0.2-0.6-0.6-0.6h-6.5c-0.3,0-0.5,0.2-0.5,0.5v7.8h-0.9c-0.1,0-0.1-0.1-0.1-0.1V16.6L24.6,6.5z M20.5,36.2v-3.6h8.9v3.6H20.5
		z M10.6,40.3h2.8h23.1h2.8v1.3H10.6V40.3z M42.2,43.9H7.8v-1.3h2.5h29.4h2.5V43.9z"/>
</g>
</svg>
