<?xml version="1.0" encoding="utf-8"?>
<!-- Generator: Adobe Illustrator 23.1.0, SVG Export Plug-In . SVG Version: 6.00 Build 0)  -->
<svg version="1.1" id="Layer_1" xmlns="http://www.w3.org/2000/svg" xmlns:xlink="http://www.w3.org/1999/xlink" x="0px" y="0px"
	 viewBox="0 0 50 50" style="enable-background:new 0 0 50 50;" xml:space="preserve">
<g>
	<path d="M49.5,25.1h-5.2v-1.9c0-0.3-0.2-0.5-0.5-0.5h-1v-5.3c0-2.7-1.5-5-3.9-6.2l-2.8-1.4c-0.1-0.1-0.3-0.1-0.4,0L33,11.3
		c-2.4,1.2-3.9,3.6-3.9,6.2v3.7H17.7c-0.3,0-0.5,0.2-0.5,0.5v3.4H0.5c-0.3,0-0.5,0.2-0.5,0.5v14c0,0.3,0.2,0.5,0.5,0.5h17.2h2.4h2.7
		h4.3h2.7h2.4h17.2c0.3,0,0.5-0.2,0.5-0.5v-14C50,25.4,49.8,25.1,49.5,25.1z M43.4,25.1H37v-1.4h6.4V25.1z M30.1,17.5
		c0-2.3,1.3-4.3,3.3-5.3l2.6-1.3l2.6,1.3c2,1,3.3,3.1,3.3,5.3v5.3h-5.4c-0.3,0-0.5,0.2-0.5,0.5v1.9h-3.2v-3.4c0-0.3-0.2-0.5-0.5-0.5
		h-2.2V17.5z M38.4,30.6c-0.1-0.1-0.2-0.2-0.3-0.2l-2.2-1.5c-0.2-0.1-0.4-0.1-0.6,0l-2.2,1.5c-0.1,0.1-0.2,0.2-0.3,0.2v-2.3h5.6
		V30.6z M17.2,39.2h-5.6v-6.4c0-0.6,0.3-1.2,0.8-1.6l2-1.3l2,1.3c0.5,0.4,0.8,0.9,0.8,1.6V39.2z M11.6,30.6v-2.3h5.6v2.3
		c-0.1-0.1-0.2-0.2-0.3-0.2l-2.2-1.5c-0.2-0.1-0.4-0.1-0.6,0l-2.2,1.5C11.8,30.4,11.7,30.5,11.6,30.6z M1,26.1h16.2v1.2h-6.1
		c-0.3,0-0.5,0.2-0.5,0.5v11.4H9.6V27.8c0-0.3-0.2-0.5-0.5-0.5H2.4c-0.3,0-0.5,0.2-0.5,0.5v11.4H1V26.1z M8.6,30.6
		c-0.1-0.1-0.2-0.2-0.3-0.3L6,28.8c-0.2-0.1-0.4-0.1-0.6,0l-2.3,1.6c-0.1,0.1-0.2,0.2-0.3,0.3v-2.3h5.7V30.6z M2.9,32.8
		c0-0.6,0.3-1.3,0.9-1.6l2-1.4l2,1.4c0.5,0.4,0.9,1,0.9,1.6v6.4H2.9V32.8z M18.2,25.6v-3.4h13.6v3.4v13.5h-1.4V24
		c0-0.3-0.2-0.5-0.5-0.5h-9.8c-0.3,0-0.5,0.2-0.5,0.5v15.2h-1.4V25.6z M29.4,28.7c-0.2-0.3-0.5-0.5-0.8-0.7l-3.3-2.3
		c-0.2-0.1-0.4-0.1-0.6,0L21.4,28c-0.3,0.2-0.6,0.4-0.8,0.7v-4.2h8.8V28.7z M23.3,39.2v-6.4h3.3v6.4H23.3z M27.6,39.2v-6.9
		c0-0.3-0.2-0.5-0.5-0.5h-4.3c-0.3,0-0.5,0.2-0.5,0.5v6.9h-1.8v-7.8c0-1,0.5-2,1.3-2.6l3.1-2.1l3.1,2.1c0.8,0.6,1.3,1.5,1.3,2.6v7.8
		H27.6z M32.8,32.7c0-0.6,0.3-1.2,0.8-1.6l2-1.3l2,1.3c0.5,0.4,0.8,1,0.8,1.6v6.4h-5.6V32.7z M47.1,30.6c-0.1-0.1-0.2-0.2-0.3-0.3
		l-2.3-1.6c-0.2-0.1-0.4-0.1-0.6,0l-2.3,1.6c-0.1,0.1-0.2,0.2-0.3,0.3v-2.3h5.7V30.6z M41.4,32.8c0-0.6,0.3-1.3,0.9-1.6l2-1.4l2,1.4
		c0.5,0.4,0.9,1,0.9,1.6v6.4h-5.7V32.8z M49,39.2h-0.9V27.8c0-0.3-0.2-0.5-0.5-0.5h-6.7c-0.3,0-0.5,0.2-0.5,0.5v11.4h-1.1V27.8
		c0-0.3-0.2-0.5-0.5-0.5h-6.1v-1.2h3.7h7.4H49V39.2z"/>
	<path d="M33.5,20.2h2c0.3,0,0.5-0.2,0.5-0.5v-1.9c0-0.8-0.7-1.5-1.5-1.5S33,17,33,17.8v1.9C33,20,33.3,20.2,33.5,20.2z M34,17.8
		c0-0.3,0.2-0.5,0.5-0.5c0.3,0,0.5,0.2,0.5,0.5v1.4H34V17.8z"/>
</g>
</svg>
