<?xml version="1.0" encoding="utf-8"?>
<!-- Generator: Adobe Illustrator 23.1.0, SVG Export Plug-In . SVG Version: 6.00 Build 0)  -->
<svg version="1.1" id="Layer_1" xmlns="http://www.w3.org/2000/svg" xmlns:xlink="http://www.w3.org/1999/xlink" x="0px" y="0px"
	 viewBox="0 0 50 50" style="enable-background:new 0 0 50 50;" xml:space="preserve">
<style type="text/css">
	.st0{fill:#010101;}
</style>
<g>
	<path class="st0" d="M21.3,44.7c0,0.3-0.3,0.5-0.5,0.5c-0.3,0-0.5-0.2-0.5-0.5v-8.2c0-0.3-0.2-0.7-0.3-0.8
		c-0.3-0.3-0.5-0.3-0.8-0.3c-0.3,0-0.7,0.2-0.8,0.3c-0.3,0.3-0.3,0.5-0.3,0.8v9c0,0.3-0.2,0.5-0.5,0.5c-0.3,0-0.5-0.3-0.5-0.5v-9
		c0-0.6,0.3-1.2,0.7-1.5c0.4-0.4,0.9-0.7,1.5-0.7s1.1,0.3,1.5,0.7c0.4,0.4,0.7,0.9,0.7,1.5C21.3,36.4,21.3,44.7,21.3,44.7z
		 M35.8,45.4c0,0.3-0.3,0.5-0.5,0.5s-0.5-0.3-0.5-0.5v-0.8c0-0.3,0.3-0.5,0.5-0.5s0.5,0.3,0.5,0.5V45.4z M14.1,9.4l1.1-1.2
		c0.2-0.2,0.5-0.2,0.7,0l1.1,1.1V7h-2.9V9.4z M17,10.1l-1.2,1.1c-0.2,0.2-0.5,0.2-0.7,0l-1.1-1.1v3.2c0.1-0.1,0.2-0.1,0.3-0.2
		l0.9-0.5c0.2-0.1,0.3-0.1,0.4,0l0.9,0.5c0.1,0.1,0.2,0.1,0.3,0.2V10.1z M15.5,9.2L15,9.7l0.5,0.5L16,9.7L15.5,9.2z M17.9,9.4
		L19,8.2c0.2-0.2,0.5-0.2,0.7,0l1.1,1.1V7h-2.9V9.4z M20.8,10.1l-1.1,1.1c-0.2,0.2-0.5,0.2-0.7,0l-1.1-1.1v3.2
		c0.1-0.1,0.2-0.2,0.3-0.2l0.9-0.5c0.2-0.1,0.3-0.1,0.4,0l0.9,0.5c0.1,0.1,0.2,0.1,0.3,0.2C20.8,13.3,20.8,10.1,20.8,10.1z
		 M19.4,9.2l-0.5,0.5l0.5,0.5l0.5-0.5L19.4,9.2z M21.7,9.4l1.1-1.2C23,8,23.3,8,23.5,8.2l1.1,1.1V7h-2.9C21.7,7,21.7,9.4,21.7,9.4z
		 M24.6,10.1l-1.1,1.1c-0.2,0.2-0.5,0.2-0.7,0l-1.1-1.1v3.2c0.1-0.1,0.2-0.1,0.3-0.2l0.9-0.5c0.2-0.1,0.3-0.1,0.4,0l0.9,0.5
		c0.1,0.1,0.3,0.1,0.3,0.2C24.6,13.3,24.6,10.1,24.6,10.1z M23.2,9.2l-0.5,0.5l0.5,0.5l0.5-0.5L23.2,9.2z M25.5,9.4l1.1-1.2
		c0.2-0.2,0.5-0.2,0.7,0l1.1,1.2V7h-2.9V9.4z M28.4,10.1l-1.1,1.1c-0.2,0.2-0.5,0.2-0.7,0l-1.1-1.1v3.2c0.1-0.1,0.2-0.2,0.3-0.2
		l0.9-0.5c0.2-0.1,0.3-0.1,0.4,0l0.9,0.5c0.1,0.1,0.2,0.1,0.3,0.2C28.4,13.3,28.4,10.1,28.4,10.1z M26.9,9.2l-0.5,0.5l0.5,0.5
		l0.5-0.5L26.9,9.2z M29.3,9.4l1.1-1.2C30.5,8,30.9,8,31,8.2l1.1,1.1V7h-2.9V9.4z M32.1,10.1L31,11.2c-0.2,0.2-0.5,0.2-0.7,0
		l-1.1-1.1v3.2c0.1-0.1,0.2-0.1,0.3-0.2l0.9-0.5c0.2-0.1,0.3-0.1,0.4,0l0.9,0.5c0.1,0.1,0.2,0.1,0.3,0.2L32.1,10.1L32.1,10.1z
		 M30.7,9.2l-0.5,0.5l0.5,0.5l0.5-0.5L30.7,9.2z M33.1,9.4l1.2-1.2c0.2-0.2,0.5-0.2,0.7,0L36,9.3V7h-2.9L33.1,9.4L33.1,9.4z
		 M36,10.1l-1.1,1.1c-0.2,0.2-0.5,0.2-0.7,0l-1.1-1.1v3.2c0.1-0.1,0.2-0.2,0.3-0.2l0.9-0.5c0.2-0.1,0.3-0.1,0.4,0l0.9,0.5
		c0.1,0.1,0.2,0.1,0.3,0.2L36,10.1L36,10.1z M34.6,9.2l-0.5,0.5l0.5,0.5l0.5-0.5L34.6,9.2z M35.8,31.9v11c0,0.3-0.3,0.5-0.5,0.5
		s-0.5-0.3-0.5-0.5V32.3H15.2v13.2c0,0.3-0.3,0.5-0.5,0.5c-0.3,0-0.5-0.3-0.5-0.5V31.9l-0.3-0.7c-0.1-0.3,0-0.5,0.2-0.7
		c0.3-0.1,0.5,0,0.7,0.2l0.3,0.5h20.2l0.6-1.1h-22l0,0l0,0l0,0l0,0l0,0l0,0l0,0l0,0l0,0l0,0l0,0l0,0l0,0l0,0l0,0l0,0l0,0l0,0l0,0
		l0,0l0,0l0,0l0,0l0,0l0,0l0,0l0,0l0,0l0,0l0,0l0,0l0,0l0,0l0,0l0,0l0,0l0,0l0,0l0,0l0,0l0,0l0,0l0,0c-0.2-0.1-0.3-0.3-0.3-0.4v-0.1
		v-1.3H9.7c-0.3,0-0.5-0.3-0.5-0.5c0-0.3,0.3-0.5,0.5-0.5h3.4V26l0,0v-0.1v-8.4H9.7c-0.3,0-0.5-0.3-0.5-0.5s0.3-0.4,0.5-0.4h3.4V6.7
		l-1-1.9c-0.1-0.1-0.1-0.2-0.1-0.3c0-0.3,0.2-0.5,0.5-0.5h2.6l0,0l0,0h2.4l0,0l0,0H20l0,0l0,0h2.5l0,0l0,0h2.5l0,0l0,0h2.4l0,0l0,0
		H30l0,0l0,0h2.4l0,0l0,0h2.4l0,0l0,0h2.6c0.3,0,0.5,0.3,0.5,0.5c0,0.3-0.3,0.5-0.6,0.5h-2.2v0.3c0,0.3-0.2,0.5-0.5,0.5
		c-0.3,0-0.5-0.3-0.5-0.5V4.9h-1.5v0.3c0,0.3-0.3,0.5-0.5,0.5s-0.5-0.3-0.5-0.5V4.9h-1.5v0.3c0,0.3-0.3,0.5-0.5,0.5
		s-0.5-0.3-0.5-0.5V4.9h-1.5v0.3c0,0.3-0.2,0.5-0.5,0.5c-0.3,0-0.5-0.3-0.5-0.5V4.9h-1.5v0.3c0,0.3-0.3,0.5-0.5,0.5
		s-0.4-0.3-0.4-0.5V4.9h-1.5v0.3c0,0.3-0.2,0.5-0.5,0.5c-0.3,0-0.5-0.3-0.5-0.5V4.9h-1.5v0.3c0,0.3-0.3,0.5-0.5,0.5
		c-0.3,0-0.5-0.3-0.5-0.5V4.9h-1.5v0.3c0,0.3-0.3,0.5-0.5,0.5s-0.5-0.3-0.5-0.5V4.9h-1.5v0.3c0,0.3-0.2,0.5-0.5,0.5
		c-0.3,0-0.5-0.3-0.5-0.5V4.9h-0.8l0.6,1.2h3.5l0,0l0,0h3.8l0,0l0,0H25l0,0l0,0h3.8l0,0l0,0h3.8l0,0l0,0h3.5l0.3-0.5
		c0.1-0.3,0.4-0.3,0.7-0.2c0.3,0.1,0.3,0.4,0.2,0.7l-0.3,0.7V17h3.4c0.3,0,0.5,0.2,0.5,0.5c0,0.3-0.3,0.5-0.5,0.5h-3.4v8.4l0,0l0,0
		v1.3h3.4c0.3,0,0.5,0.2,0.5,0.5c0,0.3-0.3,0.5-0.5,0.5h-3.9l0,0c-0.3,0-0.5-0.3-0.5-0.5l0,0v-1.6h-3.4l0,0l0,0h-3.8l0,0l0,0H25l0,0
		l0,0h-3.8l0,0l0,0h-3.8l0,0l0,0h-3.4V28l0,0l0,0v1.2h22.3c0.3,0,0.5,0.2,0.5,0.5c0,0.1,0,0.2-0.1,0.3l0,0L35.8,31.9L35.8,31.9z
		 M14.1,15v0.3v0.1v0.1v1.9l0,0l0,0v8.4h2.9V15.4v-0.1v-0.2l0,0l0,0v-0.1c0-0.3-0.1-0.5-0.2-0.6c-0.1-0.2-0.3-0.3-0.6-0.5l-0.7-0.3
		L14.8,14c-0.3,0.2-0.5,0.3-0.6,0.5C14.2,14.6,14.2,14.8,14.1,15z M24.6,15.4L24.6,15.4v-0.3V15c0-0.3-0.1-0.4-0.2-0.6
		c-0.1-0.2-0.3-0.3-0.6-0.5l-0.7-0.3l-0.7,0.3c-0.3,0.2-0.5,0.3-0.6,0.5c-0.1,0.2-0.2,0.3-0.2,0.6v0.2v0.2v0.1v10.3h2.9
		C24.6,25.7,24.6,15.4,24.6,15.4z M17.9,15.3L17.9,15.3v10.4h2.9V15.4v-0.1v-0.2V15c0-0.3-0.1-0.4-0.2-0.6c-0.1-0.2-0.3-0.3-0.6-0.5
		l-0.7-0.3l-0.7,0.3c-0.3,0.2-0.5,0.3-0.6,0.5l0,0c-0.1,0.2-0.2,0.3-0.2,0.6v0.2C17.9,15.3,17.9,15.3,17.9,15.3z M25.5,15.3
		L25.5,15.3v10.4h2.9V15.4v-0.1v-0.2V15c0-0.3-0.1-0.4-0.2-0.6c-0.1-0.2-0.3-0.3-0.6-0.5l-0.7-0.3l-0.7,0.3
		c-0.3,0.2-0.5,0.3-0.6,0.5l0,0c-0.1,0.2-0.2,0.3-0.2,0.6v0.2C25.5,15.2,25.5,15.3,25.5,15.3z M32.1,15.4L32.1,15.4v-0.3V15
		c0-0.3-0.1-0.4-0.2-0.6c-0.1-0.2-0.3-0.3-0.6-0.5l-0.7-0.3L30,14c-0.3,0.2-0.5,0.3-0.6,0.5c-0.1,0.2-0.2,0.3-0.2,0.6v0.2v0.2v0.1
		v10.3h2.9C32.1,25.7,32.1,15.4,32.1,15.4z M33.1,15.3L33.1,15.3v10.4H36v-8.4l0,0l0,0v-1.9v-0.1v-0.1V15c0-0.3-0.1-0.4-0.2-0.5
		c-0.1-0.2-0.3-0.3-0.6-0.5l-0.7-0.3L33.9,14c-0.3,0.2-0.5,0.3-0.6,0.5c-0.1,0.2-0.2,0.3-0.2,0.6v0.1l0,0l0,0
		C33.1,15.2,33.1,15.3,33.1,15.3z M21.5,27.5c0.3,0,0.5,0.2,0.5,0.5c0,0.3-0.3,0.5-0.5,0.5H21c-0.3,0-0.5-0.3-0.5-0.5
		c0-0.3,0.3-0.5,0.5-0.5H21.5z M29,27.5c0.3,0,0.5,0.2,0.5,0.5c0,0.3-0.3,0.5-0.5,0.5h-0.5c-0.3,0-0.5-0.3-0.5-0.5
		c0-0.3,0.3-0.5,0.5-0.5H29z M33.1,45.4c0,0.3-0.2,0.5-0.5,0.5c-0.3,0-0.5-0.3-0.5-0.5v-9c0-0.3-0.2-0.7-0.3-0.8
		c-0.3-0.3-0.5-0.3-0.8-0.3s-0.7,0.2-0.8,0.3c-0.3,0.3-0.3,0.5-0.3,0.8v6.7c0,0.3-0.3,0.5-0.5,0.5c-0.3,0-0.5-0.3-0.5-0.5v-6.7
		c0-0.6,0.3-1.2,0.7-1.5c0.4-0.4,0.9-0.7,1.5-0.7c0.6,0,1.2,0.3,1.5,0.7c0.4,0.4,0.7,0.9,0.7,1.5V45.4z M27.2,44.7
		c0,0.3-0.3,0.5-0.5,0.5c-0.3,0-0.5-0.2-0.5-0.5v-8.2c0-0.3-0.2-0.7-0.3-0.8c-0.3-0.3-0.5-0.3-0.8-0.3s-0.7,0.2-0.8,0.3
		c-0.3,0.3-0.3,0.5-0.3,0.8v9c0,0.3-0.3,0.5-0.5,0.5c-0.3,0-0.5-0.3-0.5-0.5v-9c0-0.6,0.3-1.2,0.7-1.5c0.4-0.4,0.9-0.7,1.5-0.7
		c0.6,0,1.2,0.3,1.5,0.7c0.4,0.4,0.7,0.9,0.7,1.5C27.2,36.4,27.2,44.7,27.2,44.7z"/>
</g>
</svg>
