<?xml version="1.0" encoding="utf-8"?>
<!-- Generator: Adobe Illustrator 23.1.0, SVG Export Plug-In . SVG Version: 6.00 Build 0)  -->
<svg version="1.1" id="Layer_1" xmlns="http://www.w3.org/2000/svg" xmlns:xlink="http://www.w3.org/1999/xlink" x="0px" y="0px"
	 viewBox="0 0 50 50" style="enable-background:new 0 0 50 50;" xml:space="preserve">
<g>
	<path d="M31.5,47.4h0.3c0.2,0,0.4-0.2,0.4-0.4c0-0.2-0.2-0.4-0.4-0.4h-0.3c-0.2,0-0.4,0.2-0.4,0.4C31,47.2,31.2,47.4,31.5,47.4z"/>
	<path d="M14.8,49.1h-1c-0.2,0-0.4,0.2-0.4,0.4c0,0.2,0.2,0.4,0.4,0.4h1c0.2,0,0.4-0.2,0.4-0.4C15.2,49.3,15,49.1,14.8,49.1z"/>
	<path d="M32.6,48.6h0.3c0.2,0,0.4-0.2,0.4-0.4c0-0.2-0.2-0.4-0.4-0.4h-0.3c-0.2,0-0.4,0.2-0.4,0.4C32.2,48.4,32.3,48.6,32.6,48.6z"
		/>
	<path d="M20.7,13.2h-0.4c-0.2,0-0.4,0.2-0.4,0.4c0,0.2,0.2,0.4,0.4,0.4h0.4c0.2,0,0.4-0.2,0.4-0.4C21.2,13.4,21,13.2,20.7,13.2z"/>
	<path d="M20.6,46.6h-0.3c-0.2,0-0.4,0.2-0.4,0.4c0,0.2,0.2,0.4,0.4,0.4h0.3c0.2,0,0.4-0.2,0.4-0.4C21.1,46.8,20.9,46.6,20.6,46.6z"
		/>
	<path d="M26.6,6.9H27c0.2,0,0.4-0.2,0.4-0.4C27.4,6.2,27.2,6,27,6h-0.4c-0.2,0-0.4,0.2-0.4,0.4C26.2,6.7,26.4,6.9,26.6,6.9z"/>
	<path d="M36.2,49.1h-1.3V16.3h0.6c0.1,0,0.1,0,0.2-0.1c0.1-0.1,0.2-0.2,0.2-0.3c0-0.1,0-0.2-0.1-0.3L26.5,0.2l0-0.1h0l0,0h-0.1
		l0-0.1h-0.1l0,0h0l0,0l-0.3,0v0l-0.1,0v0l0,0l0,0l0,0v0.1l-9.4,15.5c-0.1,0.1-0.1,0.2-0.1,0.3c0,0.1,0.1,0.2,0.2,0.3
		c0.1,0,0.2,0.1,0.2,0.1h0.6v32.8h-1.1c-0.2,0-0.4,0.2-0.4,0.4c0,0.2,0.2,0.4,0.4,0.4h20c0.2,0,0.4-0.2,0.4-0.4
		C36.6,49.3,36.4,49.1,36.2,49.1z M26.2,47.7c0,0.5,0,0.9,0,1.4h-0.3c0-0.4,0-0.8,0-1.1c0-1.3,0-2.6,0-3.8c0,0,0-0.1,0-0.1l0,0
		c0,0,0,0,0.1-0.1l0.1,0l0.1,0c0.1,0,0.1,0.1,0.1,0.1c0,0,0,0,0,0.1C26.2,45.3,26.2,46.5,26.2,47.7z M18.1,46.2V17.3l0.8,0.8v27.3
		L18.1,46.2z M30.4,17.6l-0.8-1.2h4.2l-1.2,1.2H30.4z M27,43.6c-0.1-0.1-0.2-0.2-0.4-0.3l-0.3-0.2c-0.1-0.1-0.3-0.1-0.4,0l-0.3,0.2
		c-0.1,0.1-0.3,0.2-0.4,0.3l0,0c-0.1,0.2-0.2,0.4-0.2,0.6c0,1.1,0,2.3,0,3.4c0,0.5,0,1,0,1.5h-6.9v-1.7l1.4-1.4h2.2l0.9,1.4l0,0
		c0.1,0.1,0.2,0.2,0.4,0.2h1.1c0.2,0,0.4-0.2,0.4-0.4v-5.8h2c0.2,0,0.4-0.2,0.4-0.4c0-0.2-0.2-0.4-0.4-0.4h-2V18.4h2.9v28.8
		c0,0.2,0.2,0.4,0.4,0.4h1.1c0.2,0,0.3-0.1,0.4-0.2l0.9-1.4h2.2l1.4,1.4v1.7h-6.9v-4.9C27.1,43.9,27.1,43.7,27,43.6z M27.8,17.6
		h-3.3l-0.8-1.2h5L27.8,17.6z M28.4,46.8V18.1l0.6-1l0.6,1v27.4l-0.9,1.3H28.4z M23.7,46.8h-0.4l-0.9-1.3V18.1l0.6-1l0.6,1V46.8z
		 M19.6,17.6l-1.2-1.2h4.2l-0.8,1.2H19.6z M20.1,41c0,0.2,0.2,0.4,0.4,0.4h1.1v3.8h-1.7l0-26.8h1.7v22.1h-1.1
		C20.3,40.5,20.1,40.7,20.1,41z M32.1,41c0-0.2-0.2-0.4-0.4-0.4h-1.1V18.4h1.7v26.8h-1.7v-3.8h1.1C31.9,41.4,32.1,41.2,32.1,41z
		 M34,17.3v28.9l-0.8-0.8V18.2L34,17.3z M28.9,6c-0.2,0-0.4,0.2-0.4,0.4c0,0.2,0.2,0.4,0.4,0.4h0.4c0.1,0,0.1,0,0.2,0l5.2,8.6H17.5
		l8.6-14.1L28.9,6L28.9,6z"/>
	<path d="M28,8.8h0.4c0.2,0,0.4-0.2,0.4-0.4c0-0.2-0.2-0.4-0.4-0.4H28c-0.2,0-0.4,0.2-0.4,0.4C27.6,8.6,27.8,8.8,28,8.8z"/>
	<path d="M21.8,11.2h-0.4c-0.3,0-0.4,0.2-0.4,0.4c0,0.2,0.2,0.4,0.4,0.4h0.4c0.2,0,0.4-0.2,0.4-0.4C22.3,11.4,22.1,11.2,21.8,11.2z"
		/>
	<path d="M23.1,13.2h-0.4c-0.2,0-0.4,0.2-0.4,0.4c0,0.2,0.2,0.4,0.4,0.4h0.4c0.2,0,0.4-0.2,0.4-0.4C23.5,13.4,23.3,13.2,23.1,13.2z"
		/>
</g>
</svg>
