<?xml version="1.0" encoding="utf-8"?>
<!-- Generator: Adobe Illustrator 23.1.0, SVG Export Plug-In . SVG Version: 6.00 Build 0)  -->
<svg version="1.1" id="Layer_1" xmlns="http://www.w3.org/2000/svg" xmlns:xlink="http://www.w3.org/1999/xlink" x="0px" y="0px"
	 viewBox="0 0 50 50" style="enable-background:new 0 0 50 50;" xml:space="preserve">
<g id="zadan">
	<g>
		<path d="M4.5,14.4h7.9c0.3,0,0.5-0.2,0.5-0.5V9.4h5.3c0.3,0,0.5-0.2,0.5-0.5V6.6h14.2v2.4c0,0.3,0.2,0.5,0.5,0.5h5v4.5
			c0,0.3,0.2,0.5,0.5,0.5h7.4c0.3,0,0.5-0.2,0.5-0.5c0-0.3-0.2-0.5-0.5-0.5h-6.9V8.9c0-0.3-0.2-0.5-0.5-0.5h-5V6.1
			c0-0.3-0.2-0.5-0.5-0.5H18.2c-0.3,0-0.5,0.2-0.5,0.5v2.4h-5.3c-0.3,0-0.5,0.2-0.5,0.5v4.5H4.5c-0.3,0-0.5,0.2-0.5,0.5
			S4.2,14.4,4.5,14.4z"/>
		<path d="M39.6,16.6l-9.1-3.7c-0.1,0-0.1,0-0.2,0H18.4c-0.1,0-0.1,0-0.2,0l-7.8,3.7c-0.2,0.1-0.3,0.2-0.3,0.4v2.8
			c0,0.3,0.2,0.5,0.5,0.5s0.5-0.2,0.5-0.5v-2.5l7.4-3.5h11.7l8.7,3.5v2.8c0,0.3,0.2,0.5,0.5,0.5s0.5-0.2,0.5-0.5V17
			C39.9,16.8,39.8,16.7,39.6,16.6z"/>
		<path d="M38.2,20.2c-0.3,0-0.5,0.2-0.5,0.5v2.9h-1.4v-2.1c0-0.4-0.2-0.8-0.6-1.1l-2.3-1.5c-0.4-0.3-1-0.2-1.4,0.1l-0.6,0.5
			c-0.3,0.3-0.5,0.6-0.5,1.1v0.9l-3.1,0v-1.3c0-0.8-0.5-1.6-1.2-2.1c-1.3-0.8-3-0.8-4.4,0.1c-0.8,0.5-1.3,1.4-1.3,2.3v1.2l-2.8,0v-1
			c0-0.5-0.2-0.9-0.6-1.2l-0.4-0.3c-0.5-0.3-1.2-0.3-1.6,0.2l-1,1.1c-0.3,0.4-0.5,0.9-0.5,1.4v1.7h-1.7v-3.4c0-0.3-0.2-0.5-0.5-0.5
			c-0.3,0-0.5,0.2-0.5,0.5V24c0,0.3,0.2,0.5,0.5,0.5h0.2c0,0.1-0.1,0.2-0.1,0.3v18.7c0,0.5,0.4,1,1,1s1-0.4,1-1v-7.7l0.5-1.2
			c0.3-0.7,1-1,1.7-0.8c0.4,0.1,0.7,0.3,0.9,0.7l1.2,2.1v7c0,0.5,0.4,1,1,1c0.5,0,1-0.4,1-1V33.1l1.8-2c1.5-1.3,3.4-1.3,4.7,0l1.8,2
			v10.3c0,0.5,0.4,1,1,1c0.5,0,1-0.4,1-1v-7.1l1.1-1.8c0.3-0.4,0.7-0.7,1.2-0.9c0.9-0.2,1.8,0.2,2.1,1l1.3,2.7v5.4c0,0.5,0.4,1,1,1
			s1-0.4,1-1V24.7c0-0.1,0-0.2-0.1-0.3h0.1c0.3,0,0.5-0.2,0.5-0.5v-3.4C38.6,20.4,38.4,20.2,38.2,20.2z M21.5,22.6
			c0.1,0,0.3,0,0.3-0.1c0.1-0.1,0.1-0.2,0.1-0.3v-1.7c0-0.6,0.3-1.2,0.9-1.6c1-0.6,2.3-0.7,3.3,0c0.4,0.3,0.7,0.8,0.7,1.3v1.8
			c0,0.3,0.2,0.5,0.5,0.5l1.2,0c0,0.1-0.1,0.2-0.1,0.3v4.5h-8.3v-4.5c0,0,0,0,0-0.1L21.5,22.6z M14.6,24.5c0.3,0,0.5-0.2,0.5-0.5
			v-2.2c0-0.3,0.1-0.5,0.3-0.7l1-1.1c0.1-0.1,0.2-0.1,0.3,0l0.4,0.3c0.1,0.1,0.2,0.2,0.2,0.4v1.5c0,0.3,0.2,0.5,0.5,0.5l0.7,0
			c0,0,0,0.1,0,0.1v7L14.1,31v-6.3c0-0.1,0-0.2-0.1-0.3L14.6,24.5L14.6,24.5z M18,33.9c-0.3-0.6-0.8-1-1.5-1.1
			c-0.9-0.3-1.8,0.1-2.4,0.8V32l4.3-1.4v3.8L18,33.9z M27.5,30.4c-1.6-1.7-4.2-1.8-6.1,0l-1.1,1.3v-3.5h8.3v3.5L27.5,30.4z
			 M35.8,34.3c-0.6-1.2-1.9-1.9-3.3-1.5c-0.7,0.2-1.3,0.6-1.7,1.3l-0.3,0.5v-3.8l5.7,1.4v3L35.8,34.3z M36.2,24.7v6.4l-5.7-1.4v-7
			c0-0.1,0-0.2-0.1-0.3l1,0c0.1,0,0.3,0,0.3-0.1c0.1-0.1,0.1-0.2,0.1-0.3v-1.4c0-0.1,0.1-0.2,0.2-0.3l0.6-0.5c0.1-0.1,0.2-0.1,0.3,0
			l2.3,1.5c0.1,0.1,0.1,0.2,0.1,0.3V24c0,0.3,0.2,0.5,0.5,0.5h0.4C36.2,24.6,36.2,24.6,36.2,24.7z"/>
		<path d="M20.2,7.7c-0.3,0-0.5,0.2-0.5,0.5s0.2,0.5,0.5,0.5h10.7c0.3,0,0.5-0.2,0.5-0.5s-0.2-0.5-0.5-0.5H20.2z"/>
		<path d="M47.7,19.7l-0.1,0c-1.3-0.5-2.7-0.7-4-0.4l-2.2,0.4c-0.3,0-0.4,0.3-0.4,0.6c0,0.3,0.3,0.4,0.6,0.4l2.2-0.4
			c1.2-0.2,2.4-0.1,3.5,0.3l0.1,0c0.1,0,0.1,0,0.2,0c0.2,0,0.4-0.1,0.4-0.3C48.1,20.1,47.9,19.8,47.7,19.7z"/>
		<path d="M9.5,19.8L7,19.1c-1.6-0.4-3.2-0.2-4.6,0.6l-0.1,0.1C2,20,1.9,20.3,2.1,20.5s0.4,0.3,0.7,0.2l0.1-0.1
			c1.2-0.7,2.6-0.9,3.9-0.6l2.5,0.7c0,0,0.1,0,0.1,0c0.2,0,0.4-0.1,0.5-0.4C10,20.1,9.8,19.9,9.5,19.8z"/>
	</g>
</g>
</svg>
