<?xml version="1.0" encoding="utf-8"?>
<!-- Generator: Adobe Illustrator 23.1.0, SVG Export Plug-In . SVG Version: 6.00 Build 0)  -->
<svg version="1.1" id="Layer_1" xmlns="http://www.w3.org/2000/svg" xmlns:xlink="http://www.w3.org/1999/xlink" x="0px" y="0px"
	 viewBox="0 0 50 50" style="enable-background:new 0 0 50 50;" xml:space="preserve">
<g id="zadan">
	<g>
		<path d="M1.2,26.1h6c0.3,0,0.5-0.2,0.5-0.5V9.9h0.4L9.7,13c0.1,0.2,0.3,0.3,0.4,0.3c0.2,0,0.4-0.1,0.5-0.3l1.5-2.6h0.5l1.2,2.8
			c0.1,0.2,0.3,0.3,0.4,0.3c0.2,0,0.4-0.1,0.5-0.3l1.5-2.6h0.4l1.5,2.7c0.1,0.2,0.3,0.3,0.5,0.3c0.2,0,0.4-0.1,0.5-0.3l1.2-2.7h0.2
			l1.4,2.9c0.1,0.2,0.3,0.3,0.5,0.3c0,0,0,0,0,0c0.2,0,0.4-0.1,0.5-0.3l1.1-2.2h0.6l1.5,2.6c0.1,0.2,0.3,0.3,0.5,0.3
			c0.2,0,0.4-0.1,0.4-0.3l1.1-2.5h0.3l1.4,3c0.1,0.2,0.3,0.3,0.5,0.3c0.2,0,0.4-0.2,0.5-0.4l0.8-2.9h0.7v8c0,0.1,0,0.3,0.2,0.4
			l0.2,0.2v1.7c0,0.1,0,0.3,0.2,0.4l0.2,0.2v2.1c0,0.1,0,0.3,0.2,0.4l0.1,0.1V26h-2.7c-0.3,0-0.5,0.2-0.5,0.5s0.2,0.5,0.5,0.5H33
			v1.1c0,0.3,0.2,0.5,0.5,0.5v6.5c0,0.3,0.2,0.5,0.5,0.5s0.5-0.2,0.5-0.5v-7c0-0.3-0.2-0.5-0.5-0.5v-3.1c0-0.1,0-0.3-0.2-0.4
			L33.8,24V22c0-0.1,0-0.3-0.2-0.4l-0.2-0.2v-1.7c0-0.1,0-0.3-0.2-0.4l-0.2-0.2v-8.3c0-0.3-0.2-0.5-0.5-0.5h-1.6
			c-0.2,0-0.4,0.1-0.5,0.4L30,12.6l-0.9-2c-0.1-0.2-0.3-0.3-0.5-0.3h-1c-0.2,0-0.4,0.1-0.5,0.3l-0.9,1.9l-1.1-2
			c-0.1-0.2-0.3-0.3-0.4-0.3h-1.2c-0.2,0-0.4,0.1-0.5,0.3l-0.8,1.6l-1.1-2.3c-0.1-0.2-0.3-0.3-0.5-0.3h-0.9c-0.2,0-0.4,0.1-0.5,0.3
			l-0.9,2l-1.1-2.1c-0.1-0.1-0.3-0.2-0.5-0.2h-1c-0.2,0-0.4,0.1-0.4,0.3l-1.1,2l-1-2.2c-0.1-0.2-0.3-0.3-0.5-0.3h-1.1
			c-0.2,0-0.4,0.1-0.4,0.3l-1.2,2.1L8.9,9.2C8.8,9,8.6,8.9,8.4,8.9H7.2c-0.3,0-0.5,0.2-0.5,0.5V20l-1.8,1l-0.2,0.2
			c-0.3,0.3-0.8,0.6-1,0.9l-2.8,3.1c-0.1,0.1-0.2,0.4-0.1,0.5S1,26.1,1.2,26.1z M4.4,22.9c0.2-0.2,0.6-0.5,0.9-0.8l1.4-0.8v3.9H2.4
			L4.4,22.9z"/>
		<path d="M33.8,13.7h0.4l0.1,1.8v4.1c0,0.2,0.1,0.3,0.2,0.4l0.1,0.1v1.5c0,0.2,0.1,0.3,0.2,0.4l0.1,0v1.4c0,0.2,0.1,0.4,0.3,0.5
			l0,3.4c0,0.2,0.1,0.4,0.3,0.5v1.4c0,0.2,0.1,0.3,0.2,0.4c0,0,0,0,0,0.1l-0.2,1.6v6.1h13.4v-5.8l-0.4-1.7c-0.2-0.9-0.6-1.8-1.2-2.5
			l-0.4-0.5c-0.5-0.6-1.2-1.1-1.9-1.5L44.4,25c-0.8-0.4-1.7-0.6-2.6-0.6h-0.1c-1.2,0-2.4,0.4-3.4,1c-0.7,0.5-1.3,1.1-1.8,1.9v-0.1
			c0-0.2-0.1-0.4-0.3-0.5v-3.2c0-0.2-0.1-0.4-0.3-0.5l0-1.4c0-0.2-0.1-0.3-0.2-0.4l-0.1,0v-1.5c0-0.2-0.1-0.3-0.2-0.4l-0.1-0.1v-3.9
			l-0.2-2.3c0-0.3-0.2-0.5-0.5-0.5h-0.9c-0.3,0-0.5,0.2-0.5,0.5S33.5,13.7,33.8,13.7z M37.4,28l0.1-0.1c0.4-0.6,0.9-1.2,1.5-1.6
			c0.8-0.6,1.8-0.9,2.8-0.9h0.1c0.8,0,1.5,0.2,2.2,0.5l0.5,0.3c0.6,0.3,1.2,0.7,1.6,1.3l0.4,0.5c0.5,0.6,0.9,1.3,1,2.1l0.3,1.5v4.7
			H36.6l0-5l0.2-1.5C36.9,29.2,37.1,28.6,37.4,28z"/>
		<path d="M15.4,35.7h13.6c0.3,0,0.5-0.2,0.5-0.5v-8.8c0-0.2,0-0.4,0-0.6l-0.4-2.1c-0.1-0.5-0.2-0.9-0.4-1.4l-0.3-0.8
			c-0.2-0.5-0.5-1.1-0.8-1.6l-0.2-0.3c-0.5-0.8-1.2-1.5-2.1-2.1c-0.7-0.5-1.6-0.9-2.4-1.1l-0.4-0.1c-1.5-0.4-3.2-0.3-4.7,0.2
			l-0.4,0.1c-1.2,0.5-2.3,1.2-3.2,2.3l-0.2,0.2c-0.4,0.5-0.8,1.1-1.1,1.6l-0.3,0.6c-0.3,0.7-0.5,1.4-0.6,2.1l-0.1,0.5
			c-0.1,0.6-0.1,1.1-0.2,1.7h-3c-0.3,0-0.5,0.2-0.5,0.5s0.2,0.5,0.5,0.5h3c0,0.6-0.1,1.3-0.1,1.9v7.1c0,0.3,0.2,0.5,0.5,0.5
			s0.5-0.2,0.5-0.5v-7.1c0-1.5,0.1-3,0.3-4.5l0.1-0.5c0.1-0.6,0.3-1.2,0.6-1.8L14,21c0.2-0.5,0.6-1,0.9-1.4l0.2-0.2
			c0.7-0.9,1.7-1.5,2.7-2l0.4-0.1c1.3-0.5,2.7-0.6,4.1-0.2l0.4,0.1c0.8,0.2,1.5,0.5,2.2,1s1.3,1.1,1.7,1.8l0.2,0.3
			c0.3,0.4,0.5,0.9,0.7,1.4l0.3,0.8c0.1,0.4,0.2,0.8,0.3,1.2l0.4,2.1c0,0.1,0,0.3,0,0.4v8.3H15.4c-0.3,0-0.5,0.2-0.5,0.5
			C14.9,35.4,15.1,35.7,15.4,35.7z"/>
		<path d="M26.3,27.9l1.7-1c0.3-0.1,0.3-0.5,0.2-0.7s-0.5-0.3-0.7-0.2l-1.6,0.9H13.8c-0.3,0-0.5,0.2-0.5,0.5s0.2,0.5,0.5,0.5H26
			C26.1,28,26.2,28,26.3,27.9z"/>
		<path d="M1.5,35v-8c0-0.3-0.2-0.5-0.5-0.5S0.5,26.7,0.5,27v8c0,0.3,0.2,0.5,0.5,0.5S1.5,35.3,1.5,35z"/>
		<path d="M8.4,27c-0.3,0-0.5,0.2-0.5,0.5v7.7c0,0.3,0.2,0.5,0.5,0.5s0.5-0.2,0.5-0.5v-7.7C8.9,27.2,8.6,27,8.4,27z"/>
		<path d="M49,40.1H38.1c-0.6,0-1.2,0-1.8-0.1l-12-0.8l-8.7-0.4H1.7c-0.3,0-0.5,0.2-0.5,0.5s0.2,0.5,0.5,0.5h13.8l8.7,0.4l12,0.8
			c0.6,0,1.3,0.1,1.9,0.1H49c0.3,0,0.5-0.2,0.5-0.5C49.5,40.3,49.3,40.1,49,40.1z"/>
	</g>
</g>
</svg>
