<?xml version="1.0" encoding="utf-8"?>
<!-- Generator: Adobe Illustrator 23.1.0, SVG Export Plug-In . SVG Version: 6.00 Build 0)  -->
<svg version="1.1" id="Layer_1" xmlns="http://www.w3.org/2000/svg" xmlns:xlink="http://www.w3.org/1999/xlink" x="0px" y="0px"
	 viewBox="0 0 50 50" style="enable-background:new 0 0 50 50;" xml:space="preserve">
<g id="zadan_1_">
	<path d="M46.3,46.9H42V21.2c0-0.3-0.2-0.5-0.4-0.5l-2.2-0.4c0,0,0,0,0,0l-4.4-0.7c0.3-1.2,0.6-3.9-0.9-6.9
		c-1.6-3.2-4.7-5.6-9.4-7.2v-3c0-0.3-0.2-0.5-0.5-0.5s-0.5,0.2-0.5,0.5v3c-4.8,1.6-8,4-9.7,7.3c-2,3.9-1,7.6-0.8,8.2v3.3l-5,0l0,0
		c-0.1,0-0.3,0.1-0.4,0.2c-0.1,0.1-0.2,0.2-0.2,0.4l0,17.1H6.9c-0.3,0-0.5,0.2-0.5,0.5v4.5H3.7c-0.3,0-0.5,0.2-0.5,0.5
		c0,0.3,0.2,0.5,0.5,0.5h3.2h17.6h3c0.3,0,0.5-0.2,0.5-0.5V31.1c0.3-2.6,3.9-4.2,5.3-4.7c3.3,1.3,5.3,3,5.4,4.7c0,0.1,0,0.2,0,0.2
		c0,0.1,0,0.3,0,0.4v15.8c0,0.3,0.2,0.5,0.5,0.5h2.2h4.9c0.3,0,0.5-0.2,0.5-0.5C46.9,47.2,46.6,46.9,46.3,46.9z M14.8,13.3
		c1.6-3.1,4.7-5.4,9.3-6.8c11.1,3.8,10.2,11.1,9.8,13l-9.3-1.6c-0.1,0-0.1,0-0.2,0c0,0,0,0,0,0c-0.1,0-0.2,0.1-0.2,0.1c0,0,0,0,0,0
		L23,19.1c-3.6-0.2-6.9,0.4-9,1.1C13.7,19.1,13.3,16.2,14.8,13.3z M8.1,43L8.1,43h13h2.8v4H7.4v-4H8.1z M10.2,30.8
		C10.2,30.8,10.2,30.8,10.2,30.8c0-0.1,0-0.1,0-0.2c0-0.1,0-0.1,0-0.2c0-1.4,2.8-2.4,4-2.8l0.1,0l0.1,0c3.4,1.3,4,2.2,4,2.7
		c0,0.1,0,0.2,0,0.2c0,0.1,0,0.1,0,0.2c0,0,0,0,0,0c0,0,0,0,0,0v11.1h-8.2L10.2,30.8C10.2,30.8,10.2,30.8,10.2,30.8z M23.6,20.1
		L23.6,20.1l0.4-0.4v22.2h-2.3V22.1L23.6,20.1z M14.1,21.4c1.8-0.6,4.7-1.2,7.9-1.2l-1.3,1.3c-0.1,0.1-0.1,0.2-0.1,0.4v2.5l-6.5,0
		C14.1,24.3,14.1,21.4,14.1,21.4z M8.6,25.4l5,0l0,0l0,0l7,0v16.5h-1.1V30.8c0,0,0,0,0,0c0-0.1,0-0.2,0-0.3c0,0,0-0.1,0-0.1
		c0-1.7-2.5-2.9-4.7-3.8l-0.3-0.1c0,0,0,0-0.1,0c0,0-0.1,0-0.1,0c0,0-0.1,0-0.1,0c0,0-0.1,0-0.1,0l-0.2,0.1
		c-1.5,0.5-4.7,1.6-4.8,3.8l0,0.1c0,0.1,0,0.2,0,0.3c0,0,0,0,0,0v11.1H8.6L8.6,25.4z M25,46.9v-4.5V19l1.9,0.3v11.7c0,0.2,0,0.7,0,1
		V47L25,46.9L25,46.9z M33.5,25.3L33.5,25.3c-0.1-0.1-0.3-0.1-0.4,0c-1.3,0.5-3.7,1.5-5.1,3.3v-9.1l10.8,1.8v7.4
		C37.7,27.4,36,26.2,33.5,25.3z M39.8,21.5l1.1,0.2V47h-1.1V21.5z"/>
</g>
</svg>
