<?xml version="1.0" encoding="utf-8"?>
<!-- Generator: Adobe Illustrator 23.1.0, SVG Export Plug-In . SVG Version: 6.00 Build 0)  -->
<svg version="1.1" id="Layer_1" xmlns="http://www.w3.org/2000/svg" xmlns:xlink="http://www.w3.org/1999/xlink" x="0px" y="0px"
	 viewBox="0 0 50 50" style="enable-background:new 0 0 50 50;" xml:space="preserve">
<g>
	<path d="M45.6,43.5h-1.1V39l0.4-0.7c0,0,0,0,0,0c0,0,0,0,0-0.1c0,0,0-0.1,0-0.1c0,0,0,0,0,0v-13c0-0.2-0.2-0.4-0.4-0.4H42v-7
		l1.2-0.9c0.1-0.1,0.2-0.3,0.1-0.5c-0.1-0.2-0.2-0.3-0.4-0.3H42v-5.8c0-0.2-0.2-0.4-0.4-0.4h-0.6V8.9c0-1.7-1.3-3.1-2.9-3.3V4.4
		C38.1,4.2,38,4,37.7,4c-0.2,0-0.4,0.2-0.4,0.4v1.2c-1.6,0.2-2.9,1.6-2.9,3.3v0.9h-0.5c-0.2,0-0.4,0.2-0.4,0.4V16h-0.9
		c-0.2,0-0.3,0.1-0.4,0.3c-0.1,0.2,0,0.3,0.1,0.5l1.2,0.9v7h-28c-0.2,0-0.4,0.2-0.4,0.4v13c0,0,0,0,0,0c0,0,0,0.1,0,0.1
		c0,0,0,0.1,0,0.1c0,0,0,0,0,0L5.5,39v4.5H4.4c-0.2,0-0.4,0.2-0.4,0.4v1.7C4,45.8,4.2,46,4.4,46h5.2c0.2,0,0.4-0.2,0.4-0.4v-1.7
		c0-0.2-0.2-0.4-0.4-0.4H8.5V39l0.4-0.7c0,0,0,0,0,0c0,0,0-0.1,0-0.1c0,0,0-0.1,0-0.1c0,0,0,0,0,0v-2.2c0-1.5,0.7-2.8,1.8-3.8
		l2.3-1.8l2.3,1.8c1.2,0.9,1.8,2.3,1.8,3.8v2.2c0,0,0,0,0,0c0,0,0,0.1,0,0.1c0,0,0,0.1,0,0.1c0,0,0,0,0,0l0.4,0.7v4.5h-1.1
		c-0.2,0-0.4,0.2-0.4,0.4v1.7c0,0.2,0.2,0.4,0.4,0.4h5.2c0.2,0,0.4-0.2,0.4-0.4v-1.7c0-0.2-0.2-0.4-0.4-0.4h-1.1V39l0.4-0.7
		c0,0,0,0,0,0c0,0,0-0.1,0-0.1c0,0,0-0.1,0-0.1c0,0,0,0,0,0V36c0,0,0,0,0,0c0-1.5,0.7-2.8,1.8-3.8l2.3-1.8l2.3,1.8
		c1.2,0.9,1.8,2.3,1.8,3.8c0,0,0,0,0,0v2.1c0,0,0,0,0,0c0,0,0,0.1,0,0.1c0,0,0,0.1,0,0.1c0,0,0,0,0,0l0.4,0.7v4.5h-1.1
		c-0.2,0-0.4,0.2-0.4,0.4v1.7c0,0.2,0.2,0.4,0.4,0.4h5.2c0.2,0,0.4-0.2,0.4-0.4v-1.7c0-0.2-0.2-0.4-0.4-0.4h-1.1V39l0.4-0.7
		c0,0,0,0,0,0c0,0,0-0.1,0-0.1c0,0,0-0.1,0-0.1c0,0,0,0,0,0v-2.2c0-1.5,0.7-2.8,1.8-3.8l2.3-1.8l2.3,1.8c1.1,0.9,1.8,2.2,1.8,3.6
		v2.3c0,0,0,0,0,0c0,0,0,0.1,0,0.1c0,0,0,0.1,0,0.1c0,0,0,0,0,0l0.4,0.7v4.5h-1.1c-0.2,0-0.4,0.2-0.4,0.4v1.7c0,0.2,0.2,0.4,0.4,0.4
		h5.2c0.2,0,0.4-0.2,0.4-0.4v-1.7C46,43.6,45.8,43.5,45.6,43.5z M35.2,8.9c0-1.4,1.1-2.5,2.5-2.5s2.5,1.1,2.5,2.5v0.9h-5V8.9z
		 M34.3,10.6h0.5h5.8h0.6V16h-6.9V10.6z M34.3,16.8h6.9v7.9h-2v-3.3c0-0.2-0.2-0.4-0.4-0.4h-2c-0.2,0-0.4,0.2-0.4,0.4v3.3h-2V16.8z
		 M38.3,24.7h-1.2v-2.9h1.2V24.7z M5.9,25.5h28h2.8h2h2.8h2.5v12.2h-2.2V36c0,0,0,0,0,0c0,0,0-0.1,0-0.1v-7.7c0-0.2-0.2-0.4-0.4-0.4
		h-9c-0.2,0-0.4,0.2-0.4,0.4v9.6h-2.2v-9.6c0-0.2-0.2-0.4-0.4-0.4h-9c-0.2,0-0.4,0.2-0.4,0.4v9.6h-2.2v-9.6c0-0.2-0.2-0.4-0.4-0.4
		h-9c-0.2,0-0.4,0.2-0.4,0.4v9.6H5.9V25.5z M9.2,45.2H4.8v-0.9h1.1h2.1h1.1V45.2z M6.3,43.5v-4.2h1.3v4.2H6.3z M15.8,31.5l-2.5-2
		c-0.1-0.1-0.4-0.1-0.5,0l-2.5,2c-0.5,0.4-1,0.9-1.3,1.5v-4.5h8.2V33C16.7,32.5,16.3,32,15.8,31.5z M21.2,45.2h-4.4v-0.9h1.1h2.1
		h1.1V45.2z M18.3,43.5v-4.2h1.3v4.2H18.3z M27.8,31.5l-2.5-2c-0.1-0.1-0.4-0.1-0.5,0l-2.5,2c-0.5,0.4-1,0.9-1.3,1.5v-4.5h8.2V33
		C28.7,32.5,28.3,32,27.8,31.5z M33.2,45.2h-4.4v-0.9h1.1h2.1h1.1V45.2z M30.3,43.5v-4.2h1.3v4.2H30.3z M39.8,31.5l-2.5-2
		c-0.1-0.1-0.4-0.1-0.5,0l-2.5,2c-0.5,0.4-1,0.9-1.3,1.5v-4.5h8.2V33C40.7,32.4,40.3,32,39.8,31.5z M42.3,39.3h1.3v4.2h-1.3V39.3z
		 M45.2,45.2h-4.4v-0.9h1.1h2.1h1.1V45.2z"/>
	<path d="M39.4,11.9c-0.6,0-1.1,0.5-1.1,1.1v2.1c0,0.2,0.2,0.4,0.4,0.4H40c0.2,0,0.4-0.2,0.4-0.4V13C40.5,12.4,40,11.9,39.4,11.9z
		 M39.6,14.7h-0.5V13c0-0.1,0.1-0.3,0.3-0.3s0.3,0.1,0.3,0.3V14.7z"/>
	<path d="M36.1,11.9c-0.6,0-1.1,0.5-1.1,1.1v2.1c0,0.2,0.2,0.4,0.4,0.4h1.3c0.2,0,0.4-0.2,0.4-0.4V13C37.2,12.4,36.7,11.9,36.1,11.9
		z M36.4,14.7h-0.5V13c0-0.1,0.1-0.3,0.3-0.3c0.1,0,0.3,0.1,0.3,0.3V14.7z"/>
	<path d="M13,37.1c-1.5,0-2.7,1.2-2.7,2.7v5.8c0,0.2,0.2,0.4,0.4,0.4h4.5c0.2,0,0.4-0.2,0.4-0.4v-5.8C15.7,38.3,14.5,37.1,13,37.1z
		 M14.8,45.2h-3.7v-5.4c0-1,0.8-1.8,1.8-1.8c1,0,1.8,0.8,1.8,1.8V45.2z"/>
	<path d="M25,37.1c-1.5,0-2.7,1.2-2.7,2.7v5.8c0,0.2,0.2,0.4,0.4,0.4h4.5c0.2,0,0.4-0.2,0.4-0.4v-5.8C27.7,38.3,26.5,37.1,25,37.1z
		 M26.8,45.2h-3.7v-5.4c0-1,0.8-1.8,1.8-1.8c1,0,1.8,0.8,1.8,1.8V45.2z"/>
	<path d="M37,37.1c-1.5,0-2.7,1.2-2.7,2.7v5.8c0,0.2,0.2,0.4,0.4,0.4h4.5c0.2,0,0.4-0.2,0.4-0.4v-5.8C39.7,38.3,38.5,37.1,37,37.1z
		 M38.8,45.2h-3.7v-5.4c0-1,0.8-1.8,1.8-1.8s1.8,0.8,1.8,1.8V45.2z"/>
</g>
</svg>
