<?xml version="1.0" encoding="utf-8"?>
<!-- Generator: Adobe Illustrator 23.1.0, SVG Export Plug-In . SVG Version: 6.00 Build 0)  -->
<svg version="1.1" id="Layer_1" xmlns="http://www.w3.org/2000/svg" xmlns:xlink="http://www.w3.org/1999/xlink" x="0px" y="0px"
	 viewBox="0 0 50 50" style="enable-background:new 0 0 50 50;" xml:space="preserve">
<g id="zadan_1_">
	<g>
		<path d="M0.6,14.3h14.6c0.1,0,0.3-0.1,0.4-0.1l9.5-8.6l9.4,8.6c0.1,0.1,0.2,0.2,0.4,0.2h14.5c0.3,0,0.6-0.2,0.6-0.6
			s-0.2-0.6-0.6-0.6H35.1l-9.6-8.8c0,0-0.1,0-0.1,0c0,0-0.1,0-0.1-0.1c0,0-0.1,0-0.1,0c0,0-0.1,0-0.1,0s-0.1,0-0.1,0
			c0,0-0.1,0-0.1,0c0,0-0.1,0-0.1,0.1c0,0-0.1,0-0.1,0L15,13.1H0.6c-0.3,0-0.6,0.2-0.6,0.6C0,14,0.2,14.3,0.6,14.3z"/>
		<path d="M49.4,19.4c0.3,0,0.6-0.2,0.6-0.6c0-0.3-0.2-0.6-0.6-0.6H37.7c-0.3,0-0.6,0.2-0.6,0.6v3.8h-3.8v-3.8
			c0-0.2-0.1-0.3-0.2-0.4l-7.6-7.2c0,0-0.1,0-0.1-0.1c0,0-0.1,0-0.1-0.1c0,0-0.1,0-0.1,0c0,0-0.1,0-0.1,0c0,0-0.1,0-0.1,0
			c0,0-0.1,0-0.1,0c0,0-0.1,0-0.1,0.1c0,0-0.1,0-0.1,0.1L17,18.4c-0.1,0.1-0.2,0.2-0.2,0.4v3.8H13v-3.8c0-0.3-0.2-0.6-0.6-0.6H0.6
			c-0.3,0-0.6,0.2-0.6,0.6c0,0.3,0.2,0.6,0.6,0.6h11.3v2.4c-1.1-0.9-2.5-1.4-4-1.6c-2.7-0.3-5.5,0.7-7.6,2.7c-0.2,0.2-0.2,0.6,0,0.8
			c0.1,0.1,0.3,0.2,0.4,0.2c0.1,0,0.3-0.1,0.4-0.2c1.8-1.8,4.3-2.6,6.7-2.4c1.8,0.2,3.3,1,4.2,2.1V25c0,0.1,0,0.1,0,0.2l0.4,1.4
			c0.1,0.2,0.3,0.4,0.5,0.4h0.1v11.1c-0.2,0-0.4,0.2-0.4,0.4l-0.6,1.7c0,0,0,0,0,0c0,0.1,0,0.1,0,0.2v0.9H0.6
			c-0.3,0-0.6,0.3-0.6,0.6s0.2,0.6,0.6,0.6h11.3v2.9c0,0.3,0.2,0.6,0.6,0.6h5c0.3,0,0.6-0.2,0.6-0.6v-2.9h3.3v2.9
			c0,0.3,0.2,0.6,0.6,0.6c0.3,0,0.6-0.2,0.6-0.6V34.8h2.7h0.2h3.1v10.5c0,0.3,0.2,0.6,0.6,0.6c0.3,0,0.6-0.2,0.6-0.6v-2.9h2.7v2.9
			c0,0.3,0.2,0.6,0.6,0.6h5c0.3,0,0.6-0.2,0.6-0.6v-2.9h11.1c0.3,0,0.6-0.2,0.6-0.6s-0.2-0.6-0.6-0.6H38.3v-0.9c0-0.1,0-0.1,0-0.1
			c0,0,0,0,0-0.1l-0.6-1.7c-0.1-0.2-0.2-0.3-0.4-0.4V27h0.1c0.2,0,0.5-0.2,0.5-0.4l0.4-1.4c0-0.1,0-0.1,0-0.2v-1.6
			c0.8-1.1,2.4-1.9,4.1-2.1c2.4-0.3,4.8,0.6,6.6,2.4c0.1,0.1,0.2,0.2,0.4,0.2c0.2,0,0.3-0.1,0.4-0.2c0.2-0.2,0.2-0.6,0-0.8
			c-2.1-2-4.8-2.9-7.5-2.7c-1.6,0.2-3,0.7-4,1.6v-2.4H49.4z M36.8,25.9h-0.4l-0.3-1v-1.2h1.1V25L36.8,25.9z M34.3,39.8h-0.8l0.2-0.6
			c0,0,0.1,0,0.1,0h0.2L34.3,39.8z M34.3,23.8V25l-0.3,0.9h-0.4l-0.3-1v-1.2C33.3,23.8,34.3,23.8,34.3,23.8z M25.1,12.3l7,6.7v1.8
			c-1.1-0.7-3.3-1.6-7-1.8c0,0,0,0,0,0s0,0,0,0c-3.8,0.2-6,1.1-7.1,1.8V19L25.1,12.3z M16.7,39.8h-0.8l0.2-0.6h0.3c0,0,0.1,0,0.1,0
			L16.7,39.8z M16.9,23.8v1.2l-0.4,1h-0.4L15.8,25v-1.2C15.8,23.8,16.9,23.8,16.9,23.8z M14,23.8v1.2l-0.4,1h-0.4L13,25v-1.2
			C13,23.8,14,23.8,14,23.8z M14.1,27c0.2,0,0.4-0.1,0.5-0.4l0.3-0.8l0.2,0.7c0.1,0.2,0.3,0.4,0.5,0.4h0.1v11.1h-0.1
			c-0.2,0-0.4,0.1-0.5,0.3l-0.4,0.9l-0.3-0.8c-0.1-0.2-0.2-0.3-0.4-0.3L14.1,27L14.1,27z M13.8,39.8h-0.6l0.2-0.6h0.1c0,0,0,0,0.1,0
			L13.8,39.8z M13,44.7v-3.8h1.4v3.8H13z M16.9,44.7h-1.3v-3.8h1.3C16.9,40.9,16.9,44.7,16.9,44.7z M25.1,33.6h-1.8l1.9-1.8l2.1,1.8
			h-2.1H25.1z M29.5,41.2v-7c0,0,0,0,0,0c0,0,0-0.1,0-0.1c0,0,0-0.1,0-0.1c0,0,0-0.1-0.1-0.1c0,0,0-0.1-0.1-0.1c0,0,0,0,0,0l-3.6-3
			c-0.1-0.1-0.3-0.1-0.5-0.1c-0.2,0-0.3,0-0.5,0.1l-3.3,3c0,0,0,0,0,0c0,0-0.1,0.1-0.1,0.1c0,0,0,0-0.1,0.1c0,0,0,0.1,0,0.1
			c0,0,0,0.1,0,0.1v0v7H18v-0.9c0,0,0-0.1,0-0.1c0,0,0,0,0-0.1l-0.6-1.7c-0.1-0.2-0.3-0.4-0.5-0.4V27h0c0.2,0,0.4-0.1,0.5-0.4
			l0.5-1.4c0-0.1,0-0.1,0-0.2v-1.8c0,0,0,0,0,0v-1c0.5-0.4,2.5-1.9,7.1-2.1c4.6,0.2,6.6,1.7,7,2.1v1c0,0,0,0,0,0V25
			c0,0.1,0,0.1,0,0.2l0.5,1.4c0.1,0.2,0.3,0.4,0.5,0.4h0v11c-0.2,0-0.4,0.2-0.5,0.4l-0.6,1.7c0,0,0,0,0,0.1c0,0,0,0.1,0,0.1v0.9
			L29.5,41.2L29.5,41.2z M34.6,44.7h-1.3v-3.8h1.3V44.7z M37.1,44.7h-1.4v-3.8h1.4V44.7z M36.3,39.8l0.2-0.6c0,0,0,0,0.1,0h0.1
			l0.2,0.6L36.3,39.8L36.3,39.8z M36.1,38.1c-0.2,0-0.3,0.2-0.4,0.4l-0.3,0.8L35,38.4c-0.1-0.2-0.3-0.3-0.5-0.3h-0.1V27h0.1
			c0.2,0,0.5-0.2,0.5-0.4l0.2-0.7l0.3,0.7c0.1,0.2,0.3,0.4,0.5,0.4h0L36.1,38.1L36.1,38.1z"/>
	</g>
</g>
</svg>
