<?xml version="1.0" encoding="utf-8"?>
<!-- Generator: Adobe Illustrator 23.1.0, SVG Export Plug-In . SVG Version: 6.00 Build 0)  -->
<svg version="1.1" id="Layer_1" xmlns="http://www.w3.org/2000/svg" xmlns:xlink="http://www.w3.org/1999/xlink" x="0px" y="0px"
	 viewBox="0 0 50 50" style="enable-background:new 0 0 50 50;" xml:space="preserve">
<g>
	<path d="M20.4,26.4h9.2c0.2,0,0.4-0.2,0.4-0.4v-6.3c0-0.2-0.2-0.4-0.4-0.4h-9.2c-0.2,0-0.4,0.2-0.4,0.4V26
		C20,26.2,20.2,26.4,20.4,26.4z M20.8,22.6H23v3h-2.2V22.6z M26.1,22.6v3h-2.2v-3H26.1z M27,25.5v-3h2.2v3H27z M29.2,21.7h-3.7v-1.6
		h3.7V21.7z M24.6,20.1v1.6h-3.7v-1.6H24.6z"/>
	<path d="M6.9,37.3h7.4c0.2,0,0.4-0.2,0.4-0.4v-4.5c0-2.3-1.8-4.1-4.1-4.1c-2.3,0-4.1,1.8-4.1,4.1v4.5C6.5,37.1,6.7,37.3,6.9,37.3z
		 M7.4,33h1.6v3.4H7.4V33z M11.4,33v3.4H9.8V33H11.4z M12.3,36.4V33h1.6v3.4H12.3z M10.6,29.1c1.7,0,3.1,1.3,3.2,3H7.4
		C7.5,30.4,8.9,29.1,10.6,29.1z"/>
	<path d="M6.5,45.2c0,0.2,0.2,0.4,0.4,0.4h7.4c0.2,0,0.4-0.2,0.4-0.4v-5.3c0-0.2-0.2-0.4-0.4-0.4H6.9c-0.2,0-0.4,0.2-0.4,0.4V45.2z
		 M7.4,43h1.6v1.8H7.4V43z M11.4,43v1.8H9.8V43H11.4z M9.8,42.1v-1.8h1.6v1.8H9.8z M12.2,44.7V43h1.6v1.8H12.2z M13.9,42.1h-1.6
		v-1.8h1.6V42.1z M8.9,40.3v1.8H7.4v-1.8H8.9z"/>
	<path d="M43.5,32.4c0-2.3-1.8-4.1-4.1-4.1c-2.3,0-4.1,1.8-4.1,4.1v4.5c0,0.2,0.2,0.4,0.4,0.4h7.4c0.2,0,0.4-0.2,0.4-0.4V32.4z
		 M39.4,29.1c1.7,0,3.1,1.3,3.2,3h-6.5C36.3,30.4,37.7,29.1,39.4,29.1z M40.2,33v3.4h-1.6V33H40.2z M36.1,33h1.6v3.4h-1.6V33z
		 M41.1,36.4V33h1.6v3.4H41.1z"/>
	<path d="M43.1,39.5h-7.4c-0.2,0-0.4,0.2-0.4,0.4v5.3c0,0.2,0.2,0.4,0.4,0.4h7.4c0.2,0,0.4-0.2,0.4-0.4v-5.3
		C43.5,39.6,43.3,39.5,43.1,39.5z M42.6,42.1H41v-1.8h1.6V42.1z M38.6,42.1v-1.8h1.6v1.8H38.6z M40.2,43v1.8h-1.6V43H40.2z
		 M37.7,40.3v1.8h-1.6v-1.8H37.7z M36.1,43h1.6v1.8h-1.6V43z M41,44.7V43h1.6v1.8H41z"/>
	<path d="M47.2,25.7c0-0.2-0.2-0.4-0.4-0.4H32.5v-6h14.2c0.2,0,0.4-0.2,0.4-0.4s-0.2-0.4-0.4-0.4H32.5v-5.2v-2.8
		c0-0.2-0.2-0.4-0.4-0.4h-4.6V8.6l1-1.3c0.1-0.1,0.1-0.3,0-0.5c-0.1-0.1-0.2-0.2-0.4-0.2H27h-0.6V6.1c0.5-0.6,0.6-1.4,0.2-2
		c0,0,0,0,0,0l-1.2-1.8c-0.2-0.2-0.6-0.2-0.7,0L23.4,4c-0.4,0.7-0.3,1.5,0.2,2v0.5H23h-1.1c-0.2,0-0.3,0.1-0.4,0.2
		c-0.1,0.1-0.1,0.3,0,0.5l1,1.3v1.4h-4.6c-0.2,0-0.4,0.2-0.4,0.4v2.8v5.2H3.3c-0.2,0-0.4,0.2-0.4,0.4s0.2,0.4,0.4,0.4h14.2v6H3.3
		c-0.2,0-0.4,0.2-0.4,0.4s0.2,0.4,0.4,0.4h14.2V35v2.8v9.3H3.3c-0.2,0-0.4,0.2-0.4,0.4S3,48,3.3,48h14.7h4.6h4.8h4.6h14.7
		c0.2,0,0.4-0.2,0.4-0.4s-0.2-0.4-0.4-0.4H32.5v-9.3V35v-8.9h14.2C47,26.1,47.2,25.9,47.2,25.7z M28.5,37.4v-1.9h1.1v1.9H28.5z
		 M26.4,37.4v-0.2h0.9c0.1,0,0.1,0,0.2-0.1v0.3H26.4z M24.4,37.4v-0.2h1.1v0.2H24.4z M22.4,37.4v-0.3c0.1,0,0.1,0.1,0.2,0.1h0.9v0.2
		H22.4z M20.4,37.4v-1.9h1.1v1.9H20.4z M18.4,37.4v-1.9h1.1v1.9H18.4z M20.4,12.7v-1.9h1.1v1.9H20.4z M19.5,12.7h-1.1v-1.9h1.1V12.7
		z M18.4,13.6H23h4h4.6v21h-3.8v-2.1c0-1.6-1.3-2.8-2.8-2.8c-1.6,0-2.8,1.3-2.8,2.8v2.1h-3.8V13.6z M23.4,10.8h0.1v1.9h-0.1V10.8z
		 M25.6,10.8v1.9h-1.1v-1.9H25.6z M26.6,10.8v1.9h-0.1v-1.9H26.6z M28.5,12.7v-1.9h1.1v1.9H28.5z M26.9,34.6h-3.9v-2.1
		c0-1.1,0.9-1.9,1.9-1.9c1.1,0,1.9,0.9,1.9,1.9V34.6z M23.1,35.4h0.5v0.9h-0.5V35.4z M24.4,35.4h1.1v0.9h-1.1V35.4z M26.4,35.4h0.5
		v0.9h-0.5V35.4z M30.5,35.4h1.1v1.9h-1.1V35.4z M31.6,12.7h-1.1v-1.9h1.1V12.7z M27.6,10.8v1.9h-0.1v-1.9H27.6z M24.3,5.6
		c-0.3-0.3-0.4-0.7-0.2-1.1L25,3.2l0.8,1.3c0.2,0.4,0.1,0.9-0.2,1.1c-0.1,0.1-0.1,0.2-0.1,0.3v0.7h-1.1V5.9
		C24.5,5.8,24.4,5.7,24.3,5.6z M25.2,8.5c0,0.2-0.5,0.2-0.5,0c0-0.1,0.1-0.2,0.2-0.2S25.2,8.4,25.2,8.5z M23.4,7.5H24h0.7
		c-0.5,0.1-0.8,0.5-0.8,1c0,0.6,0.5,1.1,1.1,1.1s1.1-0.5,1.1-1.1c0-0.5-0.4-0.9-0.8-1H26h0.6v2.5h-3.1V7.5z M22.6,12.7h-0.1v-1.9
		h0.1V12.7z M23,47.1v-4.5c0-1.1,0.9-2,2-2s2,0.9,2,2v4.5H23z M27.8,47.1v-4.5c0-1.6-1.3-2.8-2.8-2.8s-2.8,1.3-2.8,2.8v4.5h-3.8
		v-8.9h13.2v8.9H27.8z"/>
</g>
</svg>
