<?xml version="1.0" encoding="utf-8"?>
<!-- Generator: Adobe Illustrator 21.0.0, SVG Export Plug-In . SVG Version: 6.00 Build 0)  -->
<svg version="1.1" xmlns="http://www.w3.org/2000/svg" xmlns:xlink="http://www.w3.org/1999/xlink" x="0px" y="0px"
	 viewBox="0 0 114 114" enable-background="new 0 0 114 114" xml:space="preserve">
<g id="Favorite_1_">
	<g id="Favorite_x5F_Filled">
	</g>
	<g id="Favorite_x5F_BoldStroke">
	</g>
	<g id="Favorite">
		<path fill="#424242" d="M41.2,86c-0.6,0-1.3-0.2-1.8-0.6c-1.1-0.7-1.6-2-1.4-3.3L40.6,66c0.1-0.4-0.1-0.9-0.4-1.2L29,53.4
			c-0.9-0.9-1.2-2.2-0.8-3.5c0.4-1.2,1.4-2,2.6-2.2l15.4-2.4c0.4-0.1,0.8-0.3,0.9-0.7L54,29.9c0.5-1.2,1.7-1.9,2.9-1.9c0,0,0,0,0,0
			c1.2,0,2.4,0.7,2.9,1.9l7,14.6c0.2,0.4,0.5,0.7,0.9,0.7l15.5,2.3c1.2,0.2,2.2,1,2.6,2.2c0.4,1.2,0.1,2.6-0.8,3.5L73.9,64.6
			c-0.3,0.3-0.4,0.8-0.4,1.2l2.7,16.1c0.2,1.3-0.3,2.6-1.4,3.3c-1,0.7-2.3,0.8-3.4,0.2l-13.9-7.5c-0.4-0.2-0.8-0.2-1.1,0l-13.8,7.7
			C42.3,85.9,41.8,86,41.2,86z M56.9,30C56.9,30,56.9,30,56.9,30c-0.5,0-0.9,0.3-1.1,0.7L49,45.4c-0.5,1-1.4,1.7-2.4,1.9l-15.4,2.4
			c-0.5,0.1-0.8,0.4-1,0.9c-0.2,0.5,0,1.1,0.3,1.4l11.2,11.3c0.8,0.8,1.1,1.9,0.9,2.9L40,82.4c-0.1,0.6,0.2,1.1,0.6,1.4
			c0.2,0.1,0.7,0.4,1.2,0.1l13.8-7.7c1-0.5,2.1-0.5,3.1,0l13.9,7.5c0.6,0.3,1.1,0.1,1.2-0.1c0.3-0.2,0.7-0.7,0.5-1.4l-2.7-16.1
			c-0.2-1.1,0.2-2.2,0.9-2.9l11.1-11.5c0.4-0.4,0.5-0.9,0.3-1.4c-0.2-0.5-0.5-0.8-1-0.9l-15.5-2.3c-1.1-0.2-2-0.8-2.5-1.8l-7-14.6
			C57.8,30.3,57.4,30,56.9,30z"/>
	</g>
</g>
<g id="Home">
	<g id="Home_x5F_Filled">
	</g>
	<g id="Home_x5F_BoldStroke">
	</g>
	<g id="Home_1_">
	</g>
</g>
<g id="Search">
	<g id="Search_x5F_Filled">
	</g>
	<g id="Search_x5F_BoldStroke">
	</g>
	<g id="Search_1_">
	</g>
</g>
<g id="Settings">
	<g id="Setting_x5F_Filled">
	</g>
	<g id="Setting_x5F_BoldStroke">
	</g>
	<g id="Setting">
	</g>
</g>
<g id="Icons">
	<g id="Layer_6" display="none">
	</g>
</g>
</svg>
