<?xml version="1.0" encoding="utf-8"?>
<!-- Generator: Adobe Illustrator 21.0.0, SVG Export Plug-In . SVG Version: 6.00 Build 0)  -->
<svg version="1.1" xmlns="http://www.w3.org/2000/svg" xmlns:xlink="http://www.w3.org/1999/xlink" x="0px" y="0px"
	 viewBox="0 0 114 114" enable-background="new 0 0 114 114" xml:space="preserve">
<g id="Favorite_1_">
	<g id="Favorite_x5F_Filled">
	</g>
	<g id="Favorite_x5F_BoldStroke">
	</g>
	<g id="Favorite">
	</g>
</g>
<g id="Home">
	<g id="Home_x5F_Filled">
		<path fill="#424242" d="M76.3,82.6V64.5c0-1.4,1.1-2.5,2.4-2.5l3.9,0c2.2,0,3.2-2.7,1.7-4.2L59.2,29.9c-1.2-1.2-3.1-1.2-4.3,0
			L29.7,57.8c-1.5,1.6-0.4,4.2,1.7,4.2l4,0c1.3,0,2.4,1.1,2.4,2.5v18.1c0,1.3,1,2.4,2.3,2.4h9.3c1.3,0,2.3-1.1,2.3-2.4v-8.3
			c0-1.3,1-2.4,2.3-2.4h6.1c1.3,0,2.3,1.1,2.3,2.4v8.3c0,1.3,1,2.4,2.3,2.4H74C75.2,85,76.3,83.9,76.3,82.6z"/>
	</g>
	<g id="Home_x5F_BoldStroke">
	</g>
	<g id="Home_1_">
	</g>
</g>
<g id="Search">
	<g id="Search_x5F_Filled">
	</g>
	<g id="Search_x5F_BoldStroke">
	</g>
	<g id="Search_1_">
	</g>
</g>
<g id="Settings">
	<g id="Setting_x5F_Filled">
	</g>
	<g id="Setting_x5F_BoldStroke">
	</g>
	<g id="Setting">
	</g>
</g>
<g id="Icons">
	<g id="Layer_6" display="none">
	</g>
</g>
</svg>
