<?xml version="1.0" encoding="utf-8"?>
<!-- Generator: Adobe Illustrator 21.0.0, SVG Export Plug-In . SVG Version: 6.00 Build 0)  -->
<svg version="1.1" xmlns="http://www.w3.org/2000/svg" xmlns:xlink="http://www.w3.org/1999/xlink" x="0px" y="0px"
	 viewBox="0 0 114 114" enable-background="new 0 0 114 114" xml:space="preserve">
<g id="Favorite_1_">
	<g id="Favorite_x5F_Filled">
		<path fill="#424242" d="M40.9,64.1L29.7,52.7c-1.3-1.4-0.6-3.7,1.2-4l15.4-2.4c0.7-0.1,1.4-0.6,1.7-1.3l6.8-14.7
			c0.8-1.7,3.2-1.8,4,0l7,14.6c0.3,0.7,1,1.2,1.7,1.3l15.5,2.3c1.8,0.3,2.6,2.6,1.3,4L73.2,63.9c-0.5,0.5-0.8,1.3-0.6,2.1l2.7,16.1
			c0.3,1.9-1.6,3.4-3.2,2.5L58.2,77c-0.7-0.4-1.4-0.4-2.1,0l-13.8,7.7c-1.6,0.9-3.6-0.5-3.3-2.5l2.6-16.1
			C41.7,65.4,41.5,64.6,40.9,64.1z"/>
	</g>
	<g id="Favorite_x5F_BoldStroke">
	</g>
	<g id="Favorite">
	</g>
</g>
<g id="Home">
	<g id="Home_x5F_Filled">
	</g>
	<g id="Home_x5F_BoldStroke">
	</g>
	<g id="Home_1_">
	</g>
</g>
<g id="Search">
	<g id="Search_x5F_Filled">
	</g>
	<g id="Search_x5F_BoldStroke">
	</g>
	<g id="Search_1_">
	</g>
</g>
<g id="Settings">
	<g id="Setting_x5F_Filled">
	</g>
	<g id="Setting_x5F_BoldStroke">
	</g>
	<g id="Setting">
	</g>
</g>
<g id="Icons">
	<g id="Layer_6" display="none">
	</g>
</g>
</svg>
