<?xml version="1.0" encoding="utf-8"?>
<!-- Generator: Adobe Illustrator 21.0.0, SVG Export Plug-In . SVG Version: 6.00 Build 0)  -->
<svg version="1.1" xmlns="http://www.w3.org/2000/svg" xmlns:xlink="http://www.w3.org/1999/xlink" x="0px" y="0px"
	 viewBox="0 0 114 114" enable-background="new 0 0 114 114" xml:space="preserve">
<g id="Favorite_1_">
	<g id="Favorite_x5F_Filled">
	</g>
	<g id="Favorite_x5F_BoldStroke">
	</g>
	<g id="Favorite">
	</g>
</g>
<g id="Home">
	<g id="Home_x5F_Filled">
	</g>
	<g id="Home_x5F_BoldStroke">
	</g>
	<g id="Home_1_">
	</g>
</g>
<g id="Search">
	<g id="Search_x5F_Filled">
		<path fill="#424242" d="M62,29.1c-9.8,1-17.7,8.9-18.7,18.7c-0.4,4.3,0.5,8.4,2.3,11.8c0.6,1.2,0.4,2.6-0.6,3.5L29.9,78.3
			c-1.2,1.2-1.2,3.1,0,4.2l1.5,1.5c1.2,1.2,3.1,1.2,4.2,0l15.2-15.2c0.9-0.9,2.3-1.2,3.5-0.6c3.5,1.8,7.5,2.7,11.8,2.3
			c9.8-1,17.7-8.9,18.7-18.7C86.2,38.8,75.2,27.8,62,29.1z"/>
	</g>
	<g id="Search_x5F_BoldStroke">
	</g>
	<g id="Search_1_">
	</g>
</g>
<g id="Settings">
	<g id="Setting_x5F_Filled">
	</g>
	<g id="Setting_x5F_BoldStroke">
	</g>
	<g id="Setting">
	</g>
</g>
<g id="Icons">
	<g id="Layer_6" display="none">
	</g>
</g>
</svg>
