<?xml version="1.0" encoding="utf-8"?>
<!-- Generator: Adobe Illustrator 21.0.0, SVG Export Plug-In . SVG Version: 6.00 Build 0)  -->
<svg version="1.1" xmlns="http://www.w3.org/2000/svg" xmlns:xlink="http://www.w3.org/1999/xlink" x="0px" y="0px"
	 viewBox="0 0 114 114" enable-background="new 0 0 114 114" xml:space="preserve">
<g id="Favorite_1_">
	<g id="Favorite_x5F_Filled">
	</g>
	<g id="Favorite_x5F_BoldStroke">
	</g>
	<g id="Favorite">
	</g>
</g>
<g id="Home">
	<g id="Home_x5F_Filled">
	</g>
	<g id="Home_x5F_BoldStroke">
	</g>
	<g id="Home_1_">
	</g>
</g>
<g id="Search">
	<g id="Search_x5F_Filled">
	</g>
	<g id="Search_x5F_BoldStroke">
	</g>
	<g id="Search_1_">
	</g>
</g>
<g id="Settings">
	<g id="Setting_x5F_Filled">
		<path fill="#424242" d="M85,54c0-0.9-0.4-1.6-1.2-2c-0.4-0.2-0.8-0.3-1.2-0.3c-1.8,0-3.5,0-5.3,0c-1.9,0-3-1.9-2.6-3.5
			c0.1-0.5,0.5-1,0.8-1.3c1.2-1.2,2.4-2.3,3.5-3.5c0.1-0.1,0.2-0.2,0.3-0.3c0.3-0.4,0.5-0.9,0.5-1.4c0-0.7-0.2-1.2-0.7-1.7
			c-1.6-1.6-3.2-3.2-4.8-4.8c-0.5-0.5-1.2-0.7-2-0.6c-0.5,0.1-1,0.3-1.3,0.7c-1.2,1.2-2.5,2.5-3.7,3.7c-0.7,0.7-1.5,1-2.5,0.7
			c-1.1-0.3-1.8-0.9-2.1-2.1c-0.1-0.3-0.1-0.6-0.1-0.9c0-1.6,0-3.2,0-4.8c0-0.2,0-0.4,0-0.5c-0.1-1.1-1-2-2.2-2.1c-0.5,0-1,0-1.4,0
			c-0.7,0-1.4,0-2.1,0c0,0,0,0,0,0c-1.2,0-2.4,0-3.6,0c-0.4,0-0.8,0.1-1.2,0.4c-0.6,0.5-0.9,1.1-0.9,1.9c0,1.7,0,3.5,0,5.2
			c0,0.2,0,0.3,0,0.5c-0.2,1.7-1.8,2.6-3.2,2.3c-0.6-0.1-1-0.4-1.4-0.8c-1.2-1.2-2.3-2.3-3.5-3.5c-0.1-0.1-0.3-0.3-0.4-0.4
			c-0.8-0.7-2.3-0.7-3.1,0.2c-0.3,0.3-0.6,0.6-0.9,0.9c-1.3,1.3-2.6,2.6-3.9,3.9c-0.4,0.4-0.6,0.9-0.6,1.4c0,0.7,0.2,1.3,0.7,1.7
			c0.4,0.4,0.7,0.7,1.1,1.1c0.9,0.9,1.8,1.8,2.6,2.6c1.1,1.1,1.1,2.9,0,3.9c-0.5,0.5-1.2,0.8-1.9,0.8c-1.7,0-3.4,0-5.1,0
			c-0.2,0-0.4,0-0.6,0c-1,0.1-1.9,1-1.9,2c0,0.4,0,0.8,0,1.3c0,1.9,0,3.9,0,5.8c0,0.2,0,0.3,0,0.5c0.2,1.1,1.1,1.8,2.3,1.8
			c1.6,0,3.2,0,4.8,0c0.3,0,0.7,0,1,0c1.6,0.2,2.5,1.7,2.3,3.2c-0.1,0.6-0.4,1.1-0.8,1.5c-1.1,1.1-2.2,2.2-3.3,3.3
			c-0.2,0.2-0.4,0.3-0.5,0.5c-0.5,0.5-0.7,1.2-0.6,1.9c0.1,0.5,0.3,0.9,0.7,1.3c1.6,1.6,3.1,3.1,4.7,4.7c0.1,0.1,0.1,0.1,0.2,0.2
			c0.6,0.5,1.3,0.7,2,0.5c0.5-0.1,0.9-0.3,1.2-0.7c1.2-1.2,2.4-2.4,3.6-3.6c0.1-0.1,0.2-0.2,0.3-0.3c0.4-0.3,0.8-0.6,1.3-0.6
			c1.5-0.2,3.1,0.8,3.2,2.7c0,1.1,0,2.3,0,3.4c0,0.7,0,1.4,0,2c0,1.1,0.9,2.1,2,2.2c0.3,0,0.5,0,0.8,0c2.1,0,4.2,0,6.4,0
			c1,0,1.8-0.7,2.1-1.6c0.1-0.3,0.1-0.6,0.1-0.9c0-1.7,0-3.4,0-5.1c0-0.1,0-0.3,0-0.4c0.2-1.8,2-2.6,3.4-2.3c0.6,0.1,1,0.5,1.5,0.9
			c1.2,1.2,2.4,2.4,3.6,3.6c0.9,0.9,2.4,0.9,3.3,0c1.4-1.4,2.8-2.8,4.2-4.2c0.2-0.2,0.4-0.4,0.6-0.6c0.5-0.6,0.7-1.2,0.5-2
			c-0.1-0.5-0.3-0.9-0.7-1.2c-1.2-1.2-2.5-2.5-3.7-3.7c-1.3-1.2-1-3.2,0.3-4.1c0.5-0.4,1.1-0.6,1.8-0.6c1.7,0,3.4,0,5.1,0
			c0.2,0,0.3,0,0.5,0c1.1-0.1,2-1.1,2-2.2C85,58.6,85,56.3,85,54z M56.7,66.3c-4.7,0-8.5-3.8-8.5-8.5c0-4.7,3.8-8.5,8.5-8.5
			c4.7,0,8.5,3.8,8.5,8.5C65.2,62.5,61.4,66.3,56.7,66.3z"/>
	</g>
	<g id="Setting_x5F_BoldStroke">
	</g>
	<g id="Setting">
	</g>
</g>
<g id="Icons">
	<g id="Layer_6" display="none">
	</g>
</g>
</svg>
