<?xml version="1.0" encoding="utf-8"?>
<!-- Generator: Adobe Illustrator 23.1.0, SVG Export Plug-In . SVG Version: 6.00 Build 0)  -->
<svg version="1.1" id="Layer_1" xmlns="http://www.w3.org/2000/svg" xmlns:xlink="http://www.w3.org/1999/xlink" x="0px" y="0px"
	 viewBox="0 0 50 50" style="enable-background:new 0 0 50 50;" xml:space="preserve">
<g id="state_esfahan" transform="translate(-44 -131)">
	<g id="chehel_sotoun_esfahan">
		<path id="Path_1851" d="M46,146c-0.2,0-0.3-0.1-0.3-0.3c0-0.2,0.1-0.3,0.3-0.3h44.7c0.2,0,0.3,0.1,0.3,0.3c0,0.2-0.1,0.3-0.3,0.3
			h-0.4l-1.6,1.5v1c0,0.2-0.1,0.3-0.2,0.5l0,0c-0.1,0.1-0.2,0.1-0.4,0.2l-0.2,2.2l0.2,10.3h2.2c0.2,0,0.3,0.1,0.3,0.3
			c0,0.2-0.1,0.3-0.3,0.3h-44c-0.2-0.1-0.3-0.2-0.3-0.4c0-0.1,0.1-0.3,0.2-0.3c0,0,0.1,0,0.1,0h2.3l0.2-10.3l-0.2-2.1l0,0
			c-0.2,0-0.3-0.1-0.5-0.2c-0.2-0.1-0.1-0.3-0.1-0.5v-1l-1.6-1.5H46z M63,170c0,0.2-0.1,0.3-0.3,0.3s-0.3-0.1-0.3-0.3l-0.1-2.4h-2.2
			c-0.2,0-0.3-0.1-0.3-0.3c0-0.2,0.1-0.3,0.3-0.3c0,0,0,0,0,0h2.1v-1.7h-5.7l-0.1,4.8c0,0.2-0.1,0.3-0.3,0.3c-0.2,0-0.3-0.1-0.3-0.3
			l0.1-4.7h-1v1.9h0.2c0.2,0,0.3,0.1,0.3,0.3c0,0.2-0.1,0.3-0.3,0.3c0,0,0,0,0,0H55v1.8c0,0.2-0.1,0.3-0.3,0.3
			c-0.2,0-0.3-0.1-0.3-0.3v-1.8h-1.3c-0.2,0-0.3-0.1-0.3-0.3c0-0.2,0.1-0.3,0.3-0.3c0,0,0,0,0,0h1.3v-1.9h-1l-2.6,1.2l-0.1,2.6h1.2
			c0.2,0,0.3,0.1,0.3,0.3c0,0.2-0.1,0.3-0.3,0.3c0,0,0,0,0,0h-1.3v0.3c0,0.1-0.1,0.3-0.2,0.3c0,0-0.1,0-0.1,0
			c-0.1,0-0.3-0.1-0.3-0.2c0,0,0-0.1,0-0.1v-0.3h-0.3c-0.2,0-0.3-0.1-0.3-0.3c0-0.2,0.1-0.3,0.3-0.3c0,0,0,0,0,0H50l0.1-2.3l-1,0.4
			v1.5c0,0.1-0.1,0.3-0.2,0.3c0,0-0.1,0-0.1,0c-0.1,0-0.3-0.1-0.3-0.2c0,0,0-0.1,0-0.1v-1.3l-4.1,2c-0.2,0.1-0.3,0-0.4-0.1
			c0-0.3,0-0.5,0.2-0.5l4.5-2.2l0,0l4.4-2h31.8l8.9,4.2c0.2,0,0.2,0.2,0.2,0.3c-0.1,0.1-0.2,0.2-0.4,0.1l-4-1.9l-0.1,2.5
			c0,0.2-0.1,0.3-0.3,0.3c-0.2,0-0.3-0.1-0.3-0.3l0.1-2.8l-0.9-0.4v1.4h0.1c0.2,0,0.3,0.1,0.3,0.3c0,0.2-0.1,0.3-0.3,0.3h-0.1v0.6
			c0,0.2-0.1,0.3-0.3,0.3c-0.2,0-0.3-0.1-0.3-0.3v-0.6h-1.4c-0.2,0-0.3-0.1-0.3-0.3s0.1-0.3,0.3-0.3c0,0,0,0,0,0h1.4v-1.7l-2.7-1.3
			h-0.9l-0.1,4.1c0,0.2-0.1,0.3-0.3,0.3c-0.2,0-0.3-0.1-0.3-0.3l0.1-4.1h-1l0.1,2.8h0.2c0.2,0,0.3,0.1,0.3,0.3s-0.1,0.3-0.3,0.3
			c0,0,0,0,0,0h-0.2v1.4c0,0.2-0.1,0.3-0.3,0.3c-0.2,0-0.3-0.1-0.3-0.3v-1.4h-2c-0.2,0-0.3-0.1-0.3-0.3s0.1-0.3,0.3-0.3c0,0,0,0,0,0
			h2l-0.1-2.8H76v0.7h1c0.2,0,0.3,0.1,0.3,0.3c0,0.2-0.1,0.3-0.3,0.3h-1.2l-0.1,3.2c0,0.2-0.1,0.3-0.3,0.3c-0.2,0-0.3-0.1-0.3-0.3
			l0.1-3.2h-0.4c-0.2,0-0.3-0.1-0.3-0.3c0-0.2,0.1-0.3,0.3-0.3c0,0,0,0,0,0h0.4v-0.7h-1l0.1,4.7c0,0.2-0.1,0.3-0.3,0.3
			s-0.3-0.1-0.3-0.3l-0.1-4.8h-9.1l-0.1,3.2h2c0.2,0,0.3,0.1,0.3,0.3c0,0.2-0.1,0.3-0.3,0.3h-2v0.6c0,0.2-0.1,0.3-0.3,0.3
			c-0.2,0-0.3-0.1-0.3-0.3v-0.6h-0.2c-0.2,0-0.3-0.1-0.3-0.3c0-0.2,0.1-0.3,0.3-0.3h0.2l0.1-3.2h-1v1.7H63c0.2,0,0.3,0.1,0.3,0.3
			c0,0.2-0.1,0.3-0.3,0.3h-0.1C62.9,167.6,63,170,63,170z M67.6,168.4c0.2,0,0.3,0.1,0.3,0.3c0,0.2-0.1,0.3-0.3,0.3h-0.2
			c-0.2,0-0.3-0.1-0.3-0.3c0-0.2,0.1-0.3,0.3-0.3c0,0,0,0,0,0H67.6z M78.2,166c0.2,0,0.3,0.1,0.3,0.3c0,0.2-0.1,0.3-0.3,0.3
			c0,0,0,0,0,0H78c-0.2,0-0.3-0.1-0.3-0.3c0-0.2,0.1-0.3,0.3-0.3H78.2z M51.9,167.7c-0.2,0-0.3-0.1-0.3-0.3c0-0.2,0.1-0.3,0.3-0.3
			c0,0,0,0,0,0h0.3c0.2,0,0.3,0.1,0.3,0.3s-0.1,0.3-0.3,0.3c0,0,0,0,0,0H51.9z M84.4,167.3c-0.2,0-0.3-0.1-0.3-0.3
			c0-0.2,0.1-0.3,0.3-0.3c0,0,0,0,0,0h0.3c0.2,0,0.3,0.1,0.3,0.3c0,0.2-0.1,0.3-0.3,0.3H84.4z M79.5,143.4h-4.6l-0.8,0.7h6.7
			c0.2,0,0.3,0.1,0.3,0.3c0,0.2-0.1,0.3-0.3,0.3H57.4c-0.2,0-0.3-0.1-0.3-0.3c0-0.2,0.1-0.3,0.3-0.3h5.2l-0.8-0.7h-9.2l-0.8,0.7h2
			c0.2,0,0.3,0.1,0.3,0.3c0,0.2-0.1,0.3-0.3,0.3h-5.1c-0.2,0-0.3-0.1-0.3-0.3c0-0.2,0.1-0.3,0.3-0.3l0,0h2.2l1.3-1.2
			c0.1-0.1,0.1-0.1,0.2-0.1h9.4c0.1,0,0.2,0,0.2,0.1l1.3,1.3H65l3.1-2.5c0.1-0.1,0.3-0.1,0.4,0l3.1,2.5h1.5l1.3-1.3
			c0.1-0.1,0.1-0.1,0.2-0.1H84c0.1,0,0.2,0,0.2,0.1l1.3,1.3H88c0.2,0,0.3,0.1,0.3,0.3c0,0.2-0.1,0.3-0.3,0.3h-4.2
			c-0.2,0-0.3-0.1-0.3-0.3c0-0.2,0.1-0.3,0.3-0.3h1.1l-0.8-0.7L79.5,143.4z M64.3,151c0.2,0,0.3,0.1,0.3,0.3s-0.1,0.3-0.3,0.3h-0.1
			l-0.2,10h1l-0.2-10.2l0,0l0.2-2.1h-1l0.2,1.8C64.2,151.1,64.3,151,64.3,151z M65.4,151.3l0.2,8.8h5.6l0.2-8.8l-0.2-2.2h-5.5
			C65.6,149.8,65.5,150.5,65.4,151.3z M65.7,160.7v0.8h5.5v-0.8H65.7z M63.3,161.6v-0.8h-6v0.8H63.3z M63.3,160.1l0.2-8.8l-0.2-2.1
			h-6.1l-0.2,2.1l0.2,8.8h3.2v-8.8c0-0.1,0.1-0.3,0.2-0.3c0,0,0.1,0,0.1,0h1.8c0.2,0,0.3,0.1,0.3,0.3s-0.1,0.3-0.3,0.3H61v8.5H63.3z
			 M55.8,151c0.2,0,0.3,0.1,0.3,0.3s-0.1,0.3-0.3,0.3h-0.1l-0.2,10h1.1l-0.2-10.2l0,0l0.2-2.1h-1.1l0.2,1.8
			C55.7,151.1,55.8,151,55.8,151z M54.9,161.6v-0.8H52c-0.2,0-0.3-0.1-0.3-0.3s0.1-0.3,0.3-0.3h2.9l0.2-8.8l-0.2-2.1H51l-0.2,2.2
			l0.2,10.1H54.9z M49.3,161.6h1.1l-0.2-10.3l0,0l0.2-2.1h-1.1l0.2,1.8h0.1c0.2,0,0.3,0.1,0.3,0.3s-0.1,0.3-0.3,0.3h-0.1
			C49.5,151.6,49.3,161.6,49.3,161.6z M76.3,158.9c0,0.2-0.1,0.3-0.3,0.3s-0.3-0.1-0.3-0.3l0,0v-7.3h-1.5c-0.2,0-0.3-0.1-0.3-0.3
			s0.1-0.3,0.3-0.3H76c0.1,0,0.3,0.1,0.3,0.2c0,0,0,0.1,0,0.1V158.9z M70.4,151c0.2,0,0.3,0.1,0.3,0.3s-0.1,0.3-0.3,0.3h-4.1
			c-0.2,0-0.3-0.1-0.3-0.3s0.1-0.3,0.3-0.3H70.4z M71.8,161.6h1.1l-0.2-10h-0.1c-0.2,0-0.3-0.1-0.3-0.3s0.1-0.3,0.3-0.3h0.1l0.2-1.8
			h-1.1l0.2,2.1l0,0C72,151.3,71.8,161.6,71.8,161.6z M73.5,161.6h6.1v-0.8h-6.1V161.6z M73.5,160.1h6.1l0.2-8.8l-0.2-2.2h-6.1
			l-0.2,2.1L73.5,160.1z M80.2,161.6h1.1l-0.2-10H81c-0.2,0-0.3-0.1-0.3-0.3s0.1-0.3,0.3-0.3h0.1l0.2-1.8h-1.1l0.2,2.1l0,0
			C80.4,151.3,80.2,161.6,80.2,161.6z M82,161.6h3.8l0.2-10.3l-0.2-2.2h-3.9l-0.2,2.1l0.2,8.8h3c0.2,0,0.3,0.1,0.3,0.3
			s-0.1,0.3-0.3,0.3h-3C81.9,160.7,82,161.6,82,161.6z M87.3,151l0.2-1.8h-1.1l0.2,2.1l0,0l-0.2,10.2h1.1l-0.2-10h-0.1
			c-0.2,0-0.3-0.1-0.3-0.3c0-0.2,0.1-0.3,0.3-0.3L87.3,151z M88.2,147.1l1.2-1.2h-42l1.1,1.1h35.4c0.2,0,0.3,0.1,0.3,0.3
			s-0.1,0.3-0.3,0.3H48.6v0.8H88v-1.1C88.1,147.3,88.1,147.2,88.2,147.1z M85.5,147.1c0.2,0,0.3,0.1,0.3,0.3c0,0.2-0.1,0.3-0.3,0.3
			H85c-0.2,0-0.3-0.1-0.3-0.3c0-0.2,0.1-0.3,0.3-0.3H85.5z M70.7,144.1l-2.3-1.9l-2.4,1.9H70.7z"/>
	</g>
</g>
</svg>
