<?xml version="1.0" encoding="utf-8"?>
<!-- Generator: Adobe Illustrator 23.1.0, SVG Export Plug-In . SVG Version: 6.00 Build 0)  -->
<svg version="1.1" id="Layer_1" xmlns="http://www.w3.org/2000/svg" xmlns:xlink="http://www.w3.org/1999/xlink" x="0px" y="0px"
	 viewBox="0 0 50 50" style="enable-background:new 0 0 50 50;" xml:space="preserve">
<g id="zadan_1_">
	<path d="M49.4,36.9c-1.6,0.3-3,0.5-5,0.1V22.2c0-0.1-0.1-0.3-0.1-0.4l-0.9-1.1v-0.2c2.4-0.9,4.8-1.1,6.1-1.1h0
		c0.3,0,0.5-0.3,0.5-0.6c0-0.3-0.2-0.6-0.5-0.6c-1.8,0-4.1,0.4-6.1,1.1V15c2-0.7,4.2-1.1,5.9-1.1h0c0.3,0,0.5-0.3,0.5-0.6
		c0-0.3-0.2-0.6-0.5-0.6c-0.1,0-0.1,0-0.2,0l-0.6-1.2c-0.1-0.2-0.3-0.3-0.5-0.3h0c-0.2,0-0.4,0.1-0.5,0.3l-0.5,0.9l-0.6-0.8
		c-0.1-0.2-0.3-0.2-0.5-0.2c-0.2,0-0.3,0.2-0.4,0.4l-0.3,0.8L44.9,12c-0.1-0.2-0.3-0.2-0.5-0.2C44.2,11.9,44,12,44,12.3l-0.1,0.7
		l-0.2-0.2c-0.1-0.1-0.3-0.2-0.5-0.1c-0.2,0.1-0.3,0.2-0.4,0.4l-0.3,1L42,12.9c-0.1-0.2-0.2-0.3-0.4-0.4c-0.2,0-0.4,0.1-0.5,0.3
		l-0.4,0.6l-0.3-0.6c-0.1-0.2-0.3-0.3-0.5-0.3c-0.2,0-0.4,0.1-0.5,0.4l-0.2,0.4L39,12.8c-0.1-0.2-0.2-0.3-0.5-0.3
		c-0.2,0-0.4,0.1-0.4,0.3l-0.3,0.6l-0.4-0.6c-0.2-0.3-0.7-0.3-0.9,0l-0.4,0.7l-0.6-0.8c-0.1-0.2-0.3-0.2-0.5-0.2
		c-0.2,0-0.3,0.1-0.4,0.3l-0.3,0.6L34,12.8c-0.1-0.2-0.3-0.3-0.5-0.3c-0.2,0-0.4,0.1-0.4,0.4l-0.2,0.4l-0.3-0.5
		c-0.1-0.2-0.3-0.3-0.4-0.3c-0.2,0-0.3,0.1-0.4,0.2l-0.4,0.7l-0.3-0.6c-0.1-0.2-0.2-0.3-0.4-0.3s-0.4,0.1-0.5,0.2l-0.8,1.1L27.9,12
		c-0.1-0.1-0.2-0.2-0.4-0.2H26h-1.6c-0.1,0-0.3,0.1-0.4,0.2l-1.7,2l-0.9-1.2c-0.1-0.1-0.3-0.2-0.5-0.2c-0.2,0-0.3,0.1-0.4,0.3
		l-0.3,0.7l-0.5-0.8c-0.1-0.1-0.3-0.2-0.4-0.2c-0.2,0-0.3,0.1-0.4,0.3l-0.4,0.6l-0.2-0.5c-0.1-0.2-0.2-0.3-0.4-0.3
		c-0.2,0-0.4,0.1-0.5,0.2l-0.4,0.7l-0.3-0.6c-0.1-0.2-0.2-0.3-0.4-0.3c-0.2,0-0.3,0.1-0.5,0.2l-0.7,0.9l-0.5-0.8
		c-0.2-0.3-0.7-0.3-0.9,0l-0.4,0.7l-0.4-0.7c-0.1-0.2-0.3-0.3-0.4-0.3c-0.2,0-0.4,0.1-0.4,0.3l-0.4,0.6l-0.2-0.5
		c-0.1-0.2-0.3-0.3-0.4-0.3c-0.2,0-0.4,0.1-0.5,0.3l-0.4,0.7l-0.5-0.7c-0.1-0.2-0.3-0.3-0.5-0.2c-0.2,0-0.3,0.1-0.4,0.3l-0.5,1.1
		H8.1l-0.3-1c-0.1-0.2-0.2-0.3-0.4-0.4c-0.2-0.1-0.4,0-0.5,0.1l-0.3,0.3l-0.2-0.7c-0.1-0.2-0.2-0.4-0.4-0.4c-0.2-0.1-0.4,0-0.5,0.1
		L5,12.6l-0.3-0.9c-0.1-0.2-0.2-0.3-0.4-0.4c-0.2,0-0.4,0-0.5,0.2L3,12.4l-0.5-1c-0.1-0.1-0.3-0.2-0.5-0.2c-0.2,0-0.4,0.1-0.4,0.3
		l-0.6,1.2c-0.1,0-0.2,0-0.2,0c-0.3,0-0.5,0.3-0.5,0.6c0,0.3,0.2,0.6,0.5,0.6c1.9,0,4.3,0.4,6.5,1.1v4.2c-2.5-0.8-5.1-1.1-6.7-1
		c-0.3,0-0.5,0.3-0.5,0.6c0,0.3,0.2,0.6,0.5,0.6c1.6,0,4.2,0.2,6.7,1.1v0.2l-0.9,1.1c-0.1,0.1-0.2,0.3-0.2,0.4V37
		c-2.3,0.4-3.8,0.2-5.5-0.1c-0.3,0-0.6,0.2-0.6,0.5c0,0.3,0.2,0.6,0.4,0.7c1.1,0.2,2.2,0.3,3.4,0.3c0.9,0,1.8-0.1,2.9-0.3h3.2
		c0.3,0,0.5-0.3,0.5-0.6V26.9c0.2-1.2,1.5-2.1,2.5-2.1c1.1,0,2.2,0.8,2.5,2v10.8c0,0.3,0.2,0.6,0.5,0.6h0.2v0.1
		c0,0.3,0.2,0.6,0.5,0.6h2.8c0.3,0,0.5-0.3,0.5-0.6v-9.7c1-2.2,3.8-4.1,6-4.1c2.4,0.1,4.6,1.8,5.5,4.1v9.8c0,0.3,0.2,0.6,0.5,0.6
		h2.6c0.3,0,0.5-0.3,0.5-0.6v-0.1h0.1c0.3,0,0.5-0.3,0.5-0.6V26.8c0.3-1.2,1.3-2.1,2.3-2c0.9,0.1,2.1,0.8,2.3,2v10.8
		c0,0.3,0.2,0.6,0.5,0.6h3c1,0.2,1.9,0.3,2.6,0.3c1.1,0,2.1-0.1,3.1-0.3c0.3-0.1,0.5-0.4,0.4-0.7C49.9,37.1,49.6,36.8,49.4,36.9z
		 M12.9,23.6c-0.8,0.1-1.8,0.5-2.4,1.2v-1.6h5v1.6C14.8,23.9,13.9,23.5,12.9,23.6z M26.1,23.2c-2.1,0-4.5,1.3-6,3.2v-3.3h6h5.5v3.1
		C30.2,24.4,28.2,23.2,26.1,23.2z M38.1,23.6c-0.9-0.1-1.7,0.3-2.3,1v-1.5h4.5v1.5C39.7,24,38.8,23.6,38.1,23.6z M43.3,36.9h-1.9
		V22.5c0-0.3-0.2-0.6-0.5-0.6h-5.6c-0.3,0-0.5,0.3-0.5,0.6v14.5h-0.1c-0.3,0-0.5,0.3-0.5,0.6v0.1h-1.5V22.5c0-0.3-0.2-0.6-0.5-0.6
		h-0.1c0.2-0.1,0.4-0.3,0.4-0.6c-0.3-3.9-2.9-6.6-6.3-6.7c-3.4-0.1-6.1,2.6-6.5,6.7c0,0.3,0.2,0.6,0.5,0.7c0.3,0,0.6-0.2,0.6-0.5
		c0.3-3.4,2.5-5.7,5.4-5.6c2.9,0.1,5,2.4,5.2,5.7c0,0.2,0.2,0.4,0.4,0.5H26h-6.5c-0.3,0-0.5,0.3-0.5,0.6v15.1h-1.7v-0.1
		c0-0.3-0.2-0.6-0.5-0.6h-0.2V22.5c0-0.3-0.2-0.6-0.5-0.6H9.9c-0.3,0-0.5,0.3-0.5,0.6v14.5H7.2V22.4l0.9-1.1
		c0.1-0.1,0.2-0.3,0.2-0.4v-5.8h14.3c0.1,0,0.3-0.1,0.4-0.2l1.8-2H26h1.2l1.6,2c0.1,0.1,0.2,0.2,0.4,0.2h13.1V21
		c0,0.1,0.1,0.3,0.1,0.4l0.9,1.1L43.3,36.9L43.3,36.9z"/>
</g>
</svg>
