<?xml version="1.0" encoding="utf-8"?>
<!-- Generator: Adobe Illustrator 23.1.0, SVG Export Plug-In . SVG Version: 6.00 Build 0)  -->
<svg version="1.1" id="Layer_1" xmlns="http://www.w3.org/2000/svg" xmlns:xlink="http://www.w3.org/1999/xlink" x="0px" y="0px"
	 viewBox="0 0 50.3 50" style="enable-background:new 0 0 50.3 50;" xml:space="preserve">
<g>
	<path d="M2.8,13.8c0.3,0,14.5,2.5,14.5,2.5v9.7h-2.5c-0.3,0-0.5,0.2-0.5,0.5v0.8c-0.3,0-0.5,0.2-0.5,0.5v0.8
		c-0.3,0-0.5,0.2-0.5,0.5v0.8c-0.3,0-0.5,0.2-0.5,0.5v0.8c-0.3,0-0.5,0.2-0.5,0.5v0.8c-0.3,0-0.5,0.2-0.5,0.5v0.8
		c-0.3,0-0.5,0.2-0.5,0.5v0.8c-0.3,0-0.5,0.2-0.5,0.5v0.8c-0.3,0-0.5,0.2-0.5,0.5v0.8c-0.3,0-0.5,0.2-0.5,0.5v0.8
		c-0.3,0-0.5,0.2-0.5,0.5v0.8c-0.3,0-0.5,0.2-0.5,0.5v0.8c-0.3,0-0.5,0.2-0.5,0.5v1.3c0,0.3,0.2,0.5,0.5,0.5h6.2
		c0.1,0,0.2,0,0.3-0.1c0.1-0.1,0.1-0.1,0.2-0.2l0.5-1.3c0,0,0,0,0,0l0.4-1.1l0.1-0.2c0,0,0,0,0,0l1.9-5c0,0,0,0,0,0l0.5-1.3
		c0,0,0,0,0,0l0.5-1.3c0,0,0,0,0,0l0.5-1.3c0,0,0,0,0,0l1.4-3.8c0,0,0,0,0,0l0.5-1.3c0,0,0,0,0,0l0.7-1.8h0.5l-6.6,17.8
		c-0.1,0.2,0,0.4,0.1,0.5c0.1,0.1,0.2,0.1,0.3,0.1c0.1,0,0.2,0,0.2-0.1l6.8-3.5h10.4h7.1h6.3c0.3,0,0.5-0.2,0.5-0.5V21.1v-4.8
		c0,0,0,0,0-0.1l0-4.7c0-1.3-1.1-2.3-2-2.3c-0.7,0-1.2,0.6-1.5,1.2c-0.4-0.6-0.9-1.2-1.5-1.2c-0.7,0-1.2,0.6-1.5,1.2
		c-0.4-0.6-0.9-1.2-1.5-1.2c-0.7,0-1.2,0.6-1.5,1.2C38.2,10,37.7,9.4,37,9.4c-0.7,0-1.2,0.6-1.5,1.2C35.1,10,34.6,9.3,34,9.3
		s-1.2,0.6-1.5,1.2c-0.4-0.6-0.9-1.2-1.5-1.2c-0.5,0-0.8,0.2-1.1,0.6c-0.1-0.8-0.2-1.4-0.2-1.9c-0.1-0.8-0.8-1.4-1.6-1.4H11.3
		c-1,0-1.9,0.8-1.9,1.9V14l-6.7-1.2c-0.1,0-0.3,0-0.4,0.1c-0.1,0.1-0.2,0.2-0.2,0.4C2.1,13.7,2.5,13.8,2.8,13.8z M47.2,16.8v3.8
		H33.1c0.2-2.1,2.1-3.8,4.2-3.8H47.2z M30.9,10.3c0.1,0,0.5,0.2,1.1,1.5c0,0,0,0,0,0c0,0,0,0,0,0c0.1,0.2,0.2,0.3,0.4,0.3
		c0,0,0,0,0,0c0.2,0,0.3-0.1,0.4-0.2c0,0,0,0,0,0c0,0,0,0,0,0c0.6-1.3,0.9-1.5,1.1-1.5c0.1,0,0.5,0.2,1.1,1.5c0,0,0,0,0,0
		c0,0,0,0,0,0c0.1,0.2,0.2,0.3,0.4,0.3c0,0,0,0,0,0c0.2,0,0.3-0.1,0.4-0.3c0,0,0,0,0,0c0,0,0,0,0,0c0.6-1.3,0.9-1.5,1.1-1.5
		s0.5,0.2,1.1,1.5c0,0,0,0,0,0c0,0,0,0,0,0c0.1,0.2,0.2,0.3,0.4,0.3c0,0,0,0,0,0c0.2,0,0.3-0.1,0.4-0.3c0,0,0,0,0,0c0,0,0,0,0,0
		c0.6-1.3,0.9-1.5,1.1-1.5c0.1,0,0.5,0.2,1.1,1.5c0,0,0,0,0,0c0.1,0.1,0.2,0.2,0.4,0.3c0,0,0,0,0,0c0.2,0,0.3-0.1,0.4-0.2
		c0,0,0,0,0-0.1c0,0,0,0,0,0c0.6-1.3,0.9-1.5,1.1-1.5c0.1,0,0.5,0.2,1.1,1.5c0,0,0,0,0,0c0,0,0,0,0,0c0.1,0.2,0.2,0.3,0.4,0.3
		c0,0,0,0,0,0c0.2,0,0.3-0.1,0.4-0.3c0,0,0,0,0,0c0,0,0,0,0,0c0.6-1.3,0.9-1.5,1.1-1.5c0.4,0,1,0.5,1,1.3l0,4.3h-9.9
		c-2.7,0-5,2.1-5.2,4.8h-1.6c0-3.2-0.3-6.7-0.6-9.3C30.3,10.7,30.6,10.3,30.9,10.3z M15.3,27h5.5l-0.1,0.3h-5.4V27z M14.9,28.3h5.5
		l0,0l-0.1,0.3h-5.4V28.3z M14.4,29.6h5.5l-0.1,0.3h-5.4V29.6z M13.9,30.8h5.5l-0.1,0.3h-5.4V30.8z M13.5,32.1H19l-0.1,0.3h-5.4
		V32.1z M13,33.3h5.5l-0.1,0.3H13V33.3z M12.5,34.6H18l-0.1,0.3h-5.4V34.6z M12,35.8h5.5l-0.1,0.3H12V35.8z M11.6,37.1h5.5L17,37.4
		h-5.4V37.1z M11.1,38.3h5.5l-0.1,0.3h-5.4V38.3z M10.6,39.6h5.5L16,39.9h-5.4V39.6z M10.2,40.9h5.5l-0.1,0.3h-5.4V40.9z M9.7,42.1
		h5.5l-0.1,0.3H9.7V42.1z M22.3,24c-0.2,0-0.4,0.1-0.4,0.3l-0.7,1.8h-2.9V16c0-0.2-0.2-0.4-0.4-0.5l-7.5-1.3V8.5
		c0-0.5,0.4-0.9,0.9-0.9h16.6c0.3,0,0.6,0.2,0.7,0.6c0.3,2.2,1,7.6,1,12.5h-1.7c-0.3,0-0.5,0.2-0.5,0.5v1.2h-1.5
		c-0.3,0-0.5,0.2-0.5,0.5V24h-1.6H22.3z M23.3,27.1V39l-5.5,2.9L23.3,27.1z M40.8,38.8v-6.3c0-2.2-1.8-3.9-3.9-3.9
		c-0.3,0-0.5,0.2-0.5,0.5s0.2,0.5,0.5,0.5c1.6,0,2.9,1.3,2.9,2.9v6.3h-5v-7.7c0-1.7,1.4-3.1,3.1-3.1c1.7,0,3.1,1.4,3.1,3.1v7.7H40.8
		z M47.2,38.8h-5.3v-7.7c0-2.2-1.8-4-4-4s-4,1.8-4,4v7.7h-9.5V25h1.6c0.3,0,0.5-0.2,0.5-0.5v-1.2h1.5c0.3,0,0.5-0.2,0.5-0.5v-1.2
		h4.2h14.6V38.8z"/>
	<circle cx="30.9" cy="11.9" r="0.4"/>
	<path d="M32.4,14.1c0.2,0,0.4-0.2,0.4-0.4c0-0.2-0.2-0.4-0.4-0.4c-0.2,0-0.4,0.2-0.4,0.4C32,13.9,32.2,14.1,32.4,14.1z"/>
	<path d="M35.5,14.1c0.2,0,0.4-0.2,0.4-0.4c0-0.2-0.2-0.4-0.4-0.4c-0.2,0-0.4,0.2-0.4,0.4C35.1,13.9,35.3,14.1,35.5,14.1z"/>
	<path d="M38.5,14.1c0.2,0,0.4-0.2,0.4-0.4c0-0.2-0.2-0.4-0.4-0.4s-0.4,0.2-0.4,0.4C38.1,13.9,38.3,14.1,38.5,14.1z"/>
	<path d="M41.6,14.1c0.2,0,0.4-0.2,0.4-0.4c0-0.2-0.2-0.4-0.4-0.4s-0.4,0.2-0.4,0.4C41.2,13.9,41.3,14.1,41.6,14.1z"/>
	<path d="M44.6,14.1c0.2,0,0.4-0.2,0.4-0.4c0-0.2-0.2-0.4-0.4-0.4s-0.4,0.2-0.4,0.4C44.2,13.9,44.4,14.1,44.6,14.1z"/>
	<path d="M34,12.3c0.2,0,0.4-0.2,0.4-0.4c0-0.2-0.2-0.4-0.4-0.4c-0.2,0-0.4,0.2-0.4,0.4C33.6,12.1,33.7,12.3,34,12.3z"/>
	<circle cx="37" cy="11.9" r="0.4"/>
	<circle cx="40.1" cy="11.9" r="0.4"/>
	<circle cx="43.1" cy="11.9" r="0.4"/>
	<circle cx="46.1" cy="11.9" r="0.4"/>
	<path d="M13,9c-0.2,0-0.4,0.2-0.4,0.4c0,0.2,0.2,0.4,0.4,0.4c0.2,0,0.4-0.2,0.4-0.4C13.4,9.2,13.2,9,13,9z"/>
	<circle cx="15.2" cy="9.4" r="0.4"/>
	<path d="M17.4,9C17.2,9,17,9.2,17,9.4c0,0.2,0.2,0.4,0.4,0.4c0.2,0,0.4-0.2,0.4-0.4C17.8,9.2,17.6,9,17.4,9z"/>
	<circle cx="19.6" cy="9.4" r="0.4"/>
	<path d="M21.8,9c-0.2,0-0.4,0.2-0.4,0.4c0,0.2,0.2,0.4,0.4,0.4c0.2,0,0.4-0.2,0.4-0.4C22.3,9.2,22.1,9,21.8,9z"/>
	<circle cx="24.1" cy="9.4" r="0.4"/>
	<path d="M26.3,9.9c0.2,0,0.4-0.2,0.4-0.4c0-0.2-0.2-0.4-0.4-0.4c-0.2,0-0.4,0.2-0.4,0.4C25.8,9.7,26,9.9,26.3,9.9z"/>
	<path d="M11.3,27.8v-2.6c0-1.1-0.7-2-1.6-2s-1.6,0.9-1.6,2v3.2c0,0.1,0.1,0.3,0.2,0.4c0.1,0.1,0.2,0.1,0.3,0.1c0,0,0.1,0,0.1,0
		l2.3-0.6C11.2,28.2,11.3,28,11.3,27.8z M10.4,27.5L9,27.8v-2.6c0-0.6,0.3-1.1,0.7-1.1s0.7,0.5,0.7,1.1V27.5z"/>
</g>
</svg>
