<?xml version="1.0" encoding="utf-8"?>
<!-- Generator: Adobe Illustrator 23.1.0, SVG Export Plug-In . SVG Version: 6.00 Build 0)  -->
<svg version="1.1" id="Layer_1" xmlns="http://www.w3.org/2000/svg" xmlns:xlink="http://www.w3.org/1999/xlink" x="0px" y="0px"
	 viewBox="0 0 50 50" style="enable-background:new 0 0 50 50;" xml:space="preserve">
<g id="zadan">
	<g>
		<path d="M39.1,40.2L39.1,40.2L39,22.7h6.1c0.1,0,0.1,0,0.2,0l4.4-1.4c0.3-0.1,0.4-0.4,0.3-0.7s-0.4-0.4-0.7-0.3L45,21.7h-6v-2
			c0.2-0.2,0.5-0.4,0.6-0.7c0.1-0.3,0.1-0.8,0-1.1c-0.1-0.2-0.3-0.4-0.5-0.6l0-5.7c0,0,0-0.1,0-0.1h0.2c0.3,0,0.5-0.2,0.5-0.5
			c0-0.3-0.2-0.5-0.5-0.5h-1.6v-4c0-0.3-0.2-0.5-0.5-0.5s-0.5,0.2-0.5,0.5v4H35c-0.3,0-0.5,0.2-0.5,0.5s0.2,0.5,0.5,0.5h0.3
			c0,0,0,0.1,0,0.1v5.5c-0.2,0.2-0.4,0.4-0.6,0.6h0H15.8c-0.1,0-0.1,0-0.1,0c-0.1-0.1-0.2-0.2-0.4-0.4l0-5.7c0,0,0-0.1,0-0.1h0.2
			c0.3,0,0.5-0.2,0.5-0.5c0-0.3-0.2-0.5-0.5-0.5h-1.6v-4c0-0.3-0.2-0.5-0.5-0.5s-0.5,0.2-0.5,0.5v4h-1.6c-0.3,0-0.5,0.2-0.5,0.5
			s0.2,0.5,0.5,0.5h0.3c0,0,0,0.1,0,0.1v5.5c-0.3,0.2-0.6,0.5-0.7,0.8c-0.2,0.3-0.1,0.8,0,1.1c0.1,0.2,0.2,0.3,0.5,0.6v2.1h-6
			l-4.6-1.4c-0.3-0.1-0.6,0.1-0.7,0.4s0.1,0.6,0.4,0.7l4.7,1.4c0.1,0,0.1,0,0.2,0h6.1v17.4h-0.3c-0.3,0-0.5,0.2-0.5,0.5v2.1
			c0,0.3,0.2,0.5,0.5,0.5h4.4c0.3,0,0.5-0.2,0.5-0.5v-2c0-0.3-0.2-0.5-0.5-0.5h-0.1V19.6c0.2-0.2,0.5-0.4,0.6-0.7
			c0-0.1,0.1-0.2,0.1-0.3h18.6c0,0.1,0,0.2,0.1,0.2c0.1,0.2,0.2,0.3,0.5,0.6v20.6h-0.4c-0.3,0-0.5,0.2-0.5,0.5v2.1
			c0,0.3,0.2,0.5,0.5,0.5h4.4c0.3,0,0.5-0.2,0.5-0.5v-2C39.6,40.4,39.4,40.2,39.1,40.2z M38.1,19c-0.1,0-0.1,0.1-0.1,0.2h-1.9
			c0-0.1-0.1-0.2-0.2-0.3c-0.1-0.1-0.3-0.3-0.3-0.3c0-0.1,0-0.2,0-0.3c0.1-0.1,0.3-0.4,0.6-0.6c0,0,0-0.1,0.1-0.1H38
			c0,0.1,0.1,0.2,0.2,0.3c0.2,0.1,0.4,0.3,0.4,0.4c0,0.1,0,0.2,0,0.2C38.6,18.6,38.3,18.8,38.1,19z M38,16.6h-1.6v-4.5H38L38,16.6z
			 M36.1,20.2h1.8v19.1h-1.8V20.2z M14.2,16.6h-1.6v-4.5h1.6L14.2,16.6z M12.3,20.2h1.8v19.1h-1.8V20.2z M14.4,19
			c-0.1,0-0.1,0.1-0.1,0.2h-1.9c0-0.1-0.1-0.2-0.2-0.3c-0.1-0.1-0.3-0.3-0.3-0.3c0-0.1,0-0.2,0-0.3c0.1-0.1,0.3-0.4,0.6-0.6
			c0,0,0-0.1,0.1-0.1h1.8c0,0.1,0.1,0.2,0.2,0.3c0.2,0.1,0.4,0.3,0.4,0.4c0,0.1,0,0.2,0,0.2C14.8,18.6,14.6,18.8,14.4,19z
			 M14.8,42.2h-3.3v-1h0.3c0.3,0,0.5-0.2,0.5-0.5v-0.3h1.8v0.4c0,0.3,0.2,0.5,0.5,0.5h0.1V42.2z M38.5,42.2h-3.3v-1h0.4
			c0.3,0,0.5-0.2,0.5-0.5v-0.3h1.8v0.4c0,0.3,0.2,0.5,0.5,0.5h0.1V42.2z"/>
		<path d="M25.2,23c-7.7,0-7.9,5.4-7.9,5.5v11.9c0,0.3,0.2,0.5,0.5,0.5s0.5-0.2,0.5-0.5V28.5c0-0.2,0.2-4.4,6.8-4.4
			c7,0,7.2,4.6,7.2,4.8v11.8c0,0.3,0.2,0.5,0.5,0.5s0.5-0.2,0.5-0.5V28.9C33.4,28.8,33.2,23,25.2,23z"/>
		<path d="M10.6,39.4v-6.5c0-0.6-0.3-1.2-0.8-1.7l-1.3-1.1C8.4,30,8.2,30,8,30.1l-1.3,1c-0.6,0.5-1,1.3-1,2.1v7.6
			c0,0.3,0.2,0.5,0.5,0.5s0.5-0.2,0.5-0.5v-7.6c0-0.5,0.2-0.9,0.6-1.2l0.9-0.7L9.2,32c0.3,0.2,0.4,0.5,0.4,0.9v6.5
			c0,0.3,0.2,0.5,0.5,0.5C10.4,40,10.6,39.7,10.6,39.4z"/>
		<path d="M40.6,38.9v-6.1c0-0.3,0.1-0.5,0.3-0.7l1-0.9l1.2,0.9c0.2,0.2,0.4,0.5,0.4,0.8v7.6c0,0.3,0.2,0.5,0.5,0.5s0.5-0.2,0.5-0.5
			v-7.6c0-0.6-0.3-1.2-0.8-1.6L42.2,30c-0.2-0.2-0.5-0.1-0.7,0l-1.4,1.2c-0.4,0.4-0.7,0.9-0.7,1.5v6.1c0,0.3,0.2,0.5,0.5,0.5
			C40.3,39.4,40.6,39.1,40.6,38.9z"/>
		<path d="M49.6,43l-4.3-0.8h-4.4c-0.3,0-0.5,0.2-0.5,0.5s0.2,0.5,0.5,0.5l4.3,0l4.2,0.8c0,0,0.1,0,0.1,0c0.2,0,0.5-0.2,0.5-0.4
			C50,43.4,49.9,43.1,49.6,43z"/>
		<path d="M8.8,42.2H5l-4.5,0.6c-0.3,0-0.5,0.3-0.5,0.6c0,0.3,0.3,0.5,0.5,0.5c0,0,0,0,0.1,0l4.5-0.6h3.8c0.3,0,0.5-0.2,0.5-0.5
			C9.4,42.4,9.1,42.2,8.8,42.2z"/>
	</g>
</g>
</svg>
