<?xml version="1.0" encoding="utf-8"?>
<!-- Generator: Adobe Illustrator 23.1.0, SVG Export Plug-In . SVG Version: 6.00 Build 0)  -->
<svg version="1.1" id="Layer_1" xmlns="http://www.w3.org/2000/svg" xmlns:xlink="http://www.w3.org/1999/xlink" x="0px" y="0px"
	 viewBox="0 0 50 50" style="enable-background:new 0 0 50 50;" xml:space="preserve">
<g>
	<path d="M39.9,18.9l-1.6-0.4C38.2,13,34.9,8.1,29.9,6l-4.7-2c-0.1,0-0.2,0-0.3,0l-4.7,2c-5.1,2.1-8.3,7-8.5,12.5l-1.6,0.4
		c-0.2,0-0.3,0.2-0.3,0.4V40v5.6c0,0.2,0.2,0.4,0.4,0.4h3.7h4.7h3.6H25h2.7h3.6h4.7h3.7c0.2,0,0.4-0.2,0.4-0.4V40V19.3
		C40.2,19.1,40.1,18.9,39.9,18.9z M39.4,39.6l-2.9-0.2V18.9l1.3,0.3c0,0,0,0,0,0l1.5,0.4V39.6z M28.2,39.1v-3.9
		c0-0.2-0.2-0.4-0.4-0.4H25h-2.7c-0.2,0-0.4,0.2-0.4,0.4v3.9l-0.5,0v-4.6v-7.5c0-0.6,0.3-1.1,0.7-1.4l2.9-2.2l2.9,2.2
		c0.4,0.3,0.7,0.9,0.7,1.4v7.5v4.6H28.2z M28.6,25c-0.1-0.1-0.1-0.1-0.2-0.2l-3.1-2.4c-0.1-0.1-0.4-0.1-0.5,0l-3.1,2.4
		c-0.1,0.1-0.1,0.1-0.2,0.2v-5.6h7.2V25z M29.4,34.4v-7.5V19c0-0.2-0.2-0.4-0.4-0.4h-8c-0.2,0-0.4,0.2-0.4,0.4v7.9v7.5v4.6l-1.5,0
		V17.6H31v21.5h-1.5V34.4z M18.2,17.7v21.4l-3.9,0.3V18.7L18.2,17.7z M31.8,17.7l3.9,1v20.7l-3.9-0.3V17.7z M20.5,6.8L25,4.9
		l4.5,1.9c4.7,2,7.8,6.5,8,11.5L36.6,18l-5.1-1.3c0,0-0.1,0-0.1,0H18.6c0,0-0.1,0-0.1,0l-6,1.5C12.7,13.2,15.8,8.7,20.5,6.8z
		 M12.2,19.2C12.2,19.2,12.2,19.2,12.2,19.2l1.3-0.3v20.5l-2.9,0.2v-20L12.2,19.2z M10.6,40.4l2.9-0.2v5h-2.9V40.4z M14.3,40.2
		l3.9-0.3v5.3h-3.9V40.2z M19,39.9h2.8v5.3H19V39.9z M22.7,39.5v-3.9h1.9v9.6h-1.9V39.5z M25.4,35.5h1.9v3.9v5.7h-1.9V35.5z
		 M28.2,39.9l0.9,0c0,0,0,0,0,0s0,0,0,0l1.9,0v5.3h-2.8V39.9z M31.8,39.9l3.9,0.3v5h-3.9V39.9z M39.4,45.2h-2.9v-5l2.9,0.2V45.2z"/>
	<path d="M27.2,26l-1.9-1.5c-0.1-0.1-0.4-0.1-0.5,0L22.8,26c-0.4,0.3-0.7,0.9-0.7,1.4v5.5c0,0.2,0.2,0.4,0.4,0.4
		c0.2,0,0.4-0.2,0.4-0.4v-5.5c0-0.3,0.1-0.6,0.4-0.8l1.7-1.3l1.7,1.3c0.2,0.2,0.4,0.5,0.4,0.8v2.2c0,0.2,0.2,0.4,0.4,0.4
		c0.2,0,0.4-0.2,0.4-0.4v-2.2C27.9,26.9,27.6,26.4,27.2,26z"/>
	<path d="M27.5,30.6c-0.2,0-0.4,0.2-0.4,0.4v1.4c0,0.2,0.2,0.4,0.4,0.4c0.2,0,0.4-0.2,0.4-0.4V31C27.9,30.8,27.7,30.6,27.5,30.6z"/>
	<path d="M23.8,15.5h2.3c0.2,0,0.4-0.2,0.4-0.4v-3.7c0-0.2-0.2-0.4-0.4-0.4h-2.3c-0.2,0-0.4,0.2-0.4,0.4v3.7
		C23.4,15.3,23.6,15.5,23.8,15.5z M24.3,11.9h1.5v2.8h-1.5V11.9z"/>
</g>
</svg>
