<?xml version="1.0" encoding="utf-8"?>
<!-- Generator: Adobe Illustrator 23.1.0, SVG Export Plug-In . SVG Version: 6.00 Build 0)  -->
<svg version="1.1" id="Layer_1" xmlns="http://www.w3.org/2000/svg" xmlns:xlink="http://www.w3.org/1999/xlink" x="0px" y="0px"
	 viewBox="0 0 50 50" style="enable-background:new 0 0 50 50;" xml:space="preserve">
<g id="_01" transform="translate(-163 -131)">
	<path id="hafez_tomb_shiraz" d="M181.9,140.4c0.6-1,1.4-1.8,2.4-2.3c1.1-0.5,2.3-0.8,3.5-0.9v-0.4c0.1-0.2,0.3-0.4,0.4-0.4
		c0.2,0,0.4,0.2,0.4,0.4v0.4c1.2,0,2.4,0.3,3.5,0.9c1,0.5,1.9,1.3,2.4,2.3c0.4,0.1,0.9,0.3,1.2,0.6c0.3,0.3,0.5,0.7,0.6,1.2h1.3
		c1.9,0,3.4,1.5,3.4,3.4v1.5h0.4c0.2,0,0.4,0.2,0.4,0.4c0,0.2-0.2,0.4-0.4,0.4c0,0,0,0,0,0h-0.1l-0.5,2.4h0.1c0.2,0,0.4,0.2,0.4,0.4
		l-0.4,3.9l0.3,15h1c0.3,0,0.6,0.1,0.8,0.3l0,0c0.2,0.2,0.3,0.4,0.3,0.7v0.7h0.5c0.6,0,1.1,0.4,1.1,1c0,0,0,0.1,0,0.1v0.7h0.5
		c0.6,0,1.1,0.4,1.1,1c0,0,0,0.1,0,0.1v1.1c0,0.2-0.2,0.4-0.4,0.4h-36.2c-0.2,0-0.4-0.2-0.4-0.4v-1.1c0-0.6,0.4-1.1,1-1.1
		c0,0,0.1,0,0.1,0h0.5v-0.7c0-0.6,0.4-1.1,1-1.1c0,0,0.1,0,0.1,0h0.5v-0.7c0-0.3,0.1-0.6,0.3-0.8l0,0c0.2-0.2,0.4-0.3,0.7-0.3h1
		l0.3-15l-0.4-3.9c0-0.2,0.1-0.4,0.3-0.4c0,0,0,0,0.1,0h0.1l-0.5-2.4h-0.1c-0.2,0-0.4-0.2-0.4-0.4s0.2-0.4,0.4-0.4l0,0h0.7v-1.5
		c0-1.9,1.5-3.4,3.4-3.4h1.3c0.1-0.4,0.3-0.9,0.6-1.2l0,0C180.9,140.6,181.4,140.5,181.9,140.4z M194.9,174.4
		c-0.2,0-0.4-0.2-0.4-0.4c0-0.2,0.2-0.4,0.4-0.4h0.9c0.2,0,0.4,0.2,0.4,0.4c0,0.2-0.2,0.4-0.4,0.4c0,0,0,0,0,0H194.9z M184.6,142.3
		h11c0-0.2-0.2-0.4-0.3-0.6c-0.3-0.3-0.6-0.4-1-0.4h-2c-0.2,0-0.4-0.2-0.4-0.4c0-0.2,0.2-0.4,0.4-0.4h1.4c-0.5-0.6-1.1-1.2-1.8-1.5
		c-1.1-0.5-2.3-0.8-3.5-0.8l0,0c-1.2,0-2.4,0.3-3.5,0.8c-0.7,0.4-1.3,0.9-1.8,1.5h7.4c0.2,0,0.4,0.2,0.4,0.4c0,0.2-0.2,0.4-0.4,0.4
		h-8.1c-0.4,0-0.7,0.1-1,0.4l0,0c-0.2,0.2-0.3,0.4-0.3,0.6H184.6z M184.5,143.1c-0.4,0-0.7,0.2-0.9,0.5c-0.3,0.3-0.4,0.8-0.4,1.2
		v2.4h10.2v-2.4c0-0.4-0.1-0.9-0.4-1.2c-0.2-0.3-0.6-0.4-0.9-0.5H184.5z M182.2,147.3v-2.4c0-0.6,0.2-1.2,0.6-1.7h-4.1
		c-0.7,0-1.3,0.3-1.8,0.7c-0.5,0.5-0.7,1.1-0.7,1.8v1.5h4.2C181,147.2,181.6,147.3,182.2,147.3z M198.8,148.1v0.7
		c0,0.2-0.2,0.4-0.4,0.4c-0.2,0-0.4-0.2-0.4-0.4v-0.7h-1.4v0.7c0,0.2-0.2,0.4-0.4,0.4c-0.2,0-0.4-0.2-0.4-0.4v-0.7h-1.6v1.5
		c0,0.2-0.2,0.4-0.4,0.4s-0.4-0.2-0.4-0.4c0,0,0,0,0,0v-1.5H192v0.7c0,0.2-0.2,0.4-0.4,0.4c-0.2,0-0.4-0.2-0.4-0.4v-0.7h-1.4v0.7
		c0,0.2-0.2,0.4-0.4,0.4c-0.2,0-0.4-0.2-0.4-0.4v-0.7h-1.4v0.7c0,0.2-0.2,0.4-0.4,0.4c-0.2,0-0.4-0.2-0.4-0.4v-0.7h-1.4v0.7
		c0,0.2-0.2,0.4-0.4,0.4c-0.2,0-0.4-0.2-0.4-0.4v-0.7h-1.4v1.5c0,0.2-0.2,0.4-0.4,0.4c-0.2,0-0.4-0.2-0.4-0.4v-1.5H181v0.7
		c0,0.2-0.2,0.4-0.4,0.4c-0.2,0-0.4-0.2-0.4-0.4v-0.7h-1.4v0.7c0,0.2-0.2,0.4-0.4,0.4c-0.2,0-1.2-0.1-1.2-0.4v-0.7h-1.9l0.5,2.4H200
		l0.5-2.4C200.5,148.1,198.8,148.1,198.8,148.1z M194,155.4c-0.2,0-0.4-0.2-0.4-0.4s0.2-0.4,0.4-0.4c0,0,0,0,0,0h0.3l0.3-3.1h-1.9
		l0.3,3.5l0,0l-0.3,13.9l0,0v1.1h1.9l-0.3-14.6H194z M195.1,154.9l0.3,15h2.3l0.4-15l-0.2-3.5h-2.4L195.1,154.9z M191.8,169.9v-1.1
		l0,0c0-0.5-0.5-1-1-1h-5.1c-0.3,0-0.5,0.1-0.7,0.3c-0.1,0.2-0.2,0.4-0.3,0.6v1.3C184.7,169.9,191.8,169.9,191.8,169.9z
		 M191.9,167.1l0.3-12.2l-0.3-3.6h-7.3l-0.3,3.6l0.3,12.2c0.3-0.2,0.7-0.3,1.1-0.3h5.1C191.2,166.8,191.6,166.9,191.9,167.1z
		 M200.3,154.4l0.3-3.1h-1.9l0.3,3.5l0,0l-0.3,15h1.9l-0.3-14.5h-0.2c-0.2,0-0.4-0.2-0.4-0.4c0-0.2,0.2-0.4,0.4-0.4c0,0,0,0,0,0
		C200.1,154.6,200.3,154.4,200.3,154.4z M175.8,169.9h1.9l-0.3-15l0,0l0.3-3.5h-1.8l0.3,3.1h0.3c0.2,0,0.4,0.2,0.4,0.4
		c0,0.2-0.2,0.4-0.4,0.4h-0.3C176.2,155.4,175.8,169.9,175.8,169.9z M178.6,169.9h2.3l0.3-15l-0.2-3.5h-2.4l-0.3,3.6L178.6,169.9z
		 M183.4,154.9L183.4,154.9l0.3-3.5h-1.9l0.3,3.1h0.3c0.2,0,0.4,0.2,0.4,0.4c0,0.2-0.1,0.4-0.3,0.4h-0.3l-0.3,14.6h1.9v-1.3
		C183.8,168.6,183.4,154.9,183.4,154.9z M193.7,143.1c0.4,0.5,0.6,1.1,0.6,1.7v2.4h6v-1.5c0-0.7-0.3-1.3-0.7-1.8
		c-0.5-0.5-1.1-0.7-1.8-0.7h-1.7C195.3,143.1,194.5,143,193.7,143.1z M171.6,174.4h-1c-0.1,0-0.1,0-0.2,0.1
		c-0.1,0.1-0.1,0.1-0.1,0.2v0.7H206v-0.7c0-0.1,0-0.1-0.1-0.2c-0.1-0.1-0.1-0.1-0.2-0.1h-6c-0.2,0-0.4-0.2-0.4-0.4
		c0-0.2,0.2-0.4,0.4-0.4c0,0,0,0,0,0h4.7v-0.7c0-0.1,0-0.1-0.1-0.2c-0.1-0.1-0.1-0.1-0.2-0.1h-25c-0.2,0-0.4-0.2-0.4-0.4
		c0-0.2,0.2-0.4,0.4-0.4h23.8v-0.8h-29.1c-0.1,0.1-0.1,0.1-0.1,0.2v0.7h1.5c0.2,0,0.4,0.2,0.4,0.4c0,0.2-0.2,0.4-0.4,0.4h-2.9
		c-0.1,0-0.1,0-0.2,0.1c-0.1,0.1-0.1,0.1-0.1,0.2v0.7h21.4c0.2,0,0.4,0.2,0.4,0.4c0,0.2-0.2,0.4-0.4,0.4L171.6,174.4z"/>
</g>
</svg>
