<?xml version="1.0" encoding="utf-8"?>
<!-- Generator: Adobe Illustrator 23.1.0, SVG Export Plug-In . SVG Version: 6.00 Build 0)  -->
<svg version="1.1" id="Layer_1" xmlns="http://www.w3.org/2000/svg" xmlns:xlink="http://www.w3.org/1999/xlink" x="0px" y="0px"
	 viewBox="0 0 50 50" style="enable-background:new 0 0 50 50;" xml:space="preserve">
<g id="state_khorasanrazavi" transform="translate(-163 -249)">
	<g id="imam_reza_tomb_mashhad">
		<g id="Layer_1-2">
			<path id="Path_1852" d="M166.5,283c0,0.2-0.2,0.4-0.4,0.4c-0.2,0-0.4-0.2-0.4-0.4v-1l0,0v-2.3l0,0v-3l0,0v-2l-0.2-0.7
				c-0.6-1.7-0.3-3.7,0.9-5.1c1.2-1.3,2.6-2.3,4.2-3.1l3.9-2v-4.2c0-0.2,0.2-0.4,0.4-0.4h2.8c0.2,0,0.4,0.2,0.4,0.4l0,0v0.5h1.2
				c0.2,0,0.4,0.2,0.4,0.4v2.3c0,0.2-0.2,0.4-0.4,0.4h-2.8c-0.2,0-0.4-0.2-0.4-0.4v-0.5h-0.8v1.5l3.9,2c1.6,0.8,3,1.9,4.2,3.2
				c1.2,1.4,1.5,3.4,0.9,5.1l-0.2,0.7v2l0,0v7.8h5.6v-12c0-0.2,0.2-0.4,0.4-0.4h22.4c0.2,0,0.4,0.2,0.4,0.4v22.7
				c0,0.2-0.2,0.4-0.4,0.4h-10.2c-0.2,0-0.4-0.2-0.4-0.4c0-0.2,0.2-0.4,0.4-0.4h2c0-3.1-0.1-6.3,0-9.4c0.1-0.7-0.1-1.5-0.4-2.1
				c-0.3-0.5-0.7-0.9-1.1-1.3c-0.2-0.1-0.2-0.4-0.1-0.6l0,0c0.1-0.2,0.4-0.2,0.6-0.1c0.6,0.4,1.1,1,1.4,1.6c0.3,0.8,0.5,1.6,0.4,2.5
				c-0.1,3.1,0,6.3,0,9.4h2.6c0-3.1-0.1-6.3,0-9.4c0.1-0.9-0.1-1.8-0.6-2.5c-0.5-0.7-1.2-1.2-1.9-1.6l-2.1-1.1l-2.1,1.1
				c-0.7,0.4-1.4,0.9-1.9,1.6c-0.5,0.7-0.7,1.6-0.6,2.5c0.1,3.2,0,6.6,0,9.8l0,0c0,0.2-0.2,0.4-0.4,0.4h-34.8
				c-0.2,0-0.4-0.2-0.4-0.4c0-0.2,0.2-0.4,0.4-0.4h2.3v-4.1c0-0.5,0.1-1,0.3-1.5l0,0c0.3-0.4,0.6-0.7,1-0.9l1-0.6
				c0.1-0.1,0.3-0.1,0.4,0l1,0.6c0.4,0.2,0.8,0.5,1,0.9c0.3,0.4,0.4,1,0.4,1.5v4.1h2.4v-4.1c0-0.5,0.1-1,0.3-1.5l0,0
				c0.3-0.4,0.6-0.7,1-0.9l1-0.6c0.1-0.1,0.3-0.1,0.4,0l1.1,0.6c0.4,0.2,0.8,0.5,1,0.9c0.3,0.4,0.4,1,0.3,1.5v4.1h2.7v-4.1
				c0-0.5,0.1-1,0.3-1.5l0,0c0.3-0.4,0.6-0.7,1-0.9l1-0.6c0.1-0.1,0.3-0.1,0.4,0l1.1,0.6c0.4,0.2,0.8,0.5,1,0.9
				c0.3,0.4,0.4,0.9,0.4,1.4v4.1h2.5v-4.1c0-0.5,0.1-1,0.3-1.5l0,0c0.3-0.4,0.6-0.7,1-0.9l1.1-0.6c0.1-0.1,0.3-0.1,0.4,0l1,0.6
				c0.4,0.2,0.8,0.5,1,0.9c0.3,0.4,0.4,1,0.4,1.5v4.2h3.7c0-3.1,0.1-6.3,0-9.4c-0.1-1,0.2-2,0.7-2.9c0.6-0.8,1.3-1.4,2.2-1.8
				l2.3-1.2c0.1-0.1,0.3-0.1,0.4,0l2.3,1.2c0.9,0.4,1.6,1,2.2,1.8c0.6,0.9,0.8,1.9,0.7,2.9v9.4h3.7V273h-18.1v11.8
				c0,0.2-0.2,0.4-0.4,0.4h-30.3c-0.2,0-0.4-0.2-0.4-0.4c0-0.2,0.2-0.4,0.4-0.4h19.9V277h-16.8v2.2h0.8c0.1,0,0.2,0.1,0.3,0.1
				l1.1,1.1c0.2,0.1,0.2,0.4,0.1,0.5c0,0,0,0.1-0.1,0.1l-1.1,1.1c-0.1,0.1-0.2,0.1-0.3,0.1h-0.8V283z M190.7,284.4h2.6V273h-2.6
				V284.4z M196.8,279.7c0,0.2-0.2,0.4-0.4,0.4c-0.2,0-0.4-0.2-0.4-0.4l0,0V275c0-0.2,0.2-0.4,0.4-0.4H210c0.2,0,0.4,0.2,0.4,0.4
				l0,0v4.7c0,0.2-0.2,0.4-0.4,0.4c-0.2,0-0.4-0.2-0.4-0.4v-4.3h-12.8V279.7z M201,294.8c0.2,0,0.4,0.2,0.4,0.4
				c0,0.2-0.2,0.4-0.4,0.4h-0.3c-0.2,0-0.4-0.2-0.4-0.4c0-0.2,0.2-0.4,0.4-0.4H201z M166.5,280v1.5h0.6l0.7-0.7l-0.7-0.8H166.5z
				 M172.7,279.2h2.3l1-0.7c0.1-0.1,0.3-0.1,0.4,0l1.1,0.7h2.3c0.1,0,0.2,0.1,0.3,0.1l1.1,1.1c0.2,0.1,0.2,0.4,0,0.6l0,0l-1.1,1.1
				c-0.1,0.1-0.2,0.1-0.3,0.1h-2.3l-1,0.8c-0.1,0.1-0.3,0.1-0.4,0l-1-0.7h-2.4c-0.1,0-0.2,0-0.3-0.1l-1.1-1.1
				c-0.2-0.1-0.2-0.4-0.1-0.5c0,0,0-0.1,0.1-0.1l1.1-1.1C172.5,279.3,172.6,279.2,172.7,279.2z M175.1,280h-2.2l-0.7,0.7l0.7,0.7
				h2.2c0.1,0,0.2,0,0.2,0.1l0.9,0.6l0.9-0.6c0.1-0.1,0.1-0.1,0.2-0.1h2.2l0.7-0.7l-0.6-0.7h-2.2c-0.1,0-0.2,0-0.2-0.1l-0.9-0.6
				l-0.9,0.7H175.1z M191.5,266h-3.6c-0.2,0-0.4-0.2-0.4-0.4c0-0.2,0.2-0.4,0.4-0.4c0,0,0,0,0,0h4v-3.4h-5.4v3.7l1.2,1.8h0.8
				c0.2,0,0.4,0.2,0.4,0.4l0,0c0,0.2-0.2,0.4-0.4,0.4h-0.6l-0.1,1.2h2.8l-0.1-1.5c-0.1-0.1,0-0.3,0-0.4L191.5,266z M183.3,276.2V275
				h-16.8v1.2H183.3z M183.4,274.2l0.1-0.5c0.5-1.5,0.2-3.1-0.8-4.3c-1.1-1.2-2.5-2.2-4-2.9l-3.9-2l-4,2c-1.5,0.8-2.8,1.7-4,2.9
				c-1,1.2-1.3,2.8-0.8,4.3l0.1,0.5H183.4z M188.8,277.2c0.2,0,0.4,0.2,0.4,0.4c0,0.2-0.2,0.4-0.4,0.4c0,0,0,0,0,0h-1.5l-0.2,5
				c0,0.2-0.2,0.4-0.4,0.4c-0.2,0-0.4-0.2-0.4-0.4c0,0,0,0,0,0l0,0l0.6-15.2l-1.3-2l0,0c-0.1-0.1-0.1-0.1-0.1-0.2v-3.9H185
				c-0.2,0-0.4-0.2-0.4-0.4c0-0.2,0.2-0.4,0.4-0.4h2.3l0.2-4.8c0-0.4,0.2-0.7,0.4-1c0.2-0.2,0.4-0.3,0.6-0.4v-2
				c0-0.2,0.2-0.4,0.4-0.4l0,0c0.2,0,0.4,0.2,0.4,0.4l0,0v2c0.6,0.2,1,0.7,1,1.3l0.2,4.8h2.3c0.2,0,0.4,0.2,0.4,0.4
				c0,0.2-0.2,0.4-0.4,0.4h-0.3v3.8l0,0l-1.3,2.1l0.1,3.2c0,0.2-0.2,0.4-0.4,0.4l0,0c-0.2,0-0.4-0.2-0.4-0.4l0,0v-0.8h-2.9l-0.2,5.1
				h1.4c0.2,0,0.4,0.2,0.4,0.4c0,0.2-0.2,0.4-0.4,0.4h-1.4l-0.1,1.2L188.8,277.2z M189.1,255.5L189.1,255.5c-0.3,0-0.6,0.3-0.6,0.6
				v0.1l-0.2,4.6h1.6l-0.2-4.7c0-0.2-0.1-0.3-0.2-0.4C189.5,255.6,189.3,255.5,189.1,255.5z M190.3,262.8c0-0.2,0.2-0.4,0.4-0.4l0,0
				c0.2,0,0.4,0.2,0.4,0.4l0,0v1.4c0,0.2-0.2,0.4-0.4,0.4c-0.2,0-0.4-0.2-0.4-0.4l0,0V262.8z M188.7,262.8c0-0.2,0.2-0.4,0.4-0.4
				l0,0c0.2,0,0.4,0.2,0.4,0.4l0,0v1.4c0,0.2-0.2,0.4-0.4,0.4l0,0c-0.2,0-0.4-0.2-0.4-0.4V262.8z M187.1,262.8
				c0-0.2,0.2-0.4,0.4-0.4c0.2,0,0.4,0.2,0.4,0.4v1.4c0,0.2-0.2,0.4-0.4,0.4c-0.2,0-0.4-0.2-0.4-0.4l0,0V262.8z M176.9,261.7v0.5h2
				v-1.5h-0.8v0.4c0,0.2-0.2,0.4-0.4,0.4s-0.4-0.2-0.4-0.4v-0.8l0,0v-0.5h-2v1.5h1.2C176.7,261.3,176.9,261.4,176.9,261.7
				C176.9,261.6,176.9,261.7,176.9,261.7z M171.8,268.4c-0.2,0.1-0.4,0-0.6-0.2c-0.1-0.2,0-0.4,0.2-0.6l0.4-0.2
				c0.2-0.1,0.4,0,0.6,0.2s0,0.4-0.2,0.6l0,0L171.8,268.4z M168.5,272.1c0,0.2-0.2,0.4-0.4,0.4c-0.2,0-0.4-0.2-0.4-0.4
				c-0.1-0.8,0.1-1.6,0.6-2.2c0.5-0.5,1.1-1,1.7-1.3c0.2-0.1,0.5,0,0.6,0.2l0,0c0.1,0.2,0.1,0.5-0.1,0.6l0,0
				c-0.6,0.2-1.1,0.6-1.5,1.1C168.6,270.9,168.4,271.5,168.5,272.1z M169.1,289.1l-0.8-0.4l-0.8,0.4c-0.3,0.2-0.6,0.4-0.8,0.6l0,0
				c-0.2,0.3-0.3,0.7-0.2,1v4.1h3.6v-4.1c0-0.3,0-0.7-0.2-1C169.7,289.5,169.4,289.3,169.1,289.1z M176.8,289.1l-0.8-0.4l-0.8,0.4
				c-0.3,0.2-0.6,0.4-0.8,0.6l0,0c-0.2,0.3-0.2,0.7-0.2,1v4.1h3.6v-4.1c0-0.3,0-0.7-0.2-1C177.4,289.5,177.1,289.3,176.8,289.1z
				 M184.5,289.1l-0.8-0.4l-0.8,0.4c-0.3,0.2-0.5,0.4-0.7,0.6l0,0c-0.2,0.3-0.2,0.7-0.2,1v4.1h3.6v-4.1c0-0.3,0-0.7-0.2-1
				C185.1,289.6,184.8,289.4,184.5,289.1z M192.3,289.1l-0.8-0.4l-0.8,0.4c-0.3,0.2-0.6,0.4-0.8,0.6l0,0c-0.2,0.3-0.3,0.7-0.2,1v4.1
				h3.6v-4.1c0-0.3,0-0.7-0.2-1C192.8,289.5,192.6,289.3,192.3,289.1z M179.2,265.6c0.2,0.1,0.3,0.3,0.1,0.5L179.2,265.6z"/>
		</g>
	</g>
</g>
</svg>
