<?xml version="1.0" encoding="utf-8"?>
<!-- Generator: Adobe Illustrator 23.1.0, SVG Export Plug-In . SVG Version: 6.00 Build 0)  -->
<svg version="1.1" id="Layer_1" xmlns="http://www.w3.org/2000/svg" xmlns:xlink="http://www.w3.org/1999/xlink" x="0px" y="0px"
	 viewBox="0 0 50 50" style="enable-background:new 0 0 50 50;" xml:space="preserve">
<g id="zadan_1_">
	<g>
		<path d="M49.5,27.5l-9.9-0.6v-6.4c0-0.1,0-0.2-0.1-0.3l-2-2.5c-0.1-0.1-0.3-0.2-0.4-0.2h-5.5l-2.2-2.2c-0.1-0.1-0.2-0.1-0.3-0.1
			v-3c0-0.3-0.2-0.5-0.5-0.5c-0.1-0.3-0.3-0.8-0.5-1c-0.2-0.3-0.7-0.6-1-0.7c-0.2-0.1-0.4-0.1-0.6-0.1V7.4c0-0.3-0.2-0.5-0.5-0.5
			c-0.3,0-0.5,0.2-0.5,0.5V10c-0.3,0.1-0.9,0.3-1.2,0.7c-0.2,0.2-0.4,0.7-0.5,1c0,0-0.1,0-0.1,0c0,0-0.1,0-0.1,0c0,0,0,0-0.1,0
			l-1.1,0.8c-0.1,0.1-0.2,0.3-0.2,0.4v3l-2.4,1.5h-2.1h0h0c-0.1,0-0.2,0-0.2,0.1l-4.7,2.2c-0.2,0.1-0.3,0.3-0.3,0.5v7.2c0,0,0,0,0,0
			l-4.3,1.2H0.5c-0.3,0-0.5,0.2-0.5,0.5v13.5c0,0.3,0.2,0.5,0.5,0.5s0.5-0.3,0.5-0.5V29.7h6.4v6.4c0,0.3,0.2,0.5,0.5,0.5
			c0.3,0,0.5-0.2,0.5-0.5v-6.5l3.3-0.9v9.5c0,0.3,0.2,0.5,0.5,0.5c0.3,0,0.5-0.2,0.5-0.5v-9.7h6.8h2.9v5.8c0,0.3,0.2,0.5,0.5,0.5
			c0.3,0,0.5-0.2,0.5-0.5v-5.9l2.1-0.8v10.1c0,0.3,0.2,0.5,0.5,0.5c0.3,0,0.5-0.2,0.5-0.5V27.3l22,1.3v9.1c0,0.3,0.2,0.5,0.5,0.5
			c0.3,0,0.5-0.2,0.5-0.5v-9.6C50,27.8,49.8,27.5,49.5,27.5z M38.5,20.7v6.2l-4.2-0.3v-2.5c0-0.7-0.2-1.4-0.5-2l-0.1-0.2
			c-0.3-0.5-0.6-0.9-1-1.3l-0.2-0.2c-0.6-0.5-1.3-0.9-2.1-1c-0.9-0.2-1.9-0.1-2.7,0.3l-0.3,0.1c-0.7,0.3-1.4,0.9-1.8,1.5l-0.1,0.1
			c-0.5,0.7-0.8,1.6-0.8,2.5v2.7l-1.1,0.4v-6c0-0.1,0-0.1,0-0.2c-0.1-0.3-0.2-0.5-0.3-0.6l0,0c-0.4-0.4-1.6-1.2-1.8-1.3
			c-0.2-0.1-0.4-0.1-0.6,0c-0.2,0.2-1.2,0.9-1.5,1.4c-0.1,0.2-0.2,0.4-0.3,0.7c0,0.1,0,0.1,0,0.2v6.2h-1.1v-8.9h13.2c0,0,0,0,0,0
			h5.5L38.5,20.7z M26.4,26.2L26.4,26.2C26.4,26.2,26.4,26.2,26.4,26.2c-0.1,0-0.1,0-0.2,0c0,0,0,0,0,0h0l0,0l-0.3,0.1v-2.3
			c0-0.7,0.2-1.3,0.6-1.9l0.1-0.1c0.3-0.5,0.8-0.9,1.4-1.2l0.2-0.1c0.6-0.3,1.4-0.4,2.1-0.2c0.6,0.1,1.1,0.4,1.5,0.8l0.2,0.2
			c0.3,0.3,0.6,0.6,0.7,1l0.1,0.2c0.2,0.5,0.4,1,0.4,1.5v2.4L26.4,26.2z M24.3,15.2v-2.4H28v2.4H24.3z M25.7,11.1
			c0.3-0.1,0.9-0.1,1,0c0.1,0.1,0.5,0.3,0.6,0.4c0,0,0.1,0.1,0.1,0.3h-2.5c0.1-0.1,0.1-0.3,0.1-0.3C25.1,11.3,25.5,11.1,25.7,11.1z
			 M23.9,16.3h4.8l1.3,1.2h-8.1L23.9,16.3z M17.1,18.9v8.6h-3.7v-6.9L17.1,18.9z M20.3,21.3c0-0.1,0.1-0.3,0.1-0.3
			c0.1-0.2,0.5-0.5,0.9-0.9c0.5,0.3,1.1,0.7,1.2,0.9c0,0,0.1,0.1,0.1,0.3v6.2h-2.4C20.3,27.4,20.3,21.3,20.3,21.3z"/>
		<path d="M37.2,23.4c0.3,0,0.5-0.2,0.5-0.5v-1.6c0-0.3-0.2-0.5-0.5-0.5c-0.3,0-0.5,0.2-0.5,0.5v1.6C36.7,23.2,36.9,23.4,37.2,23.4z
			"/>
	</g>
</g>
</svg>
