<?xml version="1.0" encoding="utf-8"?>
<!-- Generator: Adobe Illustrator 23.1.0, SVG Export Plug-In . SVG Version: 6.00 Build 0)  -->
<svg version="1.1" id="Layer_1" xmlns="http://www.w3.org/2000/svg" xmlns:xlink="http://www.w3.org/1999/xlink" x="0px" y="0px"
	 viewBox="0 0 50 50" style="enable-background:new 0 0 50 50;" xml:space="preserve">
<g id="zadan_2">
	<g>
		<path d="M49.9,8.6c-0.1-0.2,0.1-0.1-1,0c-0.4,0-0.8,0.1-1.3,0.2l0-0.5c0-0.2-0.1-0.4-0.4-0.4c-0.2,0-0.4,0.2-0.4,0.5l0,0.7
			c-0.2,0-0.4,0.1-0.5,0.2l0-0.6c0-0.2-0.2-0.5-0.4-0.4c-0.2,0-0.4,0.2-0.4,0.5l0,0.7c-0.1,0-0.3,0.1-0.4,0.2l0-0.5
			c0-0.2-0.2-0.5-0.4-0.4c-0.2,0-0.4,0.2-0.4,0.5l0,0.8c-0.2,0.1-0.4,0.2-0.6,0.3v-0.1c0-0.2-0.2-0.5-0.4-0.4
			c-0.2,0-0.4,0.2-0.4,0.5l0,0.7c-0.2,0.2-0.4,0.4-0.6,0.6l-0.1,0l0-0.5c0-0.2-0.2-0.4-0.4-0.4c0,0,0,0,0,0c-0.2,0-0.4,0.2-0.4,0.5
			l0,0.6l-0.4,0L41,11.1c0-0.2-0.2-0.4-0.5-0.4c-0.2,0-0.4,0.2-0.4,0.5l0.1,0.5l-0.2,0l-0.1-0.6c0-0.2-0.2-0.4-0.5-0.4
			c-0.2,0-0.4,0.2-0.4,0.5l0.1,0.6l-0.3,0l-0.1-0.6c0-0.2-0.2-0.4-0.5-0.4c-0.2,0-0.4,0.2-0.4,0.5L38,12l-0.3,0l-0.1-0.5
			c0-0.2-0.2-0.4-0.5-0.4c-0.2,0-0.4,0.2-0.4,0.5l0.1,0.5l-0.2,0l-0.1-0.5c0-0.2-0.2-0.4-0.5-0.4c-0.2,0-0.4,0.2-0.4,0.5l0.1,0.5
			l-0.4,0l-0.1-0.6c0-0.2-0.2-0.4-0.5-0.4c-0.2,0-0.4,0.2-0.4,0.5l0.1,0.6l-0.2,0l-0.1-0.6c0-0.2-0.2-0.4-0.5-0.4
			c-0.2,0-0.4,0.2-0.4,0.5l0.1,0.6l-0.3,0l-0.1-0.6c0-0.2-0.2-0.4-0.5-0.4c-0.2,0-0.4,0.2-0.4,0.5l0.1,0.6l-0.3,0L32,12.1
			c0-0.2-0.2-0.4-0.5-0.4c-0.2,0-0.4,0.2-0.4,0.5l0.1,0.6l-0.2,0L31,12.2c0-0.2-0.2-0.4-0.5-0.4c-0.2,0-0.4,0.2-0.4,0.5l0.1,0.6
			l-0.2,0l-0.1-0.5c0-0.2-0.2-0.4-0.5-0.4c-0.2,0-0.4,0.2-0.4,0.5l0.1,0.6l-0.3,0l-0.1-0.5c0-0.2-0.2-0.4-0.5-0.4
			c-0.2,0-0.4,0.2-0.4,0.5l0.1,0.5l-0.3,0l-0.1-0.5c0-0.2-0.2-0.4-0.5-0.4c-0.2,0-0.4,0.2-0.4,0.5l0.1,0.5h-0.3l-0.1-0.5
			c0-0.2-0.2-0.4-0.5-0.4c-0.2,0-0.4,0.2-0.4,0.5l0.1,0.5l-0.9,0.1l0-0.7c0,0,0-0.1,0-0.2c0,0,0,0,0-0.1l0-0.9
			c0-0.2-0.2-0.5-0.4-0.5c-0.2,0-0.4,0.2-0.4,0.4l0,0.2c0,0,0,0-0.1,0l0-0.8c0-0.2-0.2-0.5-0.4-0.5c-0.2,0-0.4,0.2-0.4,0.4l0,0.4
			c-0.1,0-0.1-0.1-0.2-0.1c0,0-0.1,0-0.1,0l0-0.7c0-0.2-0.2-0.5-0.4-0.5c-0.2,0-0.4,0.2-0.4,0.4l0,0.4c-0.1,0-0.2-0.1-0.4-0.1l0-0.5
			c0-0.2-0.2-0.5-0.4-0.5c-0.2,0-0.4,0.2-0.4,0.4l0,0.4c-0.1,0-0.2,0-0.3,0l0-0.6c0-0.2-0.2-0.5-0.4-0.5c-0.2,0-0.4,0.2-0.4,0.4
			l0,0.6c-0.1,0-0.2,0-0.3,0l0-0.6c0-0.2-0.2-0.5-0.4-0.5c-0.2,0-0.4,0.2-0.4,0.4l0,0.6c-0.1,0-0.2,0-0.2,0l0-0.6
			c0-0.2-0.2-0.5-0.4-0.5c-0.2,0-0.4,0.2-0.4,0.4l0,0.6c-0.1,0-0.2,0-0.3,0l0-0.6c0-0.2-0.2-0.5-0.4-0.5c-0.2,0-0.4,0.2-0.4,0.4
			l0,0.7c-0.1,0-0.2,0-0.3,0l0-0.5c0-0.2-0.2-0.5-0.4-0.5c-0.2,0-0.4,0.2-0.4,0.4l0,0.6c0,0,0,0-0.1,0v-0.3c0-0.2-0.2-0.5-0.4-0.5
			l0,0c-0.2,0-0.4,0.2-0.4,0.5l0,1.1l-0.9,7.2l-0.7,0.1v-0.5c0-0.2-0.2-0.5-0.4-0.5s-0.4,0.2-0.4,0.5V19l-0.4,0.1l0-0.4
			c0-0.2-0.2-0.5-0.4-0.5c-0.2,0-0.4,0.2-0.4,0.4l0,0.6l-0.3,0h-0.1l0-0.5c0-0.2-0.2-0.5-0.4-0.5c-0.2,0-0.4,0.2-0.4,0.4l0,0.5
			l-0.3,0l0-0.5c0-0.2-0.2-0.5-0.4-0.5c-0.2,0-0.4,0.2-0.4,0.4l0,0.5l-0.2,0l0-0.6c0-0.2-0.2-0.5-0.4-0.5c-0.2,0-0.4,0.2-0.4,0.4
			l0,0.6l-0.4,0l0-0.5c0-0.2-0.2-0.5-0.4-0.5c-0.2,0-0.4,0.2-0.4,0.4l0,0.5l-0.2,0l0-0.5c0-0.2-0.2-0.5-0.4-0.5
			c-0.2,0-0.4,0.2-0.4,0.4l0,0.7C5,19.4,4.8,19.7,4.7,20L0,39.9c-0.1,0.2,0.1,0.5,0.3,0.6c0,0,0.1,0,0.1,0c0.2,0,0.4-0.1,0.4-0.3
			l4.7-19.9c0-0.2,0.2-0.3,0.4-0.3l2,0.1l0,0l0,0l1,0.1l0,0l0,0l1.2,0.1L9.3,38.4c0,0.2,0.2,0.5,0.4,0.5c0.2,0,0.4-0.2,0.4-0.4
			l0.3-7.2c1-1.3,1.7-1.8,2-2c0.1,0,0.1-0.1,0.1-0.1c1,0.4,1.3,0.6,1.6,0.8l0.1,0.1c0,0,0.1,0,0.1,0.1l0.4,0.8l-2,10.8
			c0,0.2,0.1,0.5,0.3,0.5c0,0,0.1,0,0.1,0c0.2,0,0.4-0.2,0.4-0.4L17.9,19l1-0.1h0c0,0,0,0,0,0l1.3-0.1c0,0,0,0,0,0c0,0,0,0,0,0
			l0.4,0l6.4,1.1l0.7,0l0,0h0l1.1,0l0,0h0l1.2,0l0,0l0,0l1.3,0.1l0,0c0,0,0,0,0,0l1.1,0l0,0c0,0,0,0,0,0l1.1,0l0,0l0,0l1.1,0l0,0
			c0,0,0,0,0,0l1.1,0l0,0h0l1.2,0.1l0,0h0l1.1,0l0,0h0l1.1,0l0,0h0l3.4,0.2l0,0l0,0l0.9,0l-0.3,10.1c0,0.2,0.2,0.5,0.4,0.5
			c0.2,0,0.4-0.2,0.4-0.4l0.4-10.5c0-0.2-0.2-0.5-0.4-0.5l-0.9,0l0-0.7c0-0.2-0.2-0.5-0.4-0.5c-0.3,0-0.4,0.2-0.4,0.4l0,0.7l-0.4,0
			l0-0.6c0-0.2-0.2-0.5-0.4-0.5c0,0,0,0,0,0c-0.2,0-0.4,0.2-0.4,0.4l0,0.6l-0.2,0l0-0.7c0-0.2-0.2-0.5-0.4-0.5
			c-0.3,0-0.4,0.2-0.4,0.4l0,0.7l-0.3,0l0-0.7c0-0.2-0.2-0.5-0.4-0.5c0,0,0,0,0,0c-0.2,0-0.4,0.2-0.4,0.4l0,0.6l-0.3,0l0-0.6
			c0-0.2-0.2-0.5-0.4-0.5c-0.3,0-0.4,0.2-0.4,0.4l0,0.6l-0.2,0l0-0.6c0-0.2-0.2-0.5-0.4-0.5c0,0,0,0,0,0c-0.2,0-0.4,0.2-0.4,0.4
			l0,0.6l-0.4,0l0-0.6c0-0.2-0.2-0.5-0.4-0.5c-0.2,0-0.4,0.2-0.4,0.4l0,0.6l-0.2,0l0-0.6c0-0.2-0.2-0.5-0.4-0.5
			c-0.2,0-0.4,0.2-0.4,0.4l0,0.6l-0.3,0l0-0.6c0-0.2-0.2-0.5-0.4-0.5c0,0,0,0,0,0c-0.2,0-0.4,0.2-0.4,0.4l0,0.6l-0.3,0l0-0.6
			c0-0.2-0.2-0.5-0.4-0.5c0,0,0,0,0,0c-0.2,0-0.4,0.2-0.4,0.4l0,0.6l-0.2,0l0-0.6c0-0.2-0.2-0.5-0.4-0.5c-0.3,0-0.4,0.2-0.4,0.4
			l0,0.6l-0.5,0l0-0.6c0-0.2-0.2-0.5-0.4-0.5c-0.2,0-0.4,0.2-0.4,0.4l0,0.6l-0.4,0l0-0.6c0-0.2-0.2-0.5-0.4-0.5c0,0,0,0,0,0
			c-0.2,0-0.4,0.2-0.4,0.4l0,0.6l-0.2,0l0-0.6c0-0.2-0.2-0.5-0.4-0.5c0,0,0,0,0,0c-0.2,0-0.4,0.2-0.4,0.4l0,0.6l-0.2,0l-0.1,0l0-0.6
			c0-0.2-0.2-0.5-0.4-0.5c-0.2,0-0.4,0.2-0.4,0.4l0,0.5l-0.3,0l0-0.6c0-0.2-0.2-0.5-0.4-0.5c-0.2,0-0.4,0.2-0.4,0.4l0,0.5l-0.5-0.1
			l0.1-4.1l1.4-0.2c0,0,0,0,0,0c0,0,0,0,0,0c0,0,0,0,0.1,0l1.1-0.1c0,0,0,0,0,0c0,0,0,0,0,0c0,0,0,0,0.1,0l1-0.1c0,0,0,0,0,0
			c0,0,0,0,0,0c0,0,0,0,0.1,0l1-0.1c0,0,0,0,0,0c0,0,0,0,0,0c0,0,0,0,0.1,0l0.9-0.1c0,0,0,0,0,0c0,0,0,0,0,0c0,0,0,0,0.1,0l0.9-0.1
			c0,0,0,0,0,0c0,0,0,0,0,0c0,0,0,0,0.1,0l1-0.1c0,0,0,0,0,0c0,0,0,0,0,0c0,0,0,0,0.1,0l1-0.1c0,0,0,0,0,0c0,0,0,0,0,0
			c0,0,0,0,0.1,0l1-0.1c0,0,0,0,0,0c0,0,0,0,0,0c0,0,0,0,0.1,0l1.1-0.1c0,0,0,0,0,0c0,0,0,0,0,0c0,0,0,0,0.1,0l0.9-0.1c0,0,0,0,0,0
			c0,0,0,0,0,0c0,0,0,0,0.1,0l1-0.1c0,0,0,0,0,0c0,0,0,0,0,0c0,0,0,0,0.1,0l1-0.1c0,0,0,0,0,0c0,0,0,0,0,0c0,0,0,0,0.1,0l2.1-0.3
			c0,0,0,0,0,0c0,0,0,0,0,0c0,0,0,0,0.1,0l0.6-0.1c0.1,0,0.2,0,0.2-0.1c0.2-0.2,0.5-0.5,0.7-0.7c0.1,0,0.1-0.1,0.2-0.2
			c0,0,0.1-0.1,0.1-0.1c1.2-0.9,3.7-1.6,5.3-1.7c0.6,0,0.8,0,0.8,0L50,9.2l0,0L49.9,8.6z M14.6,29.2c-0.3-0.2-0.7-0.5-1.9-0.9
			c-0.2-0.1-0.4-0.1-0.6,0.1c0,0-0.1,0.1-0.1,0.1c-0.3,0.2-0.8,0.5-1.5,1.3l0.4-9.6l6.1-1.1l-1.9,10.5C15,29.4,14.9,29.3,14.6,29.2z
			 M23.5,18.4v-0.6c0-0.2-0.2-0.5-0.4-0.5c-0.2,0-0.4,0.2-0.4,0.5v0.5L22,18.2v-0.6c0-0.2-0.2-0.5-0.4-0.5c-0.2,0-0.4,0.2-0.4,0.5
			V18l-0.4-0.1h0v-0.5c0-0.2-0.2-0.5-0.4-0.5c-0.2,0-0.4,0.2-0.4,0.5V18l-0.6,0v-0.6c0-0.2-0.2-0.5-0.4-0.5c-0.2,0-0.4,0.2-0.4,0.5
			v0.6l-0.6,0v-0.5c0-0.2-0.2-0.5-0.4-0.5c-0.2,0-0.4,0.2-0.4,0.5v0.6l-0.3,0.1v-0.4c0-0.2-0.2-0.5-0.4-0.5s-0.4,0.2-0.4,0.5v0.6
			l-0.2,0V18c0-0.2-0.2-0.5-0.4-0.5s-0.4,0.2-0.4,0.5v0.6l-0.4,0.1l0.8-6.8l0.3-0.2c0.1,0,0.3,0,0.5-0.1c0.5-0.1,1.2-0.2,1.6-0.1
			c0,0,1.9,0,3.5,0.2c0.1,0,0.1,0,0.2,0h0c0,0,0,0,0,0c0.5,0.1,1,0.2,1.3,0.4c0.4,0.2,1.1,0.6,1.4,0.8l-0.2,5.4L23.5,18.4z"/>
		<path d="M13.2,22.9c-0.4,0-1.1,0.5-1.4,0.8c-0.1,0.1-0.1,0.2-0.1,0.3l-0.2,3.4c0,0.1,0,0.2,0.1,0.3c0.1,0.1,0.2,0.1,0.3,0.1h2.1
			c0.2,0,0.4-0.2,0.4-0.4l0.4-3c0-0.1,0-0.3-0.1-0.4C14.3,23.6,13.7,22.9,13.2,22.9z M13.6,26.9h-1.3l0.2-2.7
			c0.3-0.2,0.6-0.4,0.7-0.5c0.1,0,0.5,0.4,0.8,0.7L13.6,26.9z"/>
		<path d="M26.7,23.8c-0.2,0-0.4,0.2-0.4,0.5l0.5,13.5c0,0.2,0.2,0.4,0.4,0.4c0,0,0,0,0,0c0.2,0,0.4-0.2,0.4-0.5l-0.5-13.5
			C27.1,24,26.9,23.8,26.7,23.8z"/>
		<path d="M6.7,20.9c-0.2,0-0.4,0.2-0.4,0.5v0.8c0,0.2,0.2,0.5,0.4,0.5c0.2,0,0.4-0.2,0.4-0.5v-0.8C7.1,21.1,6.9,20.9,6.7,20.9z"/>
		<path d="M19.2,20.1c-0.2,0-0.4,0.1-0.5,0.4l-0.2,1c0,0.2,0.1,0.5,0.3,0.5c0,0,0.1,0,0.1,0c0.2,0,0.4-0.2,0.4-0.4l0.2-1
			C19.5,20.4,19.4,20.2,19.2,20.1z"/>
		<path d="M22.1,20.1c-0.2,0-0.4,0.2-0.4,0.5v1c0,0.2,0.2,0.5,0.4,0.5c0.2,0,0.4-0.2,0.4-0.5v-1C22.6,20.3,22.4,20.1,22.1,20.1z"/>
		<path d="M25.1,20.6c-0.2,0-0.4,0.2-0.4,0.5v0.7c0,0.2,0.2,0.5,0.4,0.5c0.2,0,0.4-0.2,0.4-0.5v-0.7C25.5,20.8,25.3,20.6,25.1,20.6z
			"/>
		<path d="M27.6,20.9c-0.2,0-0.4,0.2-0.4,0.5V22c0,0.2,0.2,0.5,0.4,0.5c0.2,0,0.4-0.2,0.4-0.5v-0.6C28,21.1,27.8,20.9,27.6,20.9z"/>
		<path d="M8.3,25.4c-0.2,0-0.4,0.2-0.4,0.5v1.2c0,0.2,0.2,0.5,0.4,0.5c0.2,0,0.4-0.2,0.4-0.5v-1.2C8.7,25.6,8.5,25.4,8.3,25.4z"/>
		<path d="M17,14.3c-0.2,0-0.4,0.2-0.4,0.5v1.1c0,0.2,0.2,0.5,0.4,0.5c0.2,0,0.4-0.2,0.4-0.5v-1.1C17.4,14.5,17.2,14.3,17,14.3z"/>
	</g>
</g>
</svg>
