<?xml version="1.0" encoding="utf-8"?>
<!-- Generator: Adobe Illustrator 23.1.0, SVG Export Plug-In . SVG Version: 6.00 Build 0)  -->
<svg version="1.1" id="Layer_1" xmlns="http://www.w3.org/2000/svg" xmlns:xlink="http://www.w3.org/1999/xlink" x="0px" y="0px"
	 viewBox="0 0 50 50" style="enable-background:new 0 0 50 50;" xml:space="preserve">
<path d="M6.9,45.6c-0.2,0-0.4-0.2-0.4-0.4s0.2-0.4,0.4-0.4h2.1c0.2,0,0.4,0.2,0.4,0.4s-0.2,0.4-0.4,0.4H6.9z M41.5,41h3.7
	c0.2,0,0.4,0.2,0.4,0.4v6.3c0,0.2-0.2,0.4-0.4,0.4H40l0,0l0,0h-8.9l0,0l0,0H4.8c-0.2,0-0.4-0.2-0.4-0.4v-4l0,0l0,0v-2.3
	c0-0.2,0.2-0.4,0.4-0.4h5.3l1.7-29.7c0-0.2,0.2-0.3,0.4-0.3s0.3,0.2,0.3,0.4L10.8,41h2.7L14,15h-0.6c-0.2,0-0.4-0.2-0.4-0.4
	c0-0.2,0.2-0.4,0.4-0.4H14l0.1-2.8h-0.9c-0.2,0-0.4-0.2-0.4-0.4c0-0.1,0-0.2,0.1-0.2l3.5-6.3c1-1.7,1.7-2.6,2.4-2.6
	c0.7,0,1.4,0.9,2.4,2.8l3.5,6.3c0.1,0.1,0.1,0.1,0.1,0.2c0,0.2-0.2,0.4-0.4,0.4h-0.9l0.1,2.8h0.7c0.2,0,0.3,0.2,0.3,0.4
	c0,0.2-0.2,0.4-0.3,0.4h-0.6l0.5,26h2.7l-1.7-29.7c0-0.2,0.2-0.4,0.3-0.4c0.2,0,0.4,0.2,0.4,0.3l1.7,29.7h3.7l0,0l0,0H40l0,0h1.5
	C41.5,41,41.5,41,41.5,41z M39.7,47.3v-0.9h-7.2l0,0l0,0h-0.7c-0.1,0-0.1,0-0.2,0.1c-0.1,0.1-0.1,0.1-0.1,0.2l0,0v0.6L39.7,47.3
	L39.7,47.3z M39.7,45.7v-0.9h-2.3c-0.2,0-0.4-0.2-0.4-0.4s0.2-0.4,0.4-0.4h2.3v-0.9h-4.6l0,0l0,0h-0.7c-0.1,0-0.1,0-0.2,0.1
	c-0.1,0.1-0.1,0.1-0.1,0.2v0.6h1.2c0.2,0,0.4,0.2,0.4,0.4c0,0.2-0.2,0.4-0.4,0.4h-1.5l0,0l0,0h-0.7c-0.1,0-0.1,0-0.2,0.1
	c-0.1,0.1-0.1,0.1-0.1,0.2v0.6C32.8,45.7,39.7,45.7,39.7,45.7z M39.7,42.5v-0.9h-4.1c-0.1,0-0.1,0.1-0.2,0.1
	c-0.1,0.1-0.1,0.1-0.1,0.2v0.6H39.7z M44.8,41.6h-3.3l0,0h-1.1v1.2l0,0l0,0v1.6l0,0l0,0V46l0,0l0,0v1.2h4.4
	C44.8,47.3,44.8,41.6,44.8,41.6z M14.2,41h0.6l0.6-29.3h-0.6l-0.1,3.1l0,0v0.1C14.7,14.7,14.2,41,14.2,41z M15.5,41h2.2V15H16l0,0
	C16,15,15.5,41,15.5,41z M18.4,41h0.7V14.7l0,0l0,0v-3.1h-0.7v3.1l0,0l0,0V41z M19.8,41h2.2l-0.5-26l0,0h-1.7V41z M22.8,41h0.6
	l-0.5-26.2v-0.1v-0.1l-0.1-3h-0.6L22.8,41z M31.5,41.6v4.1c0.1,0,0.2,0,0.2,0h0.4v-0.6c0-0.3,0.1-0.5,0.3-0.7
	c0.2-0.2,0.4-0.3,0.6-0.3h0.4v-0.6c0-0.3,0.1-0.5,0.3-0.6s0.4-0.3,0.6-0.3h0.4v-0.6c0-0.1,0-0.2,0.1-0.3
	C34.8,41.6,31.5,41.6,31.5,41.6z M30.8,41.6H19.5l0,0l0,0h-1.4l0,0l0,0H5.2v1.7H7c0.2,0,0.4,0.2,0.4,0.4C7.4,43.9,7.2,44,7,44H5.2
	v3.3h25.6v-0.6l0,0L30.8,41.6L30.8,41.6z M21.6,14.3L21.6,14.3l-0.1-2.8h-1.7v2.8C19.8,14.3,21.6,14.3,21.6,14.3z M16.1,11.6
	L16,14.4l0,0h1.7v-2.8C17.7,11.6,16.1,11.6,16.1,11.6z M13.8,10.9h10.1l-3.3-5.8c-0.9-1.6-1.4-2.4-1.8-2.4c-0.4,0-0.9,0.8-1.8,2.4
	C17,5.1,13.8,10.9,13.8,10.9z M26.8,43.3c0.2,0,0.4,0.2,0.4,0.4c0,0.2-0.2,0.4-0.4,0.4h-2.1c-0.2,0-0.4-0.2-0.4-0.4
	c0-0.2,0.2-0.4,0.4-0.4H26.8z M28.9,44.9c0.2,0,0.4,0.2,0.4,0.4s-0.2,0.4-0.4,0.4h-2.1c-0.2,0-0.4-0.2-0.4-0.4s0.2-0.4,0.4-0.4H28.9
	z M13.2,44.9c0.2,0,0.4,0.2,0.4,0.4s-0.2,0.4-0.4,0.4h-2.1c-0.2,0-0.4-0.2-0.4-0.4s0.2-0.4,0.4-0.4H13.2z M9,44
	c-0.2,0-0.4-0.2-0.4-0.4c0-0.2,0.2-0.4,0.4-0.4h2.1c0.2,0,0.4,0.2,0.4,0.4c0,0.2-0.2,0.4-0.4,0.4H9z"/>
</svg>
