<?xml version="1.0" encoding="utf-8"?>
<!-- Generator: Adobe Illustrator 23.1.0, SVG Export Plug-In . SVG Version: 6.00 Build 0)  -->
<svg version="1.1" id="Layer_1" xmlns="http://www.w3.org/2000/svg" xmlns:xlink="http://www.w3.org/1999/xlink" x="0px" y="0px"
	 viewBox="0 0 50 50" style="enable-background:new 0 0 50 50;" xml:space="preserve">
<g>
	<path d="M16.6,16.1l-0.5-0.3c-0.2-0.1-0.4-0.1-0.5,0l-0.5,0.3c-0.4,0.3-0.7,0.8-0.7,1.3v1.8c0,0.2,0.2,0.5,0.5,0.5h2
		c0.2,0,0.5-0.2,0.5-0.5v-1.8C17.3,16.9,17.1,16.4,16.6,16.1z M16.4,18.8h-1.1v-1.4c0-0.2,0.1-0.4,0.3-0.6l0.3-0.2l0.3,0.2
		c0.2,0.1,0.3,0.3,0.3,0.6V18.8z"/>
	<path d="M16.6,23l-0.5-0.3c-0.2-0.1-0.4-0.1-0.5,0L15.1,23c-0.4,0.3-0.7,0.8-0.7,1.3v1.8c0,0.2,0.2,0.5,0.5,0.5h2
		c0.2,0,0.5-0.2,0.5-0.5v-1.8C17.3,23.8,17.1,23.3,16.6,23z M16.4,25.7h-1.1v-1.4c0-0.2,0.1-0.4,0.3-0.6l0.3-0.2l0.3,0.2
		c0.2,0.1,0.3,0.3,0.3,0.6V25.7z"/>
	<path d="M16.6,29.9l-0.5-0.3c-0.2-0.1-0.4-0.1-0.5,0l-0.5,0.3c-0.4,0.3-0.7,0.8-0.7,1.3v1.8c0,0.2,0.2,0.5,0.5,0.5h2
		c0.2,0,0.5-0.2,0.5-0.5v-1.8C17.3,30.7,17.1,30.2,16.6,29.9z M16.4,32.6h-1.1v-1.4c0-0.2,0.1-0.4,0.3-0.6l0.3-0.2l0.3,0.2
		c0.2,0.1,0.3,0.3,0.3,0.6V32.6z"/>
	<path d="M16.6,36.8l-0.5-0.3c-0.2-0.1-0.4-0.1-0.5,0l-0.5,0.3c-0.4,0.3-0.7,0.8-0.7,1.3V40c0,0.2,0.2,0.5,0.5,0.5h2
		c0.2,0,0.5-0.2,0.5-0.5v-1.8C17.3,37.6,17.1,37.1,16.6,36.8z M16.4,39.5h-1.1v-1.4c0-0.2,0.1-0.4,0.3-0.6l0.3-0.2l0.3,0.2
		c0.2,0.1,0.3,0.3,0.3,0.6V39.5z"/>
	<path d="M34.9,16.1l-0.5-0.3c-0.2-0.1-0.4-0.1-0.5,0l-0.5,0.3c-0.4,0.3-0.7,0.8-0.7,1.3v1.8c0,0.2,0.2,0.5,0.5,0.5h2
		c0.2,0,0.5-0.2,0.5-0.5v-1.8C35.6,16.9,35.3,16.4,34.9,16.1z M34.7,18.8h-1.1v-1.4c0-0.2,0.1-0.4,0.3-0.6l0.3-0.2l0.3,0.2
		c0.2,0.1,0.3,0.3,0.3,0.6V18.8z"/>
	<path d="M34.9,23l-0.5-0.3c-0.2-0.1-0.4-0.1-0.5,0L33.4,23c-0.4,0.3-0.7,0.8-0.7,1.3v1.8c0,0.2,0.2,0.5,0.5,0.5h2
		c0.2,0,0.5-0.2,0.5-0.5v-1.8C35.6,23.8,35.3,23.3,34.9,23z M34.7,25.7h-1.1v-1.4c0-0.2,0.1-0.4,0.3-0.6l0.3-0.2l0.3,0.2
		c0.2,0.1,0.3,0.3,0.3,0.6V25.7z"/>
	<path d="M34.9,29.9l-0.5-0.3c-0.2-0.1-0.4-0.1-0.5,0l-0.5,0.3c-0.4,0.3-0.7,0.8-0.7,1.3v1.8c0,0.2,0.2,0.5,0.5,0.5h2
		c0.2,0,0.5-0.2,0.5-0.5v-1.8C35.6,30.7,35.3,30.2,34.9,29.9z M34.7,32.6h-1.1v-1.4c0-0.2,0.1-0.4,0.3-0.6l0.3-0.2l0.3,0.2
		c0.2,0.1,0.3,0.3,0.3,0.6V32.6z"/>
	<path d="M34.9,36.8l-0.5-0.3c-0.2-0.1-0.4-0.1-0.5,0l-0.5,0.3c-0.4,0.3-0.7,0.8-0.7,1.3V40c0,0.2,0.2,0.5,0.5,0.5h2
		c0.2,0,0.5-0.2,0.5-0.5v-1.8C35.6,37.6,35.3,37.1,34.9,36.8z M34.7,39.5h-1.1v-1.4c0-0.2,0.1-0.4,0.3-0.6l0.3-0.2l0.3,0.2
		c0.2,0.1,0.3,0.3,0.3,0.6V39.5z"/>
	<path d="M4.5,28.8h6.7c0.2,0,0.5-0.2,0.5-0.5v-4.7c0-0.8-0.4-1.6-1.1-2.1l-2.5-1.7c-0.2-0.1-0.3-0.1-0.5,0l-2.5,1.7
		C4.4,22,4,22.7,4,23.6v4.7C4,28.5,4.2,28.8,4.5,28.8z M4.9,23.6c0-0.5,0.3-1,0.7-1.3l2.2-1.5l2.2,1.5c0.4,0.3,0.7,0.8,0.7,1.3v4.3
		H4.9V23.6z"/>
	<path d="M47.5,18.1H37.2v-5.7c0-0.2-0.2-0.5-0.5-0.5h-5.2h-3V9.6l1.1-0.8c0.2-0.1,0.2-0.3,0.2-0.5C29.7,8.1,29.5,8,29.4,8h-1.3
		h-1.1l-1.6-2c-0.2-0.2-0.5-0.2-0.7,0l-1.6,2h-1.1h-1.3c-0.2,0-0.4,0.1-0.4,0.3c-0.1,0.2,0,0.4,0.2,0.5l1.1,0.8v2.3h-3h-5.2
		c-0.2,0-0.5,0.2-0.5,0.5v5.7H2.5c-0.2,0-0.5,0.2-0.5,0.5v25.3c0,0.2,0.2,0.5,0.5,0.5h2h6.7h2h5.2h3.1h6.9h3.1h5.2h2h6.7h2
		c0.2,0,0.5-0.2,0.5-0.5V18.5C48,18.3,47.8,18.1,47.5,18.1z M47.1,19v10.8h-9.9V19H47.1z M18.9,25.8v-1.6c0-1.2,0.6-2.3,1.7-2.9
		l4.4-2.5l4.4,2.5c1,0.6,1.7,1.7,1.7,2.9v1.6v5.8H18.9V25.8z M31.1,21.7c-0.3-0.4-0.7-0.8-1.2-1.1L25.2,18c-0.1-0.1-0.3-0.1-0.4,0
		l-4.6,2.6c-0.5,0.3-0.9,0.6-1.2,1.1v-8.8h3h6.2h3V21.7z M24.5,11.4V10h1v1.4H24.5z M25,6.9l0.8,1h-1.6L25,6.9z M22.4,8.9h0.9h3.4
		h0.9v3h-1.2c0,0,0,0,0,0V9.6c0-0.2-0.2-0.5-0.5-0.5h-1.9c-0.2,0-0.5,0.2-0.5,0.5v2.3c0,0,0,0,0,0h-1.2V8.9z M12.8,19v10.8H2.9V19
		H12.8z M2.9,30.7h9.9v12.6h-1.1v-7.9c0-0.8-0.4-1.6-1.1-2.1l-2.5-1.7c-0.2-0.1-0.3-0.1-0.5,0l-2.5,1.7C4.4,33.8,4,34.6,4,35.4v7.9
		H2.9V30.7z M4.9,43.3v-7.9c0-0.5,0.3-1,0.7-1.3l2.2-1.5l2.2,1.5c0.4,0.3,0.7,0.8,0.7,1.3v7.9H4.9z M13.7,18.5v-5.7H18v11.4v1.6
		v17.5h-4.3V18.5z M18.9,32.5h12.2v10.8h-2.2v-6.5c0-0.9-0.5-1.7-1.2-2.1l-2.5-1.4c-0.1-0.1-0.3-0.1-0.4,0l-2.5,1.4
		c-0.8,0.4-1.2,1.2-1.2,2.1v6.5h-2.2V32.5z M22,43.3v-6.5c0-0.6,0.3-1.1,0.8-1.3l2.2-1.3l2.2,1.3c0.5,0.3,0.8,0.8,0.8,1.3v6.5H22z
		 M32,25.8v-1.6V12.8h4.3v5.7v24.8H32V25.8z M39.2,43.3v-7.9c0-0.5,0.3-1,0.7-1.3l2.2-1.5l2.2,1.5c0.4,0.3,0.7,0.8,0.7,1.3v7.9H39.2
		z M46,43.3v-7.9c0-0.8-0.4-1.6-1.1-2.1l-2.5-1.7c-0.2-0.1-0.3-0.1-0.5,0l-2.5,1.7c-0.7,0.5-1.1,1.2-1.1,2.1v7.9h-1.1V30.7h9.9v12.6
		H46z"/>
	<path d="M38.8,28.8h6.7c0.2,0,0.5-0.2,0.5-0.5v-4.7c0-0.8-0.4-1.6-1.1-2.1l-2.5-1.7c-0.2-0.1-0.3-0.1-0.5,0l-2.5,1.7
		c-0.7,0.5-1.1,1.2-1.1,2.1v4.7C38.3,28.5,38.5,28.8,38.8,28.8z M39.2,23.6c0-0.5,0.3-1,0.7-1.3l2.2-1.5l2.2,1.5
		c0.4,0.3,0.7,0.8,0.7,1.3v4.3h-5.8V23.6z"/>
</g>
</svg>
