<?xml version="1.0" encoding="utf-8"?>
<!-- Generator: Adobe Illustrator 23.1.0, SVG Export Plug-In . SVG Version: 6.00 Build 0)  -->
<svg version="1.1" id="Layer_1" xmlns="http://www.w3.org/2000/svg" xmlns:xlink="http://www.w3.org/1999/xlink" x="0px" y="0px"
	 viewBox="0 0 50 50" style="enable-background:new 0 0 50 50;" xml:space="preserve">
<g>
	<path d="M25,14.9c-0.4,0-0.8,0.4-0.8,0.8v2.4h1.6v-2.4C25.8,15.3,25.4,14.9,25,14.9z"/>
	<rect x="24.2" y="19.4" width="1.6" height="3.2"/>
	<rect x="24.2" y="23.8" width="1.6" height="3.2"/>
	<rect x="24.2" y="28.2" width="1.6" height="3.2"/>
	<path d="M26.7,35.9c0-0.9-0.8-1.7-1.7-1.7c-0.9,0-1.7,0.8-1.7,1.7v5.3h3.4V35.9z M25.8,35.9v4.5h-1.6v-4.5c0-0.5,0.4-0.8,0.8-0.8
		C25.5,35.1,25.8,35.4,25.8,35.9z"/>
	<path d="M12.9,27.6c0-0.2-0.1-0.4-0.2-0.6c-0.2-0.2-0.4-0.2-0.6-0.2c0,0,0,0,0,0c-0.4,0-0.8,0.4-0.8,0.8v3.9h1.6L12.9,27.6z"/>
	<path d="M17.4,27.6c0-0.4-0.4-0.8-0.8-0.8s-0.8,0.4-0.8,0.8v3.9h1.6L17.4,27.6z"/>
	<rect x="11.2" y="33.4" width="1.6" height="4.7"/>
	<rect x="15.7" y="33.4" width="1.6" height="4.7"/>
	<rect x="11.2" y="40" width="1.6" height="4.7"/>
	<rect x="15.7" y="40" width="1.6" height="4.7"/>
	<path d="M34.3,27.6c0-0.2-0.1-0.4-0.2-0.6c-0.2-0.2-0.4-0.2-0.6-0.2c0,0,0,0,0,0c-0.4,0-0.8,0.4-0.8,0.8v3.9h1.6L34.3,27.6z"/>
	<path d="M38.8,27.6c0-0.4-0.4-0.8-0.8-0.8c-0.4,0-0.8,0.4-0.8,0.8v3.9h1.6L38.8,27.6z"/>
	<rect x="32.6" y="33.4" width="1.6" height="4.7"/>
	<rect x="37.1" y="33.4" width="1.6" height="4.7"/>
	<rect x="32.6" y="40" width="1.6" height="4.7"/>
	<rect x="37.1" y="40" width="1.6" height="4.7"/>
	<path d="M6.9,34.7c0-1.2-1-2.2-2.2-2.2H4.4c-1.2,0-2.2,1-2.2,2.2v3h4.8V34.7z M4.9,33.4C5.5,33.5,6,34,6,34.7v2.2H4.9V33.4z
		 M4.1,33.4v3.5H3v-2.2C3,34,3.5,33.5,4.1,33.4z"/>
	<path d="M6.9,44.6v-3c0-1.2-1-2.2-2.2-2.2H4.4c-1.2,0-2.2,1-2.2,2.2v3H6.9z M6,43.8H4.9v-3.5C5.5,40.4,6,40.9,6,41.6V43.8z
		 M4.1,40.3v3.5H3v-2.2C3,40.9,3.5,40.4,4.1,40.3z"/>
	<path d="M45.6,32.4h-0.3c-1.2,0-2.2,1-2.2,2.2v3h4.8v-3C47.9,33.4,46.9,32.4,45.6,32.4z M45.9,33.4c0.6,0.1,1.1,0.7,1.1,1.3v2.2
		h-1.1V33.4z M45.1,33.4v3.5H44v-2.2C44,34,44.5,33.5,45.1,33.4z"/>
	<path d="M45.6,39.3h-0.3c-1.2,0-2.2,1-2.2,2.2v3h4.8v-3C47.9,40.3,46.9,39.3,45.6,39.3z M45.9,40.3c0.6,0.1,1.1,0.7,1.1,1.3v2.2
		h-1.1V40.3z M45.1,40.3v3.5H44v-2.2C44,40.9,44.5,40.4,45.1,40.3z"/>
	<path d="M50,46.8V32v-2v-0.9v-1.3h-2.2v1.3h-6v-3.3v-2.2h0v-2.2h-2.2v1.3h-9.3v-8.7H31v-0.9h-0.6V8.6V7.5h-2.8v1.1H27V7h0.1h0.2
		V6.1h-0.5c-0.2-0.6-0.7-1.1-1.5-1.4V4.3h0.7h0c0.3,0,0.6-0.3,0.6-0.6V3.1c0-0.3-0.3-0.6-0.6-0.6h-0.7V2.3h-0.9v0.2v1.8v0.3
		c-0.7,0.3-1.2,0.8-1.5,1.4h-0.5V7h0.2H23v1.6h-0.6V7.5h-2.8v1.1v4.5H19v0.9h0.6v8.7h-9.3v-1.3H8.1v1.3v0.9v2.2v3.3h-6v-1.3H0v1.3
		V30v2v14.8v0.9v0h8.1H9h10.6h0.9h1.9h5.2h1.9h0.9H41h0.9H50v0V46.8z M9,22.2h0.4v0.4H9V22.2z M25.4,3.5V3.4h0.5v0.1H25.4z M0.9,30
		h1.3v0h6v1.2H0.9V30z M1.3,28.6v0.4H0.9v-0.4H1.3z M20.5,13.9h1.1v18.9h-1.1v-7v-3.1V13.9z M21.5,8.3v0.3h-1.1V8.3H21.5z M24.4,9.5
		c-0.8,0.2-1.3,1-1.3,1.8c0,0.8,0.6,1.6,1.3,1.8h-2V9.5H24.4z M29.5,8.3v0.3h-1.1V8.3H29.5z M29.5,13.1h-1.1V9.5h1.1V13.1z
		 M25.1,8.6h-0.2V7h0.2V8.6z M25,10.7l-0.3-0.3c-0.1-0.1-0.2-0.1-0.3-0.1c0.2-0.1,0.3-0.1,0.5-0.1c0.2,0,0.4,0.1,0.5,0.1L25,10.7z
		 M24.1,10.8c0,0.1,0,0.2,0.1,0.3l0.8,0.7l1-0.7c0,0.1,0,0.1,0,0.2c0,0.6-0.5,1-1,1s-1-0.5-1-1C24,11.1,24,11,24.1,10.8z M25,43.4
		c-0.6,0-1,0.5-1,1v2.4h-1.6V33.7h5.2v13.2H26v-2.4C26,43.9,25.6,43.4,25,43.4z M22.4,32.8V13.9h5.2v18.9H22.4z M20.5,33.7h1.1v13.2
		h-1.1V33.7z M28.5,46.8V33.7h1.1v13.2H28.5z M9,24.9l0-1.4h10.6v1.4H9z M41.9,46.8V32h7.3v14.8H41.9z M49.1,31.1h-7.3v-1.2h6h1.3
		V31.1z M41,32v14.8H30.4V33.6v-0.9v-7H41v3.3V32z M30.4,24.9v-1.4H41v1.4H30.4z M29.5,25.7v7h-1.1V13.9h1.1v8.7V25.7z M27.6,13.1
		h-2c0.8-0.2,1.3-1,1.3-1.8c0-0.8-0.6-1.6-1.3-1.8h2V13.1z M26,8.6V7h0.2v1.6H26z M24.1,6.1c0.2-0.3,0.5-0.5,0.9-0.7
		c0.4,0.2,0.8,0.4,1,0.7H24.1z M24,7v1.6h-0.2V7H24z M21.5,9.5v3.6h-1.1V9.5H21.5z M19.6,25.7v7v0.9v13.2H9V32v-2.9h0l0-3.3H19.6z
		 M8.1,32v14.8H0.9V32H8.1z M48.7,28.6h0.4v0.4h-0.4V28.6z M40.6,22.2H41v0.4h-0.4V22.2z"/>
</g>
</svg>
