<?xml version="1.0" encoding="utf-8"?>
<!-- Generator: Adobe Illustrator 23.1.0, SVG Export Plug-In . SVG Version: 6.00 Build 0)  -->
<svg version="1.1" id="Layer_1" xmlns="http://www.w3.org/2000/svg" xmlns:xlink="http://www.w3.org/1999/xlink" x="0px" y="0px"
	 viewBox="0 0 50 50" style="enable-background:new 0 0 50 50;" xml:space="preserve">
<g>
	<path d="M49.5,46.6h-4v-1.9c0-0.3-0.2-0.5-0.5-0.5h-1.9v-10c0-0.1,0-0.3-0.1-0.3L41.2,32c0,0,0,0,0,0c0,0-0.1-0.1-0.1-0.1
		c0,0,0,0,0,0c0,0,0,0-0.1,0c0,0-0.1,0-0.1,0c0,0,0,0,0,0h-4.3V29c0-0.2-0.2-0.5-0.4-0.5l-0.7-0.1v-2.1c0-0.3-0.2-0.5-0.4-0.5
		l-0.7-0.1v-2.2c0-0.3-0.2-0.5-0.4-0.5L33,23v-2.4c0-0.3-0.2-0.5-0.4-0.5L31.8,20v-2.2c0-0.3-0.2-0.5-0.4-0.5l-0.7-0.1v-2.4
		c0-0.3-0.2-0.5-0.4-0.5l-0.4,0v-2.2c0-0.3-0.2-0.5-0.4-0.5l-0.7-0.1V9.2c0-0.3-0.2-0.5-0.4-0.5l-0.6-0.1V6.4c0-0.3-0.2-0.5-0.4-0.5
		l-0.8-0.1l-0.6-2.5c-0.1-0.2-0.2-0.3-0.4-0.4V0.5C25.5,0.2,25.3,0,25,0s-0.5,0.2-0.5,0.5v2.4c-0.2,0-0.4,0.2-0.4,0.4l-0.6,2.5
		l-0.8,0.1c-0.2,0-0.4,0.2-0.4,0.5v2.2l-0.6,0.1c-0.2,0-0.4,0.2-0.4,0.5v2.4l-0.7,0.1c-0.2,0-0.4,0.2-0.4,0.5v2.2l-0.4,0
		c-0.2,0-0.4,0.2-0.4,0.5v2.4l-0.7,0.1c-0.2,0-0.4,0.2-0.4,0.5V20l-0.7,0.1c-0.2,0-0.4,0.2-0.4,0.5V23l-0.9,0.1
		c-0.2,0-0.4,0.2-0.4,0.5v2.2L15,25.9c-0.2,0-0.4,0.2-0.4,0.5v2.1l-0.7,0.1c-0.2,0-0.4,0.2-0.4,0.5v2.8H9.2c0,0,0,0,0,0
		c0,0-0.1,0-0.1,0c0,0,0,0-0.1,0c0,0,0,0,0,0c0,0-0.1,0-0.1,0.1c0,0,0,0,0,0L7,33.9c-0.1,0.1-0.1,0.2-0.1,0.3v10H5
		c-0.3,0-0.5,0.2-0.5,0.5v1.9h-4c-0.3,0-0.5,0.2-0.5,0.5v2.4C0,49.8,0.2,50,0.5,50h49c0.3,0,0.5-0.2,0.5-0.5v-2.4
		C50,46.8,49.8,46.6,49.5,46.6z M42.1,44.2h-0.8V33.6l0.8,0.8V44.2z M35.6,31.9H29v-3.3l6.6,0.9V31.9z M22,31.9v-3.4l1.9,0h2.3H28
		v3.4H22z M24.3,27.5v-1.8l0.7,0l0.2,0h0.4v1.8H24.3z M26.2,24.7C26.2,24.7,26.2,24.7,26.2,24.7L26.2,24.7l-0.7,0V23l1.2,0.2l0.3,0
		v1.6L26.2,24.7z M24.4,20.2h1.3V22l-0.6-0.1c0,0,0,0-0.1,0s0,0-0.1,0L24.4,22V20.2z M23.1,23.2L23.1,23.2l1.5-0.2v1.7h-0.7
		c0,0,0,0,0,0l0,0l-0.7,0.1V23.2z M30.4,27.7l-1.3-0.2v-1.5l1.3,0.2V27.7z M28,24.9v-1.6l0.4,0.1l0.9,0.1v1.6L28,24.9z M27.6,22.2
		l-0.5-0.1l-0.4-0.1v-1.8l0.5,0.1l0.8,0.1v1.8L27.6,22.2z M26.3,19.3C26.3,19.3,26.3,19.3,26.3,19.3L26.3,19.3l-0.8,0v-1.7l0.2,0
		l0.4,0.1l0.7,0.1v1.6L26.3,19.3z M24.3,14.8h1.3v1.7l-0.6-0.1c0,0,0,0-0.1,0s0,0-0.1,0l-0.6,0.1V14.8z M23.9,17.6l0.4-0.1l0.2,0
		v1.7h-0.6c0,0,0,0,0,0l0,0l-0.6,0.1v-1.6L23.9,17.6z M22.8,20.4L22.8,20.4l0.6-0.1v1.8l-0.7,0.1l-0.2,0l-0.4,0.1v-1.8L22.8,20.4z
		 M20.8,23.5l0.9-0.1l0.4-0.1v1.6l-1.3,0.2V23.5z M19.6,26.3l1.3-0.2v1.5l-1.3,0.2V26.3z M21.8,27.5V26l1.5-0.2v1.7H21.8z
		 M26.7,25.8l1.5,0.2v1.5h-1.5V25.8z M32.5,28l-1.1-0.2v-1.5l0.4,0.1l0.7,0.1L32.5,28L32.5,28z M30.3,25.2v-1.6l0.2,0l0.9,0.1v1.6
		L30.3,25.2z M29.9,22.5L29,22.4v-1.8l0.3,0l0.8,0.1v1.8L29.9,22.5z M28.6,19.6l-0.8-0.1v-1.6l0.4,0.1l0.7,0.1v1.6L28.6,19.6z
		 M27.4,16.8l-0.7-0.1v-1.8l0.6,0.1l0.6,0.1v1.8L27.4,16.8z M26.2,13.8C26.2,13.8,26.2,13.8,26.2,13.8L26.2,13.8l-0.7,0v-1.7
		l0.6,0.1l0.7,0.1v1.6L26.2,13.8z M24.3,9.4l0.7,0h0.7v1.7L25.1,11c0,0,0,0,0,0c0,0,0,0-0.1,0c0,0,0,0-0.1,0c0,0,0,0,0,0l-0.6,0.1
		V9.4z M23.9,12.2l0.6-0.1v1.7h-0.7c0,0,0,0,0,0l0,0l-0.5,0.1v-1.6L23.9,12.2z M22.8,15L22.8,15l0.5-0.1v1.8l-0.7,0.1l-0.4,0.1V15
		L22.8,15z M21.8,17.9l0.4-0.1v1.6l-0.7,0.1l-0.4,0.1V18L21.8,17.9z M20.7,20.7l0.4-0.1v1.8l-0.9,0.1l-0.2,0v-1.8L20.7,20.7z
		 M18.6,23.8l0.9-0.1l0.2,0v1.6l-1.1,0.2V23.8z M17.4,26.6l1.1-0.2v1.5L17.4,28V26.6z M34.5,28.3l-0.6-0.1l-0.3,0v-1.5l0.1,0
		l0.8,0.1V28.3z M33.3,25.7l-0.2,0l-0.7-0.1v-1.6l0,0c0,0,0,0,0,0l0.9,0.1V25.7z M32,22.8L32,22.8l-0.9-0.1v-1.8l0.1,0c0,0,0,0,0,0
		L32,21V22.8z M30.8,19.9l-0.1,0l-0.8-0.1v-1.6l0.2,0c0,0,0,0,0,0l0.7,0.1V19.9z M29.5,17L28.8,17v-1.8l0.6,0.1c0,0,0,0,0,0l0.4,0
		v1.8L29.5,17z M28.9,14.2l-0.6-0.1L27.8,14v-1.6l0.4,0.1c0,0,0,0,0,0l0.7,0.1V14.2z M27.8,11.4l-0.4-0.1l-0.7-0.1V9.4l0.5,0.1
		c0,0,0,0,0,0l0.6,0.1V11.4z M26.8,8.4l-0.5-0.1c0,0,0,0,0,0l0,0c0,0,0,0,0,0h-0.7V6.6l0.6,0.1c0,0,0,0,0,0l0.7,0.1V8.4z M25,3.9
		L25,3.9l0.5,1.7l-0.4-0.1c0,0,0,0,0,0c0,0,0,0-0.1,0s0,0-0.1,0c0,0,0,0,0,0l-0.4,0.1L25,3.9z M23.2,6.8l0.7-0.1c0,0,0,0,0,0
		l0.6-0.1v1.7h-0.7c0,0,0,0,0,0l0,0c0,0,0,0,0,0l-0.5,0.1V6.8z M22.2,9.6l0.6-0.1c0,0,0,0,0,0l0.1,0l0.4-0.1v1.8l-0.7,0.1l-0.4,0.1
		V9.6z M21.1,12.5l0.7-0.1c0,0,0,0,0,0l0.4-0.1V14l-0.6,0.1l-0.5,0.1V12.5z M20.3,15.3l0.4,0c0,0,0,0,0,0l0.5-0.1V17L20.5,17l-0.2,0
		V15.3z M19.2,18.2l0.7-0.1c0,0,0,0,0,0l0.2,0v1.6l-0.7,0.1l-0.2,0V18.2z M18.1,21l0.7-0.1c0,0,0,0,0,0l0.2,0v1.8l-0.9,0.1l0,0V21z
		 M16.7,24l0.9-0.1c0,0,0,0,0,0l0,0v1.6l-0.5,0.1l-0.3,0l-0.1,0V24z M15.5,28.3v-1.5l0.8-0.1c0,0,0,0,0,0l0.1,0v1.5l-0.2,0
		L15.5,28.3z M14.4,29.5l6.6-0.9v3.3h-6.6V29.5z M9.7,32.9h4.3h7.6h7h7.6h4.3v11.3h-1.1v-4.5c0-1.2-0.5-2.5-1.2-3.1c0,0,0,0,0,0
		L36.4,35c-0.2-0.2-0.5-0.2-0.7,0l-1.7,1.5c-0.8,0.7-1.3,1.9-1.3,3.1v4.5h-0.9v-4.5c0-1.2-0.5-2.5-1.2-3.1c0,0,0,0,0,0L29.1,35
		c-0.2-0.2-0.5-0.2-0.7,0l-1.7,1.5c-0.8,0.7-1.3,1.9-1.3,3.1v4.5h-0.9v-4.5c0-1.2-0.5-2.5-1.2-3.1c0,0,0,0,0,0L21.7,35
		c-0.2-0.2-0.5-0.2-0.7,0l-1.7,1.5c-0.8,0.7-1.3,1.9-1.3,3.1v4.5h-0.9v-4.5c0-1.2-0.5-2.5-1.2-3.1c0,0,0,0,0,0L14.4,35
		c-0.2-0.2-0.5-0.2-0.7,0L12,36.5c-0.8,0.7-1.3,1.9-1.3,3.1v4.5H9.7V32.9z M38.2,44.2h-4.4v-4.5c0-1,0.4-1.9,0.9-2.4l1.4-1.2
		l1.3,1.2c0.5,0.5,0.9,1.4,0.9,2.4V44.2z M30.9,44.2h-4.4v-4.5c0-1,0.4-1.9,0.9-2.4l1.4-1.2l1.3,1.2c0.5,0.5,0.9,1.4,0.9,2.4V44.2z
		 M23.5,44.2h-4.4v-4.5c0-1,0.4-1.9,0.9-2.4l1.4-1.2l1.3,1.2c0.5,0.5,0.9,1.4,0.9,2.4V44.2z M16.2,44.2h-4.4v-4.5
		c0-1,0.4-1.9,0.9-2.4l1.4-1.2l1.3,1.2c0.5,0.5,0.9,1.4,0.9,2.4V44.2z M7.9,34.4l0.8-0.8v10.6H7.9V34.4z M5.5,45.2h3.7h2.1h5.4h1.9
		H24H26h5.4h1.9h5.4h2.1h3.7v1.4h-39V45.2z M49,49H1v-1.4h4h40h4V49z"/>
	<path d="M25.7,29.2C25.7,29.2,25.7,29.2,25.7,29.2l-0.5-0.3c-0.1-0.1-0.3-0.1-0.4,0l-0.5,0.3c-0.3,0.2-0.5,0.5-0.5,0.9v1
		c0,0.2,0.2,0.4,0.4,0.4h1.7c0.2,0,0.4-0.2,0.4-0.4v-1c0,0,0-0.1,0-0.1C26.2,29.7,26.1,29.4,25.7,29.2z M25.5,30.7h-0.8v-0.6
		c0-0.1,0.1-0.2,0.1-0.2l0.3-0.2l0.3,0.2c0.1,0.1,0.1,0.1,0.2,0.3V30.7z"/>
</g>
</svg>
