<?xml version="1.0" encoding="utf-8"?>
<!-- Generator: Adobe Illustrator 23.1.0, SVG Export Plug-In . SVG Version: 6.00 Build 0)  -->
<svg version="1.1" id="Layer_1" xmlns="http://www.w3.org/2000/svg" xmlns:xlink="http://www.w3.org/1999/xlink" x="0px" y="0px"
	 viewBox="0 0 50.3 50" style="enable-background:new 0 0 50.3 50;" xml:space="preserve">
<g>
	<path d="M38.3,21.8c0-0.1,0-0.1,0-0.2v-0.1v-0.1l0,0l0,0l-1.6-2.3v-2.3l0,0l0,0c0-0.1,0-0.2-0.1-0.3l0,0L25.6,0.2l0,0
		c0,0,0,0-0.1-0.1c0,0,0,0-0.1-0.1l0,0c0,0,0,0-0.1,0h-0.1h-0.1H25c0,0,0,0,0,0s0,0-0.1,0l0,0c0,0-0.1,0-0.1,0.1c0,0,0,0-0.1,0.1
		l0,0L13.8,16.4l0,0c0,0.1-0.1,0.2-0.1,0.3V19L12,21.3l0,0l0,0v0.1v0.1v0.1v0.1l0,0l0,0l0.8,1.4v3.1v3.2v2.1v18
		c0,0.3,0.2,0.5,0.5,0.5h23.5c0.1,0,0.3-0.1,0.4-0.1s0.1-0.2,0.1-0.4v-18l0,0v-2.1l0,0v-3.1v-3.1l0.8-1.4
		C38.2,21.9,38.2,21.9,38.3,21.8C38.2,21.9,38.2,21.9,38.3,21.8C38.2,21.8,38.2,21.8,38.3,21.8z M31.5,29v-2.4l1-1l1,1V29H31.5z
		 M28.6,29v-2.4l1-1l1,1V29H28.6z M25.6,29v-2.4l1-1l1,1V29H25.6z M22.7,29v-2.4l1-1l1,1V29H22.7z M19.8,29v-2.4l1-1l1,1V29H19.8z
		 M16.9,29v-2.4l1-1l1,1V29H16.9z M14,29v-2.4l1-1l1,1V29H14z M33.9,25.6l-0.3-0.3h0.5L33.9,25.6z M31,25.6l-0.3-0.3h0.5L31,25.6z
		 M28.1,25.6l-0.3-0.3h0.5L28.1,25.6z M25.1,25.6l-0.3-0.3h0.5L25.1,25.6z M22.2,25.6L22,25.4h0.5L22.2,25.6z M19.3,25.6L19,25.3
		h0.5L19.3,25.6z M16.4,25.6l-0.3-0.3h0.5L16.4,25.6z M34.4,26.6l1-1l1,1V29h-1.9v-2.4H34.4z M36.4,22.9c0,0.1-0.1,0.2-0.1,0.3v1.3
		H14v-1.4c0-0.1,0-0.2-0.1-0.3l-0.4-0.7h23.4L36.4,22.9z M17.1,16.5l1.8-0.4V19L17.1,16.5z M22.1,9.7l3-7.8l5,13h-10L22.1,9.7z
		 M31.4,16.1l0.4,0.1l1.4,0.3L31.4,19C31.4,19,31.4,16.1,31.4,16.1z M35.2,17l0.4,0.1v0.4L35.2,17L35.2,17z M34.9,15.9l-1.1-0.3
		L31.2,15l-4-10.5L34.9,15.9z M23.1,4.5l-4,10.5L15.5,16L23.1,4.5z M14.7,17.5v-0.4l0,0L15,17l0,0L14.7,17.5z M16.3,17.1l2.7,3.8
		c0.1,0.1,0.1,0.1,0.2,0.2h0.1h0.1c0.1,0,0.1,0,0.2,0c0.2-0.1,0.3-0.3,0.3-0.5V16h10.5v4.6c0,0.2,0.1,0.4,0.3,0.5c0.1,0,0.1,0,0.2,0
		H31h0.1c0.1,0,0.2-0.1,0.2-0.2l2.7-3.8l2.7,4H13.5L16.3,17.1z M14,32.3c0.6,0.2,1.1,0.8,1.1,1.5v12.6c0,0.3,0.2,0.5,0.5,0.5
		s0.5-0.2,0.5-0.5V33.7c0-1.2-0.9-2.3-2.1-2.5V30h2.4h2.9h2.9h2.9H28h3h2.9h2.4v1.2c-1.2,0.2-2.1,1.3-2.1,2.5v15.5H14V32.3z
		 M35.3,49.2V33.7c0-0.7,0.5-1.3,1.1-1.5v16.9h-1.1V49.2z"/>
	<path d="M26.3,16.6H24c-0.3,0-0.5,0.2-0.5,0.5v2.4c0,0.3,0.2,0.5,0.5,0.5h2.4c0.3,0,0.5-0.2,0.5-0.5v-2.4
		C26.8,16.8,26.6,16.6,26.3,16.6z M25.8,18.9h-1.4v-1.4h1.4V18.9z"/>
	<path d="M32.2,31.7h-5.6c-0.3,0-0.5,0.2-0.5,0.5v2c0,0.3,0.2,0.5,0.5,0.5h5.6c0.3,0,0.5-0.2,0.5-0.5v-2
		C32.7,31.9,32.5,31.7,32.2,31.7z M31.7,33.7h-4.5v-1h4.5V33.7z"/>
	<path d="M32.2,35.8h-1.6c-0.3,0-0.5,0.2-0.5,0.5V38c0,0.3,0.2,0.5,0.5,0.5h1.6c0.3,0,0.5-0.2,0.5-0.5v-1.6
		C32.7,36,32.5,35.8,32.2,35.8z M31.7,37.4h-0.6v-0.6h0.6V37.4z"/>
	<path d="M18,34.7h5.6c0.3,0,0.5-0.2,0.5-0.5v-2c0-0.3-0.2-0.5-0.5-0.5H18c-0.3,0-0.5,0.2-0.5,0.5v2C17.5,34.4,17.8,34.7,18,34.7z
		 M18.5,32.7H23v1h-4.5V32.7z"/>
	<path d="M19.7,35.8H18c-0.3,0-0.5,0.2-0.5,0.5V38c0,0.3,0.2,0.5,0.5,0.5h1.6c0.3,0,0.5-0.2,0.5-0.5v-1.6
		C20.2,36,19.9,35.8,19.7,35.8z M19.1,37.4h-0.6v-0.6h0.6V37.4z"/>
	<path d="M25.6,37.7c-0.2-0.2-0.5-0.2-0.7,0l-2.3,2c-0.9,0.8-1.4,1.9-1.4,3.1v4.8c0,0.3,0.2,0.5,0.5,0.5h1.1l0,0h4.9l0,0h1.1
		c0.3,0,0.5-0.2,0.5-0.5v-4.8c0-1.2-0.5-2.3-1.4-3.1L25.6,37.7z M27.2,47.1h-3.9v-2.8c0-0.6,0.2-1.1,0.7-1.4l1.3-1.1l1.3,1.1
		c0.4,0.4,0.7,0.9,0.7,1.4v2.8H27.2z M28.3,47.1h-0.1v-2.8c0-0.9-0.4-1.7-1-2.2l-1.6-1.4c-0.2-0.2-0.5-0.2-0.7,0l-1.6,1.4
		c-0.6,0.6-1,1.4-1,2.2v2.8h-0.1v-4.3c0-0.9,0.4-1.7,1.1-2.3l2-1.7l2,1.7c0.7,0.6,1.1,1.4,1.1,2.3v4.3H28.3z"/>
</g>
</svg>
