<svg height="512pt" viewBox="0 0 512.00004 512" width="512pt" xmlns="http://www.w3.org/2000/svg"><path d="m324.949219 443.515625c-12.609375 7.296875-21.097657 20.921875-21.097657 36.535156 0 .558594.011719 1.113281.03125 1.664063 1.03125 26.523437 41.101563 26.523437 42.128907 0 .023437-.550782.035156-1.105469.035156-1.664063 0-15.613281-8.488281-29.238281-21.097656-36.535156zm0 0" fill="#84abc1"/><path d="m324.949219 501.609375c-10.269531 0-20.542969-6.636719-21.054688-19.894531-.023437-.554688-.042969-1.109375-.042969-1.664063 0-15.613281 8.492188-29.238281 21.097657-36.535156-2.542969 7.296875-4.25 20.921875-4.25 36.535156 0 .554688 0 1.109375.007812 1.664063.105469 13.257812 2.171875 19.894531 4.242188 19.894531zm0 0" fill="#4d87a1"/><path d="m21.097656 443.515625c-12.609375 7.296875-21.097656 20.921875-21.097656 36.535156 0 .558594.0117188 1.113281.03125 1.664063 1.03125 26.523437 41.101562 26.523437 42.128906 0 .023438-.550782.035156-1.105469.035156-1.664063 0-15.613281-8.488281-29.238281-21.097656-36.535156zm0 0" fill="#84abc1"/><path d="m21.097656 501.609375c-10.269531 0-20.542968-6.636719-21.0546872-19.894531-.0234376-.554688-.0429688-1.109375-.0429688-1.664063 0-15.613281 8.492188-29.238281 21.097656-36.535156-2.542968 7.296875-4.25 20.921875-4.25 36.535156 0 .554688 0 1.109375.007813 1.664063.105469 13.257812 2.171875 19.894531 4.242187 19.894531zm0 0" fill="#4d87a1"/><path d="m504.28125 224.707031c0 46.8125-37.949219 84.765625-84.78125 84.765625h-306.777344c-62.25 0-112.71874975-50.457031-112.71874975-112.722656 0-62.246094 50.46874975-112.71875 112.71874975-112.71875 5.582032 0 11.074219.429688 16.453125 1.207031 25.457031-50.550781 77.804688-85.238281 138.289063-85.238281 73.175781 0 134.488281 50.808594 150.589844 119.070312 1.609374 6.808594 2.769531 13.792969 3.4375 20.90625v.015626c45.886718 1.050781 82.789062 38.570312 82.789062 84.714843zm0 0" fill="#d3ddea"/><path d="m321.246094 9.617188c-16.757813-6.222657-34.878906-9.61328175-53.78125-9.61328175-60.484375 0-112.816406 34.69140575-138.292969 85.22656275v.015625c-5.378906-.78125-10.867187-1.210938-16.453125-1.210938-62.261719 0-112.71875 50.472656-112.71875 112.722656 0 62.261719 50.457031 112.71875 112.71875 112.71875h54.480469c-56.101563 0-101.5625-45.476562-101.5625-101.566406 0-49.769531 35.800781-91.191406 83.074219-99.875 4.679687-.875 9.46875-1.417968 14.351562-1.609375 1.367188-.046875 2.753906-.078125 4.136719-.078125 18.238281 0 35.359375 4.804688 50.140625 13.238282-2.054688-14.3125-16.847656-27.714844-38.65625-38.515626 11.976562-40.503906 52.734375-78.066406 142.5625-71.453124zm0 0" fill="#84abc1"/><path d="m412.148438 355.984375c-12.609376 7.296875-21.097657 20.921875-21.097657 36.535156 0 .558594.011719 1.113281.03125 1.667969 1.03125 26.519531 41.101563 26.519531 42.128907 0 .023437-.554688.035156-1.109375.035156-1.667969 0-15.613281-8.488282-29.238281-21.097656-36.535156zm0 0" fill="#84abc1"/><path d="m412.148438 414.078125c-10.269532 0-20.542969-6.636719-21.054688-19.890625-.023438-.558594-.042969-1.113281-.042969-1.667969 0-15.613281 8.492188-29.238281 21.097657-36.535156-2.542969 7.296875-4.25 20.921875-4.25 36.535156 0 .554688 0 1.109375.011718 1.667969.101563 13.253906 2.167969 19.890625 4.238282 19.890625zm0 0" fill="#4d87a1"/><path d="m92.132812 355.984375c-12.609374 7.296875-21.097656 20.921875-21.097656 36.535156 0 .558594.011719 1.113281.03125 1.667969 1.03125 26.519531 41.101563 26.519531 42.128906 0 .023438-.554688.03125-1.109375.03125-1.667969.003907-15.613281-8.484374-29.238281-21.09375-36.535156zm0 0" fill="#84abc1"/><path d="m92.132812 414.078125c-10.273437 0-20.542968-6.636719-21.058593-19.890625-.019531-.558594-.039063-1.113281-.039063-1.667969 0-15.613281 8.488282-29.238281 21.097656-36.535156-2.542968 7.296875-4.25 20.921875-4.25 36.535156 0 .554688 0 1.109375.007813 1.667969.105469 13.253906 2.171875 19.890625 4.242187 19.890625zm0 0" fill="#4d87a1"/><g fill="#d3ddea"><path d="m207.113281 452.882812c-2.132812-3.695312-6.851562-4.957031-10.542969-2.828124l-15.828124 9.140624v-18.277343c0-4.261719-3.457032-7.71875-7.71875-7.71875-4.261719 0-7.71875 3.457031-7.71875 7.71875v18.277343l-15.828126-9.140624c-3.691406-2.132813-8.410156-.867188-10.542968 2.828124-2.128906 3.691407-.867188 8.410157 2.824218 10.542969l15.828126 9.136719-15.828126 9.136719c-3.691406 2.132812-4.953124 6.851562-2.824218 10.542969 1.429687 2.476562 4.023437 3.863281 6.691406 3.863281 1.308594 0 2.636719-.335938 3.851562-1.035157l15.828126-9.140624v18.277343c0 4.261719 3.457031 7.71875 7.71875 7.71875 4.261718 0 7.71875-3.457031 7.71875-7.71875v-18.277343l15.828124 9.140624c1.214844.699219 2.542969 1.035157 3.851563 1.035157 2.667969 0 5.261719-1.386719 6.691406-3.863281 2.132813-3.691407.867188-8.410157-2.824219-10.542969l-15.828124-9.136719 15.828124-9.136719c3.691407-2.132812 4.957032-6.851562 2.824219-10.542969zm0 0"/><path d="m508.140625 481.699219-15.828125-9.136719 15.828125-9.136719c3.691406-2.132812 4.957031-6.851562 2.824219-10.542969-2.132813-3.695312-6.851563-4.957031-10.542969-2.828124l-15.828125 9.140624v-18.277343c0-4.261719-3.457031-7.71875-7.71875-7.71875s-7.71875 3.457031-7.71875 7.71875v18.277343l-15.828125-9.140624c-3.691406-2.132813-8.410156-.867188-10.542969 2.828124-2.128906 3.691407-.867187 8.410157 2.824219 10.542969l15.828125 9.136719-15.828125 9.136719c-3.691406 2.132812-4.953125 6.851562-2.824219 10.542969 1.429688 2.476562 4.023438 3.863281 6.691406 3.863281 1.308594 0 2.636719-.335938 3.851563-1.035157l15.828125-9.140624v18.277343c0 4.261719 3.457031 7.71875 7.71875 7.71875s7.71875-3.457031 7.71875-7.71875v-18.277343l15.828125 9.140624c1.214844.699219 2.542969 1.035157 3.851563 1.035157 2.667968 0 5.261718-1.386719 6.691406-3.863281 2.132812-3.691407.867187-8.410157-2.824219-10.542969zm0 0"/><path d="m286.230469 365.351562c-2.132813-3.691406-6.851563-4.957031-10.542969-2.828124l-15.828125 9.140624v-18.277343c0-4.261719-3.457031-7.71875-7.71875-7.71875s-7.71875 3.457031-7.71875 7.71875v18.277343l-15.828125-9.140624c-3.691406-2.128907-8.410156-.863282-10.542969 2.828124-2.132812 3.691407-.867187 8.410157 2.824219 10.542969l15.828125 9.136719-15.828125 9.136719c-3.691406 2.132812-4.957031 6.851562-2.824219 10.542969 1.429688 2.476562 4.023438 3.863281 6.691407 3.863281 1.308593 0 2.636718-.335938 3.851562-1.035157l15.828125-9.140624v18.277343c0 4.261719 3.457031 7.71875 7.71875 7.71875s7.71875-3.457031 7.71875-7.71875v-18.273437l15.828125 9.136718c1.214844.703126 2.542969 1.035157 3.851562 1.035157 2.667969 0 5.261719-1.386719 6.691407-3.859375 2.128906-3.691406.867187-8.414063-2.824219-10.542969l-15.828125-9.140625 15.828125-9.136719c3.691406-2.132812 4.957031-6.851562 2.824219-10.542969zm0 0"/></g></svg>