<svg height="512pt" viewBox="0 -28 512 512" width="512pt" xmlns="http://www.w3.org/2000/svg"><path d="m512 228.148438c0 47.527343-38.53125 86.058593-86.078125 86.058593h-311.476563c-63.199218 0-114.44140575-51.226562-114.44140575-114.445312 0-63.199219 51.24218775-114.445313 114.44140575-114.445313 5.671876 0 11.246094.4375 16.707032 1.226563 25.847656-51.324219 79-86.542969 140.40625-86.542969 74.296875 0 136.546875 51.585938 152.894531 120.890625 1.632813 6.914063 2.8125 14.007813 3.492187 21.230469v.015625c46.589844 1.066406 84.054688 39.160156 84.054688 86.011719zm0 0" fill="#d3ddea"/><path d="m326.164062 9.761719c-17.011718-6.316407-35.414062-9.75781275-54.605468-9.75781275-61.40625 0-114.542969 35.21874975-140.410156 86.53124975v.015625c-5.457032-.792969-11.03125-1.230469-16.703126-1.230469-63.214843.003907-114.445312 51.246094-114.445312 114.449219 0 63.214844 51.230469 114.445313 114.445312 114.445313h55.316407c-56.964844 0-103.121094-46.171875-103.121094-103.121094 0-50.535156 36.351563-92.585938 84.347656-101.40625 4.75-.886719 9.613281-1.4375 14.570313-1.632812 1.390625-.046876 2.796875-.082032 4.203125-.082032 18.511719 0 35.894531 4.878906 50.90625 13.445313-2.085938-14.53125-17.105469-28.140625-39.25-39.105469 12.160156-41.125 53.542969-79.265625 144.746093-72.550781zm0 0" fill="#84abc1"/><g fill="#d3ddea"><path d="m165.375 396.296875c-2.160156-3.75-6.957031-5.035156-10.703125-2.871094l-16.070313 9.277344v-18.554687c0-4.328126-3.507812-7.835938-7.835937-7.835938s-7.835937 3.507812-7.835937 7.835938v18.554687l-16.070313-9.277344c-3.75-2.164062-8.542969-.878906-10.707031 2.871094-2.164063 3.746094-.878906 8.539063 2.871094 10.703125l16.066406 9.277344-16.066406 9.277344c-3.75 2.164062-5.035157 6.957031-2.871094 10.707031 1.453125 2.511719 4.085937 3.917969 6.796875 3.917969 1.328125 0 2.675781-.339844 3.910156-1.050782l16.070313-9.277344v18.554688c0 4.328125 3.507812 7.835938 7.835937 7.835938s7.835937-3.507813 7.835937-7.835938v-18.554688l16.070313 9.277344c1.234375.710938 2.582031 1.050782 3.910156 1.050782 2.707031 0 5.34375-1.40625 6.792969-3.917969 2.164062-3.75.878906-8.542969-2.867188-10.707031l-16.070312-9.277344 16.070312-9.277344c3.746094-2.164062 5.03125-6.957031 2.867188-10.703125zm0 0"/><path d="m290.609375 396.296875c-2.160156-3.75-6.957031-5.035156-10.703125-2.871094l-16.070312 9.277344v-18.554687c0-4.328126-3.507813-7.835938-7.835938-7.835938s-7.835938 3.507812-7.835938 7.835938v18.554687l-16.070312-9.277344c-3.75-2.164062-8.542969-.878906-10.703125 2.871094-2.164063 3.746094-.882813 8.539063 2.867187 10.703125l16.070313 9.277344-16.070313 9.277344c-3.75 2.164062-5.03125 6.957031-2.867187 10.707031 1.449219 2.511719 4.082031 3.917969 6.792969 3.917969 1.328125 0 2.675781-.339844 3.910156-1.050782l16.070312-9.277344v18.554688c0 4.328125 3.507813 7.835938 7.835938 7.835938s7.835938-3.507813 7.835938-7.835938v-18.554688l16.070312 9.277344c1.234375.710938 2.582031 1.050782 3.910156 1.050782 2.710938 0 5.34375-1.40625 6.792969-3.917969 2.164063-3.75.882813-8.542969-2.867187-10.707031l-16.070313-9.277344 16.070313-9.277344c3.75-2.164062 5.035156-6.957031 2.867187-10.703125zm0 0"/><path d="m412.980469 425.554688-16.070313-9.277344 16.070313-9.277344c3.746093-2.164062 5.03125-6.957031 2.867187-10.703125-2.164062-3.75-6.957031-5.035156-10.707031-2.871094l-16.066406 9.277344v-18.554687c0-4.328126-3.507813-7.835938-7.839844-7.835938-4.328125 0-7.835937 3.507812-7.835937 7.835938v18.554687l-16.070313-9.277344c-3.75-2.164062-8.542969-.878906-10.703125 2.871094-2.164062 3.746094-.878906 8.539063 2.867188 10.703125l16.070312 9.277344-16.070312 9.277344c-3.746094 2.164062-5.03125 6.957031-2.867188 10.707031 1.453125 2.511719 4.085938 3.917969 6.792969 3.917969 1.332031 0 2.679687-.339844 3.910156-1.050782l16.070313-9.277344v18.554688c0 4.328125 3.507812 7.835938 7.835937 7.835938 4.332031 0 7.839844-3.507813 7.839844-7.835938v-18.554688l16.066406 9.277344c1.238281.710938 2.582031 1.050782 3.914063 1.050782 2.707031 0 5.339843-1.40625 6.792968-3.917969 2.164063-3.75.878906-8.542969-2.867187-10.707031zm0 0"/></g></svg>