<?xml version="1.0" standalone="no"?>
<!DOCTYPE svg PUBLIC "-//W3C//DTD SVG 20010904//EN"
 "http://www.w3.org/TR/2001/REC-SVG-20010904/DTD/svg10.dtd">
<svg version="1.0" xmlns="http://www.w3.org/2000/svg"
 width="500.000000pt" height="500.000000pt" viewBox="0 0 500.000000 500.000000"
 preserveAspectRatio="xMidYMid meet">
<metadata>
Created by potrace 1.11, written by Peter Selinger 2001-2013
</metadata>
<g transform="translate(0.000000,500.000000) scale(0.100000,-0.100000)"
fill="#000000" stroke="none">
<path d="M525 3455 c-14 -13 -25 -36 -25 -50 0 -33 42 -75 75 -75 35 0 75 42
75 78 0 36 -37 72 -74 72 -15 0 -37 -10 -51 -25z"/>
<path d="M1062 3463 c-98 -48 -109 -201 -19 -265 42 -30 121 -35 167 -10 44
24 80 85 80 136 0 113 -126 190 -228 139z"/>
<path d="M791 3404 c-24 -30 -26 -46 -10 -77 16 -30 28 -37 67 -37 57 0 88 51
61 103 -16 30 -28 37 -66 37 -22 0 -38 -8 -52 -26z"/>
<path d="M2675 3417 c-22 -8 -51 -19 -64 -26 -42 -23 -112 -94 -133 -136 -18
-35 -263 -454 -344 -587 -16 -27 -32 -48 -35 -48 -4 0 -54 80 -113 178 -85
143 -106 185 -106 216 0 76 -64 136 -145 136 -43 0 -81 -18 -115 -55 -21 -23
-25 -36 -25 -90 0 -63 1 -65 46 -112 58 -59 69 -81 69 -131 0 -47 -31 -96 -80
-130 -28 -19 -44 -23 -83 -19 -61 5 -96 30 -125 90 -21 41 -23 52 -13 95 19
93 -22 176 -104 207 -155 60 -294 -107 -210 -251 25 -42 88 -83 131 -85 14 0
86 -115 304 -492 165 -285 303 -511 327 -538 24 -25 66 -59 95 -75 48 -26 62
-29 148 -29 84 0 101 3 146 27 90 47 127 97 334 448 109 184 202 335 206 334
5 0 99 -151 210 -334 111 -183 219 -350 240 -373 21 -22 66 -53 99 -68 50 -24
73 -29 140 -29 68 0 89 4 140 29 33 16 77 46 97 67 44 47 765 1289 785 1354 9
28 13 72 10 116 -7 127 -74 231 -189 291 -48 25 -63 28 -153 28 -81 0 -109 -4
-146 -21 -90 -42 -119 -80 -336 -440 -114 -189 -210 -344 -214 -344 -4 0 -95
149 -204 331 -108 182 -215 351 -237 375 -60 65 -133 97 -232 101 -48 2 -97
-2 -121 -10z"/>
<path d="M1383 3216 c-37 -17 -55 -46 -55 -91 0 -98 113 -139 176 -64 69 82
-22 198 -121 155z"/>
<path d="M863 3170 c-39 -24 -53 -48 -53 -95 0 -54 53 -105 108 -105 110 0
151 144 58 201 -40 24 -73 24 -113 -1z"/>
</g>
</svg>
